<svg id="Layer_1" data-name="Layer 1" xmlns="http://www.w3.org/2000/svg" viewBox="0 0 181.94141 90"><rect width="76" height="90" style="fill:#fff"/><path d="M24.99854,40.18964a2.094,2.094,0,0,1-.20166.9458A41.38279,41.38279,0,0,1,20.29443,48.009a1.643,1.643,0,0,0-.40332.958q0,.66944.07569,2.00586.07543,1.33593.07568,1.99219c0,.15136-.03369.24414-.10107.27734a2.89835,2.89835,0,0,1-.34034.06348,19.401,19.401,0,0,1-2.2705.07519,21.10911,21.10911,0,0,1-2.333-.07519q-.353-.04981-.353-.36621,0-.668.11328-2.03614.11354-1.36816.11377-2.0498a1.62576,1.62576,0,0,0-.30273-.87012q-1.52637-2.15625-4.36377-6.6084a1.70763,1.70763,0,0,1-.29-.80761q0-.7566-.07568-2.27-.07618-1.51318-.07569-2.27,0-.416.252-.416.76905,0,2.3335.063,1.56372.063,2.3457.063.29,0,.29.189,0,.6438-.05664,1.936-.05712,1.29271-.05664,1.936a5.56277,5.56277,0,0,0,1.10987,1.8916q.88255,1.18579,1.45019,1.82911.51709-.60571,1.37451-1.81641a6.1094,6.1094,0,0,0,1.085-1.82861q0-.63061-.09472-1.91065-.09448-1.28026-.09473-1.91064,0-.26514.11377-.30274h.31494q.75732,0,2.27686-.06933,1.519-.06959,2.28906-.06934.252,0,.25195.542,0,.6687.02539,2.01172Q24.99853,39.50849,24.99854,40.18964Z"/><path d="M43.21045,52.99042q0,.227-.31543.31543a14.47525,14.47525,0,0,1-2.3457.10058,15.93212,15.93212,0,0,1-2.3208-.10058.67967.67967,0,0,1-.542-.56739,4.82642,4.82642,0,0,0-.66845-1.94238,27.94124,27.94124,0,0,0-3.37989-.08789,9.93323,9.93323,0,0,0-2.28271.11328,3.468,3.468,0,0,0-.47949,1.34961q-.2395,1.0459-.58008,1.13477a21.20919,21.20919,0,0,1-2.87549.10058q-1.92993,0-1.92969-.36523,0-.32812,2.8501-8.05908,3.09009-8.36207,3.355-9.19434.15162-.479.353-.479.34057,0,1.05322.063t1.06543.063q.34058,0,1.00293-.04394.66212-.04469.99023-.04444.23877,0,.44141.41651.61743,1.32422,3.60693,9.08056Q43.21045,52.65032,43.21045,52.99042Zm-8.9419-11.48926q-.26439.55518-.8955,2.40869a13.06632,13.06632,0,0,0-.68116,2.30811q0,.227.75684.252.39111.02637,1.28662.02539.832,0,.92041-.20117a.49327.49327,0,0,0,.02539-.17774,12.29488,12.29488,0,0,0-.58008-2.29492A17.83528,17.83528,0,0,0,34.26855,41.50116Z"/><path d="M62.01465,44.47772a9.2443,9.2443,0,0,1-2.50977,6.59571,9.089,9.089,0,0,1-12.95263-.0254,9.18348,9.18348,0,0,1-2.522-6.57031,9.2461,9.2461,0,0,1,2.522-6.59619,9.00106,9.00106,0,0,1,12.92724,0A9.27552,9.27552,0,0,1,62.01465,44.47772Zm-4.77979-.02539A4.74221,4.74221,0,0,0,56.08691,41.236a3.97585,3.97585,0,0,0-6.07861.05078,5.00217,5.00217,0,0,0-.07568,6.40674,4.06487,4.06487,0,0,0,6.1167-.07519A4.6767,4.6767,0,0,0,57.23486,44.45233Z"/><path d="M96.5459,35.40936q0-.27686-.10059.83252-.13916,1.39966-.21484,3.582-.10107,2.47192-.10059,5.62452a64.96248,64.96248,0,0,0,.29,7.416c.0166.16016.02539.26074.02539.30274,0,.09277-.06347.14648-.18945.16406q-.45411.063-3.3418.0625-.68115,0-.78222-.26465c-.01661-.31934-.03418-.63867-.04981-.958a.38973.38973,0,0,0-.10156-.20215.83328.83328,0,0,0-.18945.15137,4.66351,4.66351,0,0,1-3.40479,1.33691A5.3362,5.3362,0,0,1,84.12354,51.591a6.65083,6.65083,0,0,1-1.52637-4.49023,6.77859,6.77859,0,0,1,1.501-4.52783,5.31,5.31,0,0,1,4.28809-1.8916,3.72747,3.72747,0,0,1,2.96338,1.21093q.17724.20142.252.20166.11425,0,.11426-.32812,0-.97119-.0498-2.90039-.05127-1.92993-.05079-2.88819c0-.24414.06641-.38281.20118-.4165q.80712-.03735,2.21972-.15137a19.04146,19.04146,0,0,0,2.23242-.31494C96.45312,35.09442,96.5459,35.1994,96.5459,35.40936ZM91.791,47.00018a2.49241,2.49241,0,0,0-.69336-1.74707,2.20311,2.20311,0,0,0-1.67725-.75049,2.01419,2.01419,0,0,0-1.646.75049A2.75536,2.75536,0,0,0,87.16309,47.05a2.53121,2.53121,0,0,0,.61767,1.72851,2.03532,2.03532,0,0,0,1.63965.75684,2.18433,2.18433,0,0,0,1.68994-.75684A2.57331,2.57331,0,0,0,91.791,47.00018Z" style="fill:#fff"/><path d="M109.96582,46.45721q0,1.27441-.82031,1.45118-.13917.0249-2.61035.27734-1.48829.16405-4.43946.39062a1.78633,1.78633,0,0,0,1.07227,1.249,3.77926,3.77926,0,0,0,1.66406.35254,4.75845,4.75845,0,0,0,2.25781-.60547q.479-.30176.959-.60547a3.78124,3.78124,0,0,1,.88867,1.28711,4.73309,4.73309,0,0,1,.624,1.47559c0,.05859-.0625.15527-.18847.29a6.24268,6.24268,0,0,1-4.78028,1.65235A6.73205,6.73205,0,0,1,99.75,51.91815a6.21247,6.21247,0,0,1-1.89258-4.7539,6.78374,6.78374,0,0,1,1.69043-4.75489,5.93291,5.93291,0,0,1,4.61621-1.917,5.477,5.477,0,0,1,4.11133,1.76563A5.86487,5.86487,0,0,1,109.96582,46.45721Zm-4.415-.769a1.949,1.949,0,0,0-.55469-1.37451,1.75348,1.75348,0,0,0-1.32421-.59277,1.59138,1.59138,0,0,0-1.31153.66845,2.29962,2.29962,0,0,0-.47949,1.4502q0,.34058.35352.34033a22.14873,22.14873,0,0,0,2.90039-.29Q105.55078,45.82684,105.55078,45.68817Z" style="fill:#fff"/><path d="M118.73047,43.10272a.61.61,0,0,1-.18945.34082,2.88993,2.88993,0,0,0-.70606-.08838,2.2501,2.2501,0,0,0-1.249.32764,1.19738,1.19738,0,0,0-.60547,1.07227,1.88808,1.88808,0,0,0,.64355,1.12255,12.68637,12.68637,0,0,1,1.19825,1.37452,3.6217,3.6217,0,0,1,.64355,2.05566,4.12694,4.12694,0,0,1-.25293,1.3623,2.65249,2.65249,0,0,1-.73144,1.16016,8.73423,8.73423,0,0,1-2.18165,1.36231,6.34083,6.34083,0,0,1-2.48437.58007q-.252,0-1.12891-1.36816a5.54943,5.54943,0,0,1-.877-1.67188c0-.07519.04688-.12109.13867-.13867q.88331-.1626,1.77832-.32715,1.11036-.353,1.11035-1.16113a2.103,2.103,0,0,0-.64355-1.28613q-1.147-1.27294-1.19824-1.34961a3.261,3.261,0,0,1-.64258-1.9165,3.846,3.846,0,0,1,1.917-3.21631,6.3836,6.3836,0,0,1,3.66992-1.17285q.20216,0,.9961,1.356A6.57364,6.57364,0,0,1,118.73047,43.10272Z" style="fill:#fff"/><path d="M134.458,47.23944a6.46859,6.46859,0,0,1-1.58985,4.47754,5.48235,5.48235,0,0,1-4.30078,1.84082,5.2632,5.2632,0,0,1-2.08008-.47852,4.84976,4.84976,0,0,1-1.00976-.47949q-.16407,0-.16406.37793,0,.64307.06347,1.93653.063,1.292.06348,1.93554a.36265.36265,0,0,1-.417.40332l-2.57227.0127a6.04279,6.04279,0,0,1-1.12305-.0625.43884.43884,0,0,1-.37792-.4668l.02539-9.71094a23.65438,23.65438,0,0,0-.44141-4.957,1.06242,1.06242,0,0,1-.02539-.21435.24727.24727,0,0,1,.15137-.25244,10.76968,10.76968,0,0,1,1.8789-.40332,14.09529,14.09529,0,0,1,1.95508-.21436q.49219,0,.56152.64941.06885.64966.16993.64942-.126,0,1.07812-.687a4.49567,4.49567,0,0,1,2.18848-.6875,5.62608,5.62608,0,0,1,4.376,1.80322A6.45459,6.45459,0,0,1,134.458,47.23944Zm-4.67969-.02539a2.70954,2.70954,0,0,0-.61816-1.76562,2.07679,2.07679,0,0,0-1.65137-.79444,1.92807,1.92807,0,0,0-1.61426.79444,2.89377,2.89377,0,0,0-.53027,1.76562,2.7887,2.7887,0,0,0,.55469,1.77832,1.95635,1.95635,0,0,0,1.63964.76953Q129.7793,49.7619,129.77832,47.21405Z" style="fill:#fff"/><path d="M148.23047,47.10077a6.37264,6.37264,0,0,1-1.75977,4.666,6.8225,6.8225,0,0,1-9.1875.0254,6.09725,6.09725,0,0,1-1.791-4.54A6.64724,6.64724,0,0,1,137.207,42.5036a6.06853,6.06853,0,0,1,4.6416-1.82226,6.2086,6.2086,0,0,1,4.61621,1.78466A6.30884,6.30884,0,0,1,148.23047,47.10077Zm-4.13672,0a2.71508,2.71508,0,0,0-.61816-1.75928,1.96623,1.96623,0,0,0-1.60157-.76318,2.02912,2.02912,0,0,0-1.63964.78222,2.82188,2.82188,0,0,0,0,3.49317,2.09627,2.09627,0,0,0,3.2666,0A2.70017,2.70017,0,0,0,144.09375,47.10077Z" style="fill:#fff"/><path d="M158.11719,45.44843q0,.49218-.542.49218-.24024,0-.7002-.03125-.46-.03222-.6875-.03174a2.25541,2.25541,0,0,0-1.4248.32764,1.74118,1.74118,0,0,0-.37891,1.32422q0,.542.01953,1.64551.019,1.1045.01856,1.64648,0,.36621.05078,1.09082.0498.7251.0498,1.07813,0,.30323-.416.34082-.605.0498-1.85352.0498a19.10868,19.10868,0,0,1-1.917-.07519q-.416-.04981-.416-.416,0-1.00928.0127-3.02051.01172-2.01123.01172-3.0205a18.32935,18.32935,0,0,0-.542-4.88086.92292.92292,0,0,1-.02539-.18946.24831.24831,0,0,1,.18946-.25244q.69287-.07544,2.03027-.27734,1.99365-.39039,2.05566-.39063.22705,0,.29.79444.063.79467.22754.79443-.17724,0,1.03418-.66211a4.86015,4.86015,0,0,1,2.333-.66211q.706,0,.706.30274a10.01829,10.01829,0,0,1-.07519,1.03418q-.07617.7185-.08887,1.03418c0,.24365.00488.56738.0127.97119Q158.1167,45.20917,158.11719,45.44843Z" style="fill:#fff"/><path d="M168.03125,49.61053a10.50682,10.50682,0,0,1-.09473,1.14747,10.2608,10.2608,0,0,0-.09472,1.1289.87855.87855,0,0,1-.07618.46,1.49462,1.49462,0,0,1-.416.291,7.35575,7.35575,0,0,1-3.60645.89453q-3.646,0-3.6455-2.78711,0-.832.06347-2.50293.063-1.67139.0625-2.50391,0-.55443-.64258-.55468H159.417c-.07617.0083-.13086.01269-.16406.01269q-.479,0-.47949-.34082,0-.20142.03222-.61767.03077-.416.03125-.61817,0-.26441-.03125-.80713-.03222-.542-.03222-.80713,0-.25194.80761-.27734.45411-.01245.49122-.25244a9.27873,9.27873,0,0,0,.05078-1.51318q-.04981-1.62745-.05078-1.55127,0-1.46339.27832-1.46338a4.53066,4.53066,0,0,1,.9707.15136,9.026,9.026,0,0,0,.99609.18946q.64306.08862,1.94239.23974c.21.0166.31543.08789.31543.21436q0,.50463-.082,1.52588-.082,1.02173-.082,1.53857,0,.61816.36621.61817.44092,0,1.33692-.03809.895-.03735,1.34863-.0376.27833,0,.27832.189,0,.29076-.06348.8706-.063.58008-.06347.87012c0,.20166.00488.49609.01269.88281q.01318.58008.0127.88281,0,.26441-.36524.26465c-.16894,0-.45019-.00634-.8457-.01855-.39453-.0127-.67676-.019-.84473-.019h-.94531c-.12695,0-.18945.18505-.18945.55468v.896c.00781.40332.01269.70215.01269.89551a3.12989,3.12989,0,0,0,.23926,1.46289,1.46043,1.46043,0,0,0,1.33692.542,4.09184,4.09184,0,0,0,.90234-.14551,4.1105,4.1105,0,0,1,.82519-.14453C167.94238,49.33319,168.03125,49.426,168.03125,49.61053Z" style="fill:#fff"/><path d="M181.48828,47.10077a6.37263,6.37263,0,0,1-1.75976,4.666,6.8225,6.8225,0,0,1-9.1875.0254,6.09722,6.09722,0,0,1-1.791-4.54,6.64724,6.64724,0,0,1,1.71484-4.74854,6.06854,6.06854,0,0,1,4.64161-1.82226,6.20863,6.20863,0,0,1,4.61621,1.78466A6.30888,6.30888,0,0,1,181.48828,47.10077Zm-4.13672,0a2.71508,2.71508,0,0,0-.61816-1.75928,1.96622,1.96622,0,0,0-1.60156-.76318,2.02914,2.02914,0,0,0-1.63965.78222,2.82188,2.82188,0,0,0,0,3.49317,2.09627,2.09627,0,0,0,3.2666,0A2.70017,2.70017,0,0,0,177.35156,47.10077Z" style="fill:#fff"/></svg>