<svg id="Layer_1" data-name="Layer 1" xmlns="http://www.w3.org/2000/svg" viewBox="0 0 368.56642 63.01465"><path d="M3.10645,46.81348V2.04785H30.30078a36.21471,36.21471,0,0,1,6.36426.51758,20.39054,20.39054,0,0,1,4.96387,1.47705A16.74954,16.74954,0,0,1,45.2373,6.26514,10.40033,10.40033,0,0,1,47.67383,9.082a12.92615,12.92615,0,0,1,1.78125,6.66943,11.62872,11.62872,0,0,1-1.7207,6.28809,10.63165,10.63165,0,0,1-5.52735,4.1875v.64014a11.4709,11.4709,0,0,1,3.82227,1.0957A5.25429,5.25429,0,0,1,48.252,30.03418a8.56775,8.56775,0,0,1,.96,2.52734,16.042,16.042,0,0,1,.24317,3.01465q0,2.49756.0459,3.86817.04541,1.36962.335,3.502a21.26286,21.26286,0,0,0,.86718,3.86719H38.97949a16.7069,16.7069,0,0,1-.86816-3.39551,28.0208,28.0208,0,0,1-.335-2.98438q-.04542-1.11181-.0459-2.96875a5.36266,5.36266,0,0,0-1.73535-4.37011q-1.73584-1.4458-5.87793-1.44629H14.83008v15.165Zm11.72363-24.7583h15.5918q7.30956,0,7.30859-5.11622a5.84341,5.84341,0,0,0-.39551-2.23828,3.45105,3.45105,0,0,0-1.1416-1.50732,9.71619,9.71619,0,0,0-1.46191-.89844,5.4584,5.4584,0,0,0-1.751-.47217q-1.03564-.12084-1.55371-.15185-.5171-.03-1.30957-.03076H14.83008Z" style="fill:#fff"/><path d="M92.63086,2.40283a12.71048,12.71048,0,0,1,2.33984-.19531,3.86393,3.86393,0,0,1,2.73145.76953,2.35593,2.35593,0,0,1,.74219,1.793A2.47985,2.47985,0,0,1,96.665,7.18018v.042a2.35049,2.35049,0,0,1,1.38672,1.90429,15.03572,15.03572,0,0,0,.72851,2.5918H97.51953a12.184,12.184,0,0,1-.62988-2.25488c-.28027-1.30274-.78516-1.793-1.8916-1.835H93.84961v4.08984H92.63086Zm1.21875,4.30078h1.24707c1.30273,0,2.12891-.71484,2.12891-1.793,0-1.21875-.88282-1.751-2.1709-1.76464a5.04787,5.04787,0,0,0-1.20508.11132Z" style="fill:#fff"/><path d="M101.38184,2.27686v9.4414h-1.21875V2.27686Z" style="fill:#fff"/><path d="M111.57715,6.8999c0,3.249-1.97461,4.97266-4.38379,4.97266-2.49414,0-4.24512-1.9336-4.24512-4.791,0-2.99707,1.86328-4.958,4.38477-4.958C109.91016,2.12354,111.57715,4.09814,111.57715,6.8999Zm-7.32617.1543c0,2.0166,1.09277,3.82324,3.01172,3.82324,1.93359,0,3.02539-1.77832,3.02539-3.92187,0-1.877-.98047-3.83789-3.01075-3.83789C105.25977,3.11768,104.251,4.981,104.251,7.0542Z" style="fill:#fff"/><path d="M112.98633,10.23389a4.32014,4.32014,0,0,0,2.18555.61621c1.24609,0,1.9746-.65821,1.9746-1.61133,0-.88281-.5039-1.38672-1.77929-1.877-1.54-.5459-2.49317-1.34473-2.49317-2.67578,0-1.47071,1.21875-2.5625,3.05371-2.5625a4.28591,4.28591,0,0,1,2.08692.46191l-.33594.99414a3.75954,3.75954,0,0,0-1.793-.44824c-1.28808,0-1.77929.77051-1.77929,1.415,0,.88281.57519,1.3164,1.87793,1.82129,1.59667.61621,2.40917,1.38671,2.40917,2.77343,0,1.457-1.0791,2.7168-3.30566,2.7168a4.88532,4.88532,0,0,1-2.41016-.60156Z" style="fill:#fff"/><path d="M92.63086,19.77a17.56333,17.56333,0,0,1,2.5918-.19531,5.41249,5.41249,0,0,1,3.82422,1.17578,4.35145,4.35145,0,0,1,1.33007,3.39062,4.9927,4.9927,0,0,1-1.3584,3.66944,5.82082,5.82082,0,0,1-4.1748,1.3584,19.59591,19.59591,0,0,1-2.21289-.11231Zm1.21875,8.34814a7.62567,7.62567,0,0,0,1.23242.07032c2.60547,0,4.02051-1.457,4.02051-4.00537.01367-2.22754-1.24707-3.64258-3.82422-3.64258a6.97964,6.97964,0,0,0-1.42871.126Z" style="fill:#fff"/><path d="M106.84375,24.65869h-3.66992V28.0625h4.08984V29.085h-5.30859V19.644h5.09863V20.6665h-3.87988v2.98438h3.66992Z" style="fill:#fff"/><path d="M108.6748,27.60059a4.32017,4.32017,0,0,0,2.18555.61621c1.2461,0,1.97461-.65821,1.97461-1.61133,0-.88233-.50391-1.38623-1.7793-1.87647-1.54-.54589-2.49316-1.34472-2.49316-2.67578,0-1.4707,1.21875-2.5625,3.05371-2.5625a4.28585,4.28585,0,0,1,2.08691.46192l-.33593.99414a3.75954,3.75954,0,0,0-1.793-.44824c-1.28809,0-1.77832.7705-1.77832,1.415,0,.88282.57422,1.31641,1.87695,1.82129,1.59668.61621,2.40918,1.38672,2.40918,2.77295,0,1.457-1.0791,2.7168-3.30566,2.7168a4.88536,4.88536,0,0,1-2.41016-.60156Z" style="fill:#fff"/><path d="M115.74512,19.75635a14.1797,14.1797,0,0,1,2.33984-.18164,3.87231,3.87231,0,0,1,2.64649.78418,2.53765,2.53765,0,0,1,.82714,1.97461,2.779,2.779,0,0,1-.72851,2.01757,3.912,3.912,0,0,1-2.88574,1.03614,4.17944,4.17944,0,0,1-.98047-.084V29.085h-1.21875Zm1.21875,4.55273a4.08022,4.08022,0,0,0,1.00879.09766c1.4707,0,2.36718-.71387,2.36718-2.0166,0-1.24707-.88281-1.84961-2.22754-1.84961a5.06578,5.06578,0,0,0-1.14843.09863Z" style="fill:#fff"/><path d="M131.26172,24.26709c0,3.24853-1.97461,4.97217-4.38379,4.97217-2.49414,0-4.24512-1.9336-4.24512-4.79053,0-2.99707,1.86328-4.958,4.38477-4.958C129.59473,19.49072,131.26172,21.46533,131.26172,24.26709Zm-7.32617.1543c0,2.01611,1.09277,3.82275,3.01172,3.82275,1.93359,0,3.02636-1.77832,3.02636-3.92139,0-1.877-.98144-3.83789-3.01172-3.83789C124.94434,20.48486,123.93555,22.34814,123.93555,24.42139Z" style="fill:#fff"/><path d="M132.83887,19.77a12.7096,12.7096,0,0,1,2.33984-.19531,3.86233,3.86233,0,0,1,2.73145.76953,2.35592,2.35592,0,0,1,.74218,1.793,2.47983,2.47983,0,0,1-1.77929,2.41015v.042a2.3504,2.3504,0,0,1,1.38672,1.9038,15.03572,15.03572,0,0,0,.72851,2.5918h-1.26074a12.184,12.184,0,0,1-.62988-2.25488c-.28028-1.30225-.78516-1.79248-1.89161-1.83447h-1.14843V29.085h-1.21875Zm1.21875,4.30078h1.24707c1.30273,0,2.1289-.71484,2.1289-1.793,0-1.21875-.88281-1.751-2.17089-1.76465a5.0477,5.0477,0,0,0-1.20508.11133Z" style="fill:#fff"/><path d="M142.29,20.68115H139.419V19.644h6.98925v1.03711h-2.88574V29.085H142.29Z" style="fill:#fff"/><path d="M155.14551,24.26709c0,3.24853-1.97461,4.97217-4.38379,4.97217-2.49414,0-4.24512-1.9336-4.24512-4.79053,0-2.99707,1.86328-4.958,4.38477-4.958C153.47852,19.49072,155.14551,21.46533,155.14551,24.26709Zm-7.32617.1543c0,2.01611,1.09277,3.82275,3.01171,3.82275,1.9336,0,3.0254-1.77832,3.0254-3.92139,0-1.877-.98047-3.83789-3.01075-3.83789C148.82812,20.48486,147.81934,22.34814,147.81934,24.42139Z" style="fill:#fff"/><path d="M94.1582,43.96582l-.98047,2.96973H91.917l3.207-9.44141h1.47071l3.22168,9.44141H98.51465l-1.00879-2.96973Zm3.09571-.95215L96.3291,40.2959c-.21-.61621-.35058-1.17676-.49023-1.72266h-.02832c-.13965.56055-.294,1.13477-.47657,1.709l-.92382,2.73144Z" style="fill:#fff"/><path d="M109.05762,42.11719c0,3.249-1.97461,4.97265-4.38379,4.97265-2.49414,0-4.24512-1.93359-4.24512-4.791,0-2.99707,1.86328-4.958,4.38477-4.958C107.39062,37.34082,109.05762,39.31543,109.05762,42.11719Zm-7.32617.15429c0,2.01661,1.09277,3.82325,3.01171,3.82325,1.9336,0,3.02539-1.77832,3.02539-3.92188,0-1.87695-.98046-3.83789-3.01074-3.83789C102.74023,38.335,101.73145,40.19824,101.73145,42.27148Z" style="fill:#fff"/><path d="M115.17188,46.93555l-3.082-9.44141h1.31739l1.4707,4.65039c.40625,1.27539.75586,2.42383,1.00879,3.53027h.02734c.2666-1.09277.65821-2.2832,1.0791-3.51562l1.59668-4.665h1.30274l-3.376,9.44141Z" style="fill:#fff"/><path d="M122.12891,37.49414v9.44141h-1.21875V37.49414Z" style="fill:#fff"/><path d="M126.3291,46.93555l-3.082-9.44141h1.31738l1.47071,4.65039c.40625,1.27539.75586,2.42383,1.00879,3.53027h.02734c.2666-1.09277.6582-2.2832,1.0791-3.51562l1.59668-4.665h1.30273l-3.376,9.44141Z" style="fill:#fff"/><path d="M140.13574,42.11719c0,3.249-1.97461,4.97265-4.38379,4.97265-2.49414,0-4.24511-1.93359-4.24511-4.791,0-2.99707,1.86328-4.958,4.38476-4.958C138.46875,37.34082,140.13574,39.31543,140.13574,42.11719Zm-7.32617.15429c0,2.01661,1.09277,3.82325,3.01172,3.82325,1.93359,0,3.02539-1.77832,3.02539-3.92188,0-1.87695-.98047-3.83789-3.01074-3.83789C133.81836,38.335,132.80957,40.19824,132.80957,42.27148Z" style="fill:#fff"/></svg>