<svg id="Layer_1" data-name="Layer 1" xmlns="http://www.w3.org/2000/svg" viewBox="0 0 182.82422 90"><rect width="76" height="90" style="fill:#fff"/><path d="M25.56641,53.17987c0,.05859-.08448.10059-.25245.126a21.78391,21.78391,0,0,1-2.40869.07519,21.37307,21.37307,0,0,1-2.24511-.07519,1.25658,1.25658,0,0,1-.31543-.06348.54852.54852,0,0,1-.17627-.252q-.189-.4922-.55518-1.46289-.49146-1.26123-1.53857-3.72071a1.111,1.111,0,0,0-1.04688-.542q.37866.0249-1.29883.02539-.189,0-.18945.64258,0,.85841.15772,2.56055.15747,1.70214.15771,2.56054,0,.21387-.11328.252c-.11816.00781-.23584.0166-.353.02539q-.74487.0498-2.3208.0498a16.68748,16.68748,0,0,1-2.16943-.07519q-.36547-.07617-.36573-.39063,0-1.3872.13233-4.1875.13257-2.79931.13281-4.1997,0-5.335-.23974-8.32374l-.0127-.17675q-.01245-.21461.39746-.29.40943-.07545,3.853-.15137,2.33276-.05054,3.72021-.05029a7.8813,7.8813,0,0,1,4.6919,1.29883,4.86736,4.86736,0,0,1,2.05566,4.22509,6.83029,6.83029,0,0,1-.52978,2.93848,5.99115,5.99115,0,0,1-1.95508,2.13184q-.29.20214-.29.37793,0-.01173,1.53906,3.166A22.92482,22.92482,0,0,1,25.56641,53.17987ZM20.269,41.86688a2.26091,2.26091,0,0,0-1.00879-2.13135,5.04987,5.04987,0,0,0-2.44677-.4541q-1.19824,0-1.27393.36573a21.97947,21.97947,0,0,0-.07519,2.47168q0,.29076.0122.85791.01245.56761.0127.84472c0,.04248.13428.08447.40381.12647a11.05219,11.05219,0,0,0,1.61425.11328Q20.26929,44.06122,20.269,41.86688Z"/><path d="M32.11182,43.98553q0,1.48829.07568,4.47754.07543,2.98829.07568,4.47657c0,.16894-.03808.27343-.11377.31543a2.534,2.534,0,0,1-.32763.05078,18.81827,18.81827,0,0,1-2.19434.10058,16.04537,16.04537,0,0,1-2.34619-.10058q-.36547-.07617-.36572-.39063,0,.20069.11377-2.21972.227-5.10792.22705-6.71,0-1.34911-.08838-4.04834-.08862-2.699-.08838-4.04834,0-.27757.29-.27734.39111,0,1.1792.0376.78809.03809,1.1792.03808t1.15429-.03808q.76245-.03809,1.15381-.0376.36549,0,.36573.27734,0,1.34987-.145,4.04834Q32.11182,42.63617,32.11182,43.98553Z"/><path d="M52.20264,44.47772a9.2443,9.2443,0,0,1-2.50977,6.59571,8.55037,8.55037,0,0,1-6.48242,2.69921A8.52383,8.52383,0,0,1,36.74023,51.048a9.18348,9.18348,0,0,1-2.522-6.57031,9.24609,9.24609,0,0,1,2.522-6.59619,9.00107,9.00107,0,0,1,12.92725,0A9.27552,9.27552,0,0,1,52.20264,44.47772Zm-4.77979-.02539A4.74221,4.74221,0,0,0,46.2749,41.236a3.97585,3.97585,0,0,0-6.07861.05078,5.00217,5.00217,0,0,0-.07568,6.40674,4.06486,4.06486,0,0,0,6.11669-.07519A4.67671,4.67671,0,0,0,47.42285,44.45233Z"/><path d="M62.68311,47.50409a5.57417,5.57417,0,0,1-2.15674,4.38965,9.21993,9.21993,0,0,1-4.60352,2.05566,1.52079,1.52079,0,0,1-.16357.0127q-.29077,0-1.28662-1.77246a7.65244,7.65244,0,0,1-.99659-2.16309c0-.0918.06348-.15137.18946-.17676a13.34262,13.34262,0,0,0,2.42138-.706,2.08261,2.08261,0,0,0,1.31153-1.94239,2.97105,2.97105,0,0,0-.85742-1.82861q-1.48829-1.71459-1.61426-1.9043a5.135,5.135,0,0,1-.87012-2.90087,4.56444,4.56444,0,0,1,2.13135-3.834,9.575,9.575,0,0,1,4.27539-1.63916c.09228-.0083.16406-.01269.21435-.01269q.189,0,.30274.30273.32739.92066,1.52588,3.32959a.29467.29467,0,0,1,.03808.126q0,.21459-.227.21435a2.50734,2.50734,0,0,1-.34082-.03808,2.581,2.581,0,0,0-.36572-.0376,2.98772,2.98772,0,0,0-1.58887.416,1.48192,1.48192,0,0,0-.81982,1.33692,3.3,3.3,0,0,0,.9082,1.89209q1.60107,2.01782,1.67725,2.11865A5.06812,5.06812,0,0,1,62.68311,47.50409Z"/><path d="M97.42871,35.40936q0-.27686-.10059.83252-.13916,1.39966-.21484,3.582-.10107,2.47192-.10058,5.62452a64.9655,64.9655,0,0,0,.29,7.416c.01661.16016.02539.26074.02539.30274,0,.09277-.06347.14648-.18945.16406q-.4541.063-3.34179.0625-.68117,0-.78223-.26465c-.0166-.31934-.03418-.63867-.04981-.958a.38965.38965,0,0,0-.10156-.20215.83328.83328,0,0,0-.18945.15137A4.6643,4.6643,0,0,1,89.269,53.45721,5.33621,5.33621,0,0,1,85.00635,51.591,6.65083,6.65083,0,0,1,83.48,47.10077a6.77854,6.77854,0,0,1,1.501-4.52783,5.31,5.31,0,0,1,4.28808-1.8916,3.72678,3.72678,0,0,1,2.96338,1.21093q.17725.20142.252.20166.11426,0,.11425-.32812,0-.97119-.0498-2.90039-.05127-1.92993-.05078-2.88819c0-.24414.0664-.38281.20117-.4165q.80712-.03735,2.21973-.15137a19.04146,19.04146,0,0,0,2.23242-.31494Q97.42823,35.09442,97.42871,35.40936ZM92.67383,47.00018a2.49241,2.49241,0,0,0-.69336-1.74707,2.20338,2.20338,0,0,0-1.67774-.75049,2.01386,2.01386,0,0,0-1.6455.75049A2.75532,2.75532,0,0,0,88.0459,47.05a2.53121,2.53121,0,0,0,.61767,1.72851,2.035,2.035,0,0,0,1.63916.75684,2.1846,2.1846,0,0,0,1.69043-.75684A2.57326,2.57326,0,0,0,92.67383,47.00018Z" style="fill:#fff"/><path d="M110.84863,46.45721q0,1.27441-.82031,1.45118-.13915.0249-2.61035.27734-1.48828.16405-4.43945.39062a1.78629,1.78629,0,0,0,1.07226,1.249,3.77929,3.77929,0,0,0,1.66406.35254,4.75851,4.75851,0,0,0,2.25782-.60547q.479-.30176.959-.60547a3.78109,3.78109,0,0,1,.88867,1.28711,4.73322,4.73322,0,0,1,.624,1.47559c0,.05859-.0625.15527-.18848.29a6.24267,6.24267,0,0,1-4.78027,1.65235,6.73206,6.73206,0,0,1-4.84278-1.75391,6.21247,6.21247,0,0,1-1.89258-4.7539,6.78374,6.78374,0,0,1,1.69043-4.75489,5.93292,5.93292,0,0,1,4.61622-1.917A5.477,5.477,0,0,1,109.1582,42.258,5.86483,5.86483,0,0,1,110.84863,46.45721Zm-4.415-.769a1.949,1.949,0,0,0-.55468-1.37451,1.75351,1.75351,0,0,0-1.32422-.59277,1.59138,1.59138,0,0,0-1.31153.66845,2.29962,2.29962,0,0,0-.47949,1.4502q0,.34058.35352.34033a22.14873,22.14873,0,0,0,2.90039-.29Q106.43359,45.82684,106.43359,45.68817Z" style="fill:#fff"/><path d="M119.61328,43.10272a.61.61,0,0,1-.18945.34082,2.88987,2.88987,0,0,0-.70606-.08838,2.2501,2.2501,0,0,0-1.249.32764,1.19738,1.19738,0,0,0-.60547,1.07227,1.88805,1.88805,0,0,0,.64356,1.12255,12.68585,12.68585,0,0,1,1.19824,1.37452,3.6217,3.6217,0,0,1,.64355,2.05566,4.12694,4.12694,0,0,1-.25293,1.3623,2.65249,2.65249,0,0,1-.73144,1.16016,8.73435,8.73435,0,0,1-2.18164,1.36231,6.34091,6.34091,0,0,1-2.48438.58007q-.252,0-1.1289-1.36816a5.54958,5.54958,0,0,1-.877-1.67188c0-.07519.04688-.12109.13867-.13867q.88331-.1626,1.77833-.32715,1.11034-.353,1.11035-1.16113a2.103,2.103,0,0,0-.64356-1.28613q-1.147-1.27294-1.19824-1.34961a3.261,3.261,0,0,1-.64258-1.9165,3.846,3.846,0,0,1,1.917-3.21631,6.38361,6.38361,0,0,1,3.66993-1.17285q.20214,0,.99609,1.356A6.57364,6.57364,0,0,1,119.61328,43.10272Z" style="fill:#fff"/><path d="M135.34082,47.23944A6.46858,6.46858,0,0,1,133.751,51.717a5.48238,5.48238,0,0,1-4.30078,1.84082,5.26317,5.26317,0,0,1-2.08008-.47852,4.84975,4.84975,0,0,1-1.00977-.47949q-.16406,0-.16406.37793,0,.64307.06348,1.93653.063,1.292.06347,1.93554a.36265.36265,0,0,1-.417.40332l-2.57227.0127a6.04265,6.04265,0,0,1-1.123-.0625.43884.43884,0,0,1-.37793-.4668l.02539-9.71094a23.6537,23.6537,0,0,0-.44141-4.957,1.06242,1.06242,0,0,1-.02539-.21435.24727.24727,0,0,1,.15137-.25244,10.76963,10.76963,0,0,1,1.87891-.40332,14.095,14.095,0,0,1,1.95507-.21436q.4922,0,.56153.64941.06885.64966.16992.64942-.126,0,1.07812-.687a4.49567,4.49567,0,0,1,2.18848-.6875,5.62612,5.62612,0,0,1,4.376,1.80322A6.45459,6.45459,0,0,1,135.34082,47.23944Zm-4.67969-.02539a2.70954,2.70954,0,0,0-.61816-1.76562,2.07676,2.07676,0,0,0-1.65137-.79444,1.92807,1.92807,0,0,0-1.61426.79444,2.89377,2.89377,0,0,0-.53027,1.76562,2.7887,2.7887,0,0,0,.55469,1.77832,1.95637,1.95637,0,0,0,1.63965.76953Q130.66211,49.7619,130.66113,47.21405Z" style="fill:#fff"/><path d="M149.11328,47.10077a6.37263,6.37263,0,0,1-1.75976,4.666,6.8225,6.8225,0,0,1-9.1875.0254,6.09722,6.09722,0,0,1-1.791-4.54,6.64724,6.64724,0,0,1,1.71484-4.74854,6.06854,6.06854,0,0,1,4.64161-1.82226,6.20863,6.20863,0,0,1,4.61621,1.78466A6.30888,6.30888,0,0,1,149.11328,47.10077Zm-4.13672,0a2.71508,2.71508,0,0,0-.61816-1.75928,1.96622,1.96622,0,0,0-1.60156-.76318,2.02914,2.02914,0,0,0-1.63965.78222,2.82188,2.82188,0,0,0,0,3.49317,2.09627,2.09627,0,0,0,3.2666,0A2.70017,2.70017,0,0,0,144.97656,47.10077Z" style="fill:#fff"/><path d="M159,45.44843q0,.49218-.542.49218-.24024,0-.7002-.03125-.46-.03222-.6875-.03174a2.25541,2.25541,0,0,0-1.4248.32764,1.74118,1.74118,0,0,0-.37891,1.32422q0,.542.01953,1.64551.019,1.1045.01856,1.64648,0,.36621.05078,1.09082.0498.7251.0498,1.07813,0,.30323-.416.34082-.605.0498-1.85352.0498a19.10868,19.10868,0,0,1-1.917-.07519q-.416-.04981-.416-.416,0-1.00928.0127-3.02051.01172-2.01123.01172-3.0205a18.32981,18.32981,0,0,0-.542-4.88086.92223.92223,0,0,1-.02539-.18946.2483.2483,0,0,1,.18945-.25244q.69287-.07544,2.03027-.27734,1.99365-.39039,2.05567-.39063.227,0,.29.79444.063.79467.22753.79443-.17724,0,1.03418-.66211a4.86018,4.86018,0,0,1,2.333-.66211q.70605,0,.70606.30274a10.016,10.016,0,0,1-.0752,1.03418q-.07617.7185-.08887,1.03418c0,.24365.00489.56738.0127.97119Q158.99951,45.20917,159,45.44843Z" style="fill:#fff"/><path d="M168.91406,49.61053a10.50622,10.50622,0,0,1-.09472,1.14747,10.2589,10.2589,0,0,0-.09473,1.1289.87869.87869,0,0,1-.07617.46,1.4949,1.4949,0,0,1-.416.291,7.35571,7.35571,0,0,1-3.60644.89453q-3.646,0-3.64551-2.78711,0-.832.06348-2.50293.063-1.67139.0625-2.50391,0-.55443-.64258-.55468h-.16407c-.07617.0083-.13085.01269-.16406.01269q-.479,0-.47949-.34082,0-.20142.03223-.61767.03075-.416.03125-.61817,0-.26441-.03125-.80713-.03223-.542-.03223-.80713,0-.25194.80762-.27734.4541-.01245.49121-.25244a9.27873,9.27873,0,0,0,.05078-1.51318q-.0498-1.62745-.05078-1.55127,0-1.46339.27832-1.46338a4.53066,4.53066,0,0,1,.9707.15136,9.0256,9.0256,0,0,0,.9961.18946q.64306.08862,1.94238.23974c.21.0166.31543.08789.31543.21436q0,.50463-.082,1.52588-.082,1.02173-.082,1.53857,0,.61816.36621.61817.44091,0,1.33691-.03809.895-.03735,1.34863-.0376.27833,0,.27832.189,0,.29076-.06347.8706-.063.58008-.06348.87012c0,.20166.00488.49609.0127.88281q.01317.58008.01269.88281,0,.26441-.36523.26465c-.16895,0-.4502-.00634-.84571-.01855-.39453-.0127-.67675-.019-.84472-.019h-.94532c-.12695,0-.18945.18505-.18945.55468v.896c.00781.40332.0127.70215.0127.89551a3.12992,3.12992,0,0,0,.23925,1.46289,1.46044,1.46044,0,0,0,1.33692.542,4.09184,4.09184,0,0,0,.90234-.14551,4.11056,4.11056,0,0,1,.8252-.14453C168.8252,49.33319,168.91406,49.426,168.91406,49.61053Z" style="fill:#fff"/><path d="M182.37109,47.10077a6.37263,6.37263,0,0,1-1.75976,4.666,6.8225,6.8225,0,0,1-9.1875.0254,6.09722,6.09722,0,0,1-1.791-4.54,6.64721,6.64721,0,0,1,1.71485-4.74854,6.06852,6.06852,0,0,1,4.6416-1.82226,6.20863,6.20863,0,0,1,4.61621,1.78466A6.30884,6.30884,0,0,1,182.37109,47.10077Zm-4.13671,0a2.71508,2.71508,0,0,0-.61817-1.75928,1.96622,1.96622,0,0,0-1.60156-.76318,2.02914,2.02914,0,0,0-1.63965.78222,2.82188,2.82188,0,0,0,0,3.49317,2.09627,2.09627,0,0,0,3.2666,0A2.70018,2.70018,0,0,0,178.23438,47.10077Z" style="fill:#fff"/></svg>