<svg id="Layer_1" data-name="Layer 1" xmlns="http://www.w3.org/2000/svg" viewBox="0 0 171.91016 90"><rect width="76" height="90" style="fill:none"/><path d="M27.56641,53.17987c0,.05859-.08448.10059-.25245.126a21.78391,21.78391,0,0,1-2.40869.07519,21.37307,21.37307,0,0,1-2.24511-.07519,1.25658,1.25658,0,0,1-.31543-.06348.54852.54852,0,0,1-.17627-.252q-.189-.4922-.55518-1.46289-.49146-1.26123-1.53857-3.72071a1.111,1.111,0,0,0-1.04688-.542q.37866.0249-1.29883.02539-.189,0-.18945.64258,0,.85841.15772,2.56055.15747,1.70214.15771,2.56054,0,.21387-.11328.252c-.11816.00781-.23584.0166-.353.02539q-.74487.0498-2.3208.0498a16.68748,16.68748,0,0,1-2.16943-.07519q-.36547-.07617-.36573-.39063,0-1.3872.13233-4.1875.13257-2.79931.13281-4.1997,0-5.335-.23974-8.32374l-.0127-.17675q-.01245-.21461.39746-.29.40943-.07545,3.853-.15137,2.33276-.05054,3.72021-.05029a7.8813,7.8813,0,0,1,4.6919,1.29883,4.86736,4.86736,0,0,1,2.05566,4.22509,6.83029,6.83029,0,0,1-.52978,2.93848,5.99115,5.99115,0,0,1-1.95508,2.13184q-.29.20214-.29.37793,0-.01173,1.53906,3.166A22.92482,22.92482,0,0,1,27.56641,53.17987ZM22.269,41.86688a2.26091,2.26091,0,0,0-1.00879-2.13135,5.04987,5.04987,0,0,0-2.44677-.4541q-1.19824,0-1.27393.36573a21.97947,21.97947,0,0,0-.07519,2.47168q0,.29076.0122.85791.01245.56761.0127.84472c0,.04248.13428.08447.40381.12647a11.05219,11.05219,0,0,0,1.61425.11328Q22.26929,44.06122,22.269,41.86688Z" style="fill:#fff"/><path d="M34.11182,43.98553q0,1.48829.07568,4.47754.07543,2.98829.07568,4.47657c0,.16894-.03808.27343-.11377.31543a2.534,2.534,0,0,1-.32763.05078,18.81827,18.81827,0,0,1-2.19434.10058,16.04537,16.04537,0,0,1-2.34619-.10058q-.36547-.07617-.36572-.39063,0,.20069.11377-2.21972.227-5.10792.22705-6.71,0-1.34911-.08838-4.04834-.08862-2.699-.08838-4.04834,0-.27757.29-.27734.39111,0,1.1792.0376.78809.03809,1.1792.03808t1.15429-.03808q.76245-.03809,1.15381-.0376.36549,0,.36573.27734,0,1.34987-.145,4.04834Q34.11182,42.63617,34.11182,43.98553Z" style="fill:#fff"/><path d="M54.20264,44.47772a9.2443,9.2443,0,0,1-2.50977,6.59571,8.55037,8.55037,0,0,1-6.48242,2.69921A8.52383,8.52383,0,0,1,38.74023,51.048a9.18348,9.18348,0,0,1-2.522-6.57031,9.24609,9.24609,0,0,1,2.522-6.59619,9.00107,9.00107,0,0,1,12.92725,0A9.27552,9.27552,0,0,1,54.20264,44.47772Zm-4.77979-.02539A4.74221,4.74221,0,0,0,48.2749,41.236a3.97585,3.97585,0,0,0-6.07861.05078,5.00217,5.00217,0,0,0-.07568,6.40674,4.06486,4.06486,0,0,0,6.11669-.07519A4.67671,4.67671,0,0,0,49.42285,44.45233Z" style="fill:#fff"/><path d="M64.68311,47.50409a5.57417,5.57417,0,0,1-2.15674,4.38965,9.21993,9.21993,0,0,1-4.60352,2.05566,1.52079,1.52079,0,0,1-.16357.0127q-.29077,0-1.28662-1.77246a7.65244,7.65244,0,0,1-.99659-2.16309c0-.0918.06348-.15137.18946-.17676a13.34262,13.34262,0,0,0,2.42138-.706,2.08261,2.08261,0,0,0,1.31153-1.94239,2.97105,2.97105,0,0,0-.85742-1.82861q-1.48829-1.71459-1.61426-1.9043a5.135,5.135,0,0,1-.87012-2.90087,4.56444,4.56444,0,0,1,2.13135-3.834,9.575,9.575,0,0,1,4.27539-1.63916c.09228-.0083.16406-.01269.21435-.01269q.189,0,.30274.30273.32739.92066,1.52588,3.32959a.29467.29467,0,0,1,.03808.126q0,.21459-.22705.21435a2.50734,2.50734,0,0,1-.34082-.03808,2.581,2.581,0,0,0-.36572-.0376,2.98772,2.98772,0,0,0-1.58887.416,1.48192,1.48192,0,0,0-.81982,1.33692,3.3,3.3,0,0,0,.9082,1.89209q1.60107,2.01782,1.67725,2.11865A5.06812,5.06812,0,0,1,64.68311,47.50409Z" style="fill:#fff"/><path d="M86.51416,35.40936q0-.27686-.10059.83252-.13916,1.39966-.21435,3.582-.10107,2.47192-.10108,5.62452a64.96248,64.96248,0,0,0,.29,7.416c.01661.16016.02539.26074.02539.30274,0,.09277-.063.14648-.18945.16406q-.45409.063-3.3418.0625-.68115,0-.78222-.26465-.0249-.479-.0503-.958a.38139.38139,0,0,0-.10107-.20215.83288.83288,0,0,0-.189.15137,4.66465,4.66465,0,0,1-3.40528,1.33691A5.33621,5.33621,0,0,1,74.0918,51.591a6.65083,6.65083,0,0,1-1.52637-4.49023,6.77854,6.77854,0,0,1,1.501-4.52783,5.31,5.31,0,0,1,4.28808-1.8916,3.72919,3.72919,0,0,1,2.96387,1.21093q.17652.20142.252.20166.11353,0,.11377-.32812,0-.97119-.05029-2.90039-.05054-1.92993-.05078-2.88819,0-.36621.20215-.4165.80638-.03735,2.21923-.15137a19.04152,19.04152,0,0,0,2.23243-.31494Q86.51441,35.09442,86.51416,35.40936ZM81.75977,47.00018a2.495,2.495,0,0,0-.69385-1.74707,2.20237,2.20237,0,0,0-1.67725-.75049,2.01416,2.01416,0,0,0-1.646.75049A2.75532,2.75532,0,0,0,77.13135,47.05,2.53121,2.53121,0,0,0,77.749,48.7785a2.03532,2.03532,0,0,0,1.63965.75684,2.18432,2.18432,0,0,0,1.68994-.75684A2.57377,2.57377,0,0,0,81.75977,47.00018Z" style="fill:#fff"/><path d="M99.93359,46.45721q0,1.27441-.82031,1.45118-.1377.0249-2.60937.27734-1.48829.16405-4.43946.39062a1.78713,1.78713,0,0,0,1.07129,1.249,3.78063,3.78063,0,0,0,1.665.35254,4.76136,4.76136,0,0,0,2.25781-.60547q.47754-.30176.959-.60547a3.78124,3.78124,0,0,1,.88867,1.28711,4.72,4.72,0,0,1,.62305,1.47559q0,.08788-.1875.29a6.245,6.245,0,0,1-4.78125,1.65235,6.73206,6.73206,0,0,1-4.84278-1.75391,6.21355,6.21355,0,0,1-1.8916-4.7539,6.78343,6.78343,0,0,1,1.68994-4.75489,5.93184,5.93184,0,0,1,4.6167-1.917A5.47853,5.47853,0,0,1,98.24414,42.258,5.864,5.864,0,0,1,99.93359,46.45721Zm-4.41406-.769a1.95317,1.95317,0,0,0-.55469-1.37451,1.7565,1.7565,0,0,0-1.32422-.59277,1.59313,1.59313,0,0,0-1.3125.66845,2.29885,2.29885,0,0,0-.47851,1.4502c0,.227.11719.34033.35351.34033a22.17923,22.17923,0,0,0,2.9004-.29Q95.51953,45.82684,95.51953,45.68817Z" style="fill:#fff"/><path d="M108.69922,43.10272a.61.61,0,0,1-.18945.34082,2.88993,2.88993,0,0,0-.70606-.08838,2.2501,2.2501,0,0,0-1.249.32764,1.19738,1.19738,0,0,0-.60547,1.07227,1.88808,1.88808,0,0,0,.64355,1.12255,12.68637,12.68637,0,0,1,1.19825,1.37452,3.6217,3.6217,0,0,1,.64355,2.05566,4.12694,4.12694,0,0,1-.25293,1.3623,2.65249,2.65249,0,0,1-.73144,1.16016,8.73442,8.73442,0,0,1-2.18165,1.36231,6.34083,6.34083,0,0,1-2.48437.58007q-.252,0-1.12891-1.36816a5.54943,5.54943,0,0,1-.877-1.67188c0-.07519.04688-.12109.13867-.13867q.88331-.1626,1.77832-.32715,1.11036-.353,1.11035-1.16113a2.103,2.103,0,0,0-.64355-1.28613q-1.147-1.27294-1.19824-1.34961a3.261,3.261,0,0,1-.64258-1.9165,3.846,3.846,0,0,1,1.917-3.21631,6.3836,6.3836,0,0,1,3.66992-1.17285q.20216,0,.9961,1.356A6.57364,6.57364,0,0,1,108.69922,43.10272Z" style="fill:#fff"/><path d="M124.42676,47.23944a6.46859,6.46859,0,0,1-1.58985,4.47754,5.48235,5.48235,0,0,1-4.30078,1.84082,5.2632,5.2632,0,0,1-2.08008-.47852,4.84976,4.84976,0,0,1-1.00976-.47949q-.16407,0-.16406.37793,0,.64307.06347,1.93653.063,1.292.06348,1.93554a.36265.36265,0,0,1-.417.40332l-2.57227.0127a6.04258,6.04258,0,0,1-1.123-.0625.43884.43884,0,0,1-.37793-.4668l.02539-9.71094a23.6537,23.6537,0,0,0-.44141-4.957,1.06242,1.06242,0,0,1-.02539-.21435.24727.24727,0,0,1,.15137-.25244,10.76968,10.76968,0,0,1,1.8789-.40332,14.09529,14.09529,0,0,1,1.95508-.21436q.49219,0,.56152.64941.06885.64966.16993.64942-.126,0,1.07812-.687a4.49567,4.49567,0,0,1,2.18848-.6875,5.62608,5.62608,0,0,1,4.376,1.80322A6.45459,6.45459,0,0,1,124.42676,47.23944Zm-4.67969-.02539a2.70954,2.70954,0,0,0-.61816-1.76562,2.07679,2.07679,0,0,0-1.65137-.79444,1.92807,1.92807,0,0,0-1.61426.79444,2.89377,2.89377,0,0,0-.53027,1.76562,2.7887,2.7887,0,0,0,.55469,1.77832,1.95635,1.95635,0,0,0,1.63964.76953Q119.748,49.7619,119.74707,47.21405Z" style="fill:#fff"/><path d="M138.19824,47.10077a6.37263,6.37263,0,0,1-1.75976,4.666,6.8225,6.8225,0,0,1-9.1875.0254,6.09722,6.09722,0,0,1-1.791-4.54,6.64724,6.64724,0,0,1,1.71484-4.74854,6.06854,6.06854,0,0,1,4.64161-1.82226,6.20863,6.20863,0,0,1,4.61621,1.78466A6.30884,6.30884,0,0,1,138.19824,47.10077Zm-4.13672,0a2.71508,2.71508,0,0,0-.61816-1.75928,1.96622,1.96622,0,0,0-1.60156-.76318,2.02914,2.02914,0,0,0-1.63965.78222,2.82188,2.82188,0,0,0,0,3.49317,2.09627,2.09627,0,0,0,3.2666,0A2.70017,2.70017,0,0,0,134.06152,47.10077Z" style="fill:#fff"/><path d="M148.08594,45.44843q0,.49218-.542.49218-.24024,0-.7002-.03125-.46-.03222-.6875-.03174a2.25541,2.25541,0,0,0-1.4248.32764,1.74118,1.74118,0,0,0-.37891,1.32422q0,.542.01953,1.64551.019,1.1045.01855,1.64648,0,.36621.05079,1.09082.0498.7251.0498,1.07813,0,.30323-.416.34082-.605.0498-1.85352.0498a19.10868,19.10868,0,0,1-1.917-.07519q-.416-.04981-.416-.416,0-1.00928.0127-3.02051.01172-2.01123.01172-3.0205a18.32935,18.32935,0,0,0-.542-4.88086.92292.92292,0,0,1-.02539-.18946.24831.24831,0,0,1,.18946-.25244q.69287-.07544,2.03027-.27734,1.99365-.39039,2.05566-.39063.22705,0,.29.79444.063.79467.22754.79443-.17724,0,1.03418-.66211a4.86015,4.86015,0,0,1,2.333-.66211q.706,0,.706.30274a10.01829,10.01829,0,0,1-.07519,1.03418q-.07617.7185-.08887,1.03418c0,.24365.00488.56738.0127.97119Q148.08545,45.20917,148.08594,45.44843Z" style="fill:#fff"/><path d="M157.999,49.61053a10.50622,10.50622,0,0,1-.09472,1.14747,10.2589,10.2589,0,0,0-.09473,1.1289.87869.87869,0,0,1-.07617.46,1.4949,1.4949,0,0,1-.416.291,7.35571,7.35571,0,0,1-3.60644.89453q-3.646,0-3.64551-2.78711,0-.832.06348-2.50293.063-1.67139.0625-2.50391,0-.55443-.64258-.55468h-.16406c-.07618.0083-.13086.01269-.16407.01269q-.479,0-.47949-.34082,0-.20142.03223-.61767.03077-.416.03125-.61817,0-.26441-.03125-.80713-.03224-.542-.03223-.80713,0-.25194.80762-.27734.45409-.01245.49121-.25244a9.27873,9.27873,0,0,0,.05078-1.51318q-.0498-1.62745-.05078-1.55127,0-1.46339.27832-1.46338a4.53066,4.53066,0,0,1,.9707.15136,9.026,9.026,0,0,0,.9961.18946q.64307.08862,1.94238.23974c.21.0166.31543.08789.31543.21436q0,.50463-.082,1.52588-.082,1.02173-.082,1.53857,0,.61816.36621.61817.44091,0,1.33691-.03809.895-.03735,1.34863-.0376.27832,0,.27832.189,0,.29076-.06347.8706-.063.58008-.06348.87012c0,.20166.00488.49609.0127.88281q.01318.58008.01269.88281,0,.26441-.36523.26465c-.16895,0-.4502-.00634-.84571-.01855-.39453-.0127-.67675-.019-.84472-.019h-.94531c-.127,0-.18946.18505-.18946.55468v.896c.00781.40332.0127.70215.0127.89551a3.12989,3.12989,0,0,0,.23926,1.46289,1.46041,1.46041,0,0,0,1.33691.542,4.09184,4.09184,0,0,0,.90234-.14551,4.11056,4.11056,0,0,1,.8252-.14453C157.91016,49.33319,157.999,49.426,157.999,49.61053Z" style="fill:#fff"/><path d="M171.45605,47.10077a6.37263,6.37263,0,0,1-1.75976,4.666,6.8225,6.8225,0,0,1-9.1875.0254,6.09722,6.09722,0,0,1-1.791-4.54,6.64721,6.64721,0,0,1,1.71485-4.74854,6.06852,6.06852,0,0,1,4.6416-1.82226,6.20862,6.20862,0,0,1,4.61621,1.78466A6.30884,6.30884,0,0,1,171.45605,47.10077Zm-4.13671,0a2.71508,2.71508,0,0,0-.61817-1.75928,1.96622,1.96622,0,0,0-1.60156-.76318,2.02914,2.02914,0,0,0-1.63965.78222,2.82188,2.82188,0,0,0,0,3.49317,2.09627,2.09627,0,0,0,3.2666,0A2.70018,2.70018,0,0,0,167.31934,47.10077Z" style="fill:#fff"/></svg>