<?xml version="1.0" encoding="UTF-8"?><svg id="a" xmlns="http://www.w3.org/2000/svg" viewBox="0 0 47.07 48.93"><defs><style>.b{fill:#231f20;}</style></defs><path class="b" d="M14.39,30.98V12.85c.09,0,.17-.01,.25-.01,1.27,0,2.54,0,3.81,0,.21,0,.33,.07,.43,.25,1.53,2.62,3.07,5.24,4.61,7.86,.05,.08,.1,.15,.17,.27,.09-.15,.16-.26,.23-.38,1.49-2.58,2.99-5.16,4.48-7.74,.11-.19,.23-.26,.45-.26,1.19,.01,2.37,0,3.56,0,.1,0,.2,0,.31,0V30.98h-3.72v-13.08l-.07-.02c-.05,.09-.11,.18-.16,.26-1.3,2.26-2.59,4.52-3.88,6.78-.11,.2-.24,.29-.47,.28-.58-.02-1.16-.02-1.74,0-.21,0-.33-.07-.44-.25-1.32-2.26-2.65-4.52-3.98-6.78-.05-.09-.11-.18-.17-.26l-.06,.02v13.06h-3.62Z"/><path class="b" d="M27.56,9.89c-.99-.53-1.89-1-2.76-1.5-.29-.17-.52-.18-.82-.02-.84,.46-1.7,.88-2.56,1.31-.06,.03-.13,.05-.24,.1,.16-.87,.3-1.69,.45-2.51,.01-.06,.02-.12,.04-.18,.24-.62,.02-1.05-.47-1.47-.67-.58-1.27-1.24-1.96-1.92,.89-.12,1.69-.23,2.5-.34,.26-.03,.52-.05,.78-.09,.23-.03,.39-.13,.51-.37,.47-.96,.96-1.9,1.47-2.91,.3,.62,.58,1.19,.85,1.76,.16,.33,.35,.65,.45,.99,.14,.46,.46,.57,.88,.62,.96,.12,1.92,.29,2.95,.45-.59,.56-1.12,1.1-1.68,1.6-.96,.87-.95,.86-.73,2.15,.13,.74,.23,1.48,.35,2.31Z"/><path class="b" d="M35.78,11.19c-.76-.41-1.5-.79-2.21-1.2-.24-.14-.42-.12-.66,0-.72,.38-1.45,.74-2.23,1.14,.12-.65,.23-1.26,.34-1.86,0-.05,.02-.1,.04-.14,.2-.6,.06-1.05-.45-1.45-.51-.4-.94-.89-1.47-1.41,.91-.12,1.72-.25,2.53-.33,.26-.03,.41-.12,.52-.35,.37-.74,.74-1.47,1.15-2.28,.37,.77,.73,1.46,1.03,2.18,.16,.38,.41,.47,.76,.52,.74,.1,1.47,.22,2.27,.35-.1,.12-.16,.2-.23,.28-.48,.46-.95,.93-1.45,1.37-.26,.23-.39,.44-.3,.83,.17,.75,.25,1.52,.37,2.36Z"/><path class="b" d="M13.17,11.13c.16-.86,.29-1.7,.47-2.53,.05-.24,0-.37-.17-.52-.6-.58-1.19-1.18-1.83-1.82,.88-.12,1.7-.24,2.52-.33,.24-.03,.39-.1,.49-.32,.37-.75,.76-1.49,1.17-2.3,.36,.75,.72,1.45,1.02,2.16,.16,.39,.43,.48,.79,.53,.72,.09,1.44,.22,2.25,.35-.13,.14-.22,.24-.31,.33-.53,.5-1.06,1-1.57,1.51-.09,.09-.14,.28-.12,.41,.11,.84,.25,1.68,.38,2.58-.75-.4-1.46-.77-2.16-1.18-.26-.15-.46-.16-.72-.02-.72,.39-1.46,.75-2.21,1.14Z"/><path class="b" d="M37.17,8.5c.62-.08,1.12-.18,1.63-.21,.46-.03,.77-.15,.95-.64,.19-.5,.48-.96,.76-1.49,.23,.49,.5,.92,.65,1.4,.19,.59,.58,.76,1.14,.8,.46,.03,.91,.14,1.46,.22-.52,.49-.95,.92-1.41,1.32-.21,.19-.24,.38-.2,.63,.1,.54,.19,1.08,.27,1.63,0,.06-.01,.12-.02,.22-.58-.31-1.13-.59-1.67-.9-.21-.12-.38-.12-.59,0-.55,.29-1.11,.57-1.73,.89,.1-.59,.16-1.13,.3-1.65,.11-.42,.05-.72-.3-1.01-.41-.34-.78-.74-1.25-1.2Z"/><path class="b" d="M10.47,12.62c-.57-.31-1.08-.54-1.55-.85-.34-.22-.61-.21-.94,0-.47,.28-.97,.5-1.55,.8,.1-.61,.15-1.14,.29-1.64,.11-.42,.06-.71-.28-1-.42-.35-.79-.77-1.24-1.21,.55-.08,1.03-.14,1.5-.2,.22-.03,.45-.03,.66-.09,.09-.03,.18-.15,.24-.25,.31-.58,.61-1.18,.93-1.8,.28,.6,.56,1.15,.8,1.71,.12,.29,.32,.4,.62,.43,.59,.07,1.17,.18,1.83,.28-.51,.49-.95,.93-1.42,1.35-.21,.19-.23,.38-.19,.64,.11,.59,.19,1.18,.3,1.85Z"/><path class="b" d="M3.48,45.15c.28-.48,.54-.93,.81-1.38,.3-.52,.6-1.05,.91-1.57,.04-.07,.13-.16,.19-.16,.48-.01,.97,0,1.47,0v6.78h-1.37v-4.83l-.06-.02c-.23,.39-.46,.78-.69,1.18-.25,.44-.51,.89-.76,1.34-.08,.14-.18,.18-.35,.2-.47,.06-.74-.1-.96-.54-.38-.74-.84-1.44-1.3-2.23v4.91H0v-6.79c.51,0,1.02-.01,1.52,.01,.09,0,.2,.14,.26,.24,.53,.88,1.04,1.77,1.56,2.66,.04,.06,.08,.12,.14,.21Z"/><path class="b" d="M39.98,45.79c.07-.65-.1-.96-.55-1.05-.65-.13-1.01,.1-1.2,.76h-1.17c-.11-.6,.26-1.26,.84-1.47,.72-.25,1.46-.29,2.2-.12,.81,.19,1.18,.61,1.21,1.51,.04,1.12,0,2.24,0,3.38h-1.24l-.07-.58c-.68,.64-1.45,.84-2.31,.57-.59-.18-.94-.67-.96-1.27-.02-.69,.25-1.13,.87-1.38,.63-.26,1.3-.27,1.97-.33,.13-.01,.26-.02,.4-.03Zm.05,.8l-.1-.11c-.49,.09-.99,.15-1.46,.3-.34,.11-.45,.43-.36,.76,.07,.28,.32,.45,.67,.45,.46,0,.87-.2,1.11-.57,.14-.21,.1-.55,.15-.83Z"/><path class="b" d="M11.39,45.78c.06-.7-.14-1.03-.65-1.07-.56-.04-1.01,.09-1.09,.78h-1.2c-.09-.58,.23-1.2,.81-1.43,.86-.35,1.75-.35,2.61-.03,.57,.21,.83,.7,.84,1.28,.02,1.16,0,2.32,0,3.49h-1.24l-.04-.53c-.3,.17-.57,.38-.88,.49-.66,.23-1.34,.25-1.9-.22-.92-.77-.61-2.11,.59-2.47,.58-.17,1.21-.18,1.82-.26,.11-.01,.22-.02,.34-.03Zm.05,.81l-.1-.11c-.49,.1-.99,.16-1.46,.3-.33,.1-.44,.41-.37,.73,.07,.3,.29,.46,.65,.47,.47,0,.87-.19,1.12-.55,.15-.22,.12-.56,.17-.85Z"/><path class="b" d="M23.48,46.34c.01-.89,.26-1.68,1.07-2.16,.89-.52,1.83-.52,2.74-.06,.85,.43,1.15,1.21,1.18,2.12,.03,.86-.18,1.62-.89,2.17-.91,.71-2.94,.74-3.73-.55-.29-.47-.38-.99-.37-1.53Zm3.66-.05c-.06-.27-.1-.57-.21-.85-.18-.46-.53-.63-1.1-.59-.45,.03-.76,.29-.89,.74-.14,.51-.14,1.02-.01,1.53,.12,.5,.51,.78,1.04,.77,.54,0,.93-.3,1.04-.8,.06-.25,.08-.51,.12-.8Z"/><path class="b" d="M15.46,48.81h-1.33v-4.91c.39,0,.78,0,1.17,0,.04,0,.1,.11,.11,.18,.02,.15,0,.3,0,.41,.38-.21,.73-.46,1.12-.59,.3-.1,.66-.09,.98-.04,.69,.1,1.15,.66,1.17,1.42,.03,.98,.02,1.97,.02,2.95,0,.18,0,.37,0,.56h-1.33c0-.1,0-.21,0-.32,0-.89,.02-1.79-.01-2.68-.03-.89-.68-1.2-1.44-.72-.31,.2-.52,.44-.49,.87,.04,.84,.01,1.69,.01,2.54,0,.1,0,.2,0,.31Z"/><path class="b" d="M42.49,47.28c.37,0,.71-.01,1.05,0,.07,0,.18,.1,.2,.18,.06,.24,.2,.41,.43,.45,.28,.05,.58,.08,.87,.06,.22-.01,.42-.14,.45-.41,.03-.26-.08-.46-.33-.54-.4-.13-.82-.21-1.21-.37-.37-.15-.77-.3-1.05-.56-.61-.59-.42-1.63,.36-1.99,.94-.43,1.9-.46,2.82,.07,.44,.25,.59,.68,.59,1.2-.38,0-.76,0-1.13,0-.04,0-.11-.09-.12-.14-.02-.25-.18-.37-.39-.45-.3-.12-.62-.11-.91,.02-.1,.05-.21,.2-.21,.31,0,.11,.1,.27,.2,.32,.22,.11,.46,.18,.7,.24,.52,.14,1.06,.23,1.51,.57,.71,.53,.7,1.7-.02,2.22-.58,.42-1.24,.48-1.92,.43-.53-.03-1.04-.14-1.45-.51-.33-.29-.45-.66-.44-1.11Z"/><path class="b" d="M17.55,35.51c.1,.17,.18,.27,.23,.38,.39,.77,.04,1.64-.8,1.87-.33,.09-.69,.07-1.03,.1-.08,0-.18-.05-.24-.02-.11,.05-.21,.14-.31,.22,.09,.07,.17,.18,.27,.19,.39,.04,.79,.04,1.18,.08,.28,.03,.57,.06,.84,.16,.76,.27,.91,1.22,.28,1.73-.48,.39-1.06,.46-1.64,.44-.43-.02-.86-.1-1.27-.21-.34-.1-.57-.36-.62-.74-.04-.38,.18-.6,.47-.77,.02-.01,.05-.03,.07-.04-.56-.56-.54-.84,.14-1.28-.02-.04-.04-.08-.07-.11-.44-.38-.56-.85-.39-1.39,.17-.54,.59-.82,1.12-.9,.37-.05,.75-.01,1.12,.02,.15,.01,.23,0,.31-.14,.23-.38,.62-.43,1.01-.47,.02,0,.05,0,.05,0,.03,.2,.07,.4,.07,.6,0,.06-.11,.14-.19,.17-.18,.05-.36,.07-.59,.11Zm-.61,1.03c0-.47-.24-.75-.65-.75-.44,0-.7,.26-.7,.7,0,.44,.26,.74,.67,.74,.41,0,.69-.28,.69-.69Zm-.63,2.54v.03c-.17,0-.35-.04-.5,.01-.14,.05-.29,.17-.36,.3-.04,.09,.02,.28,.1,.36,.28,.29,1.27,.3,1.56,.02,.09-.08,.16-.25,.14-.35-.02-.1-.16-.23-.27-.26-.22-.06-.45-.07-.68-.1Z"/><path class="b" d="M5.24,33.69c-.23,.67-.44,1.28-.65,1.89-.38,1.1-.77,2.2-1.15,3.31-.07,.2-.17,.27-.38,.26-.27-.02-.53-.01-.8,0-.19,.01-.28-.06-.34-.24-.38-1.15-.78-2.3-1.17-3.45-.16-.48-.33-.96-.49-1.44-.03-.09-.06-.19-.1-.33,.39,0,.75-.01,1.1,.01,.06,0,.15,.14,.18,.24,.39,1.24,.77,2.48,1.15,3.72,.02,.07,.05,.13,.1,.26,.05-.15,.09-.23,.12-.33,.36-1.15,.71-2.3,1.07-3.45,.18-.56,.09-.44,.62-.45,.23,0,.46,0,.74,0Z"/><path class="b" d="M20.1,35.7c.07-.06,.13-.12,.2-.18,.49-.41,1.05-.48,1.63-.28,.48,.16,.69,.58,.71,1.06,.03,.88,.01,1.77,.02,2.65,0,.16-.07,.21-.22,.2-.2,0-.41-.01-.61,0-.19,.01-.26-.07-.25-.26,0-.69,0-1.38,0-2.07,0-.3,0-.62-.32-.76-.33-.14-.64-.05-.93,.17-.2,.15-.29,.32-.28,.58,.02,.68,0,1.36,0,2.04,0,.21-.05,.29-.27,.29-.81,0-.81,.01-.81-.81,0-1.44,0-2.89,0-4.33,0-.26,.08-.33,.33-.33,.73,0,.73,0,.73,.72v1.26l.07,.03Z"/><path class="b" d="M20.31,42.74h1.35v1.15h1.05v1.02h-1.02c0,.84-.01,1.64,0,2.43,0,.3,.18,.43,.5,.44,.16,0,.33,0,.52,0v1.08c-.48-.05-.96-.05-1.42-.15-.63-.13-.93-.58-.95-1.31-.02-.72-.03-1.43-.02-2.15,0-.26-.05-.38-.33-.34-.14,.02-.29,0-.46,0v-1h.78v-1.17Z"/><path class="b" d="M7.78,38.69c-.1,.07-.17,.12-.24,.17-.44,.32-.94,.41-1.47,.3-.52-.11-.87-.54-.89-1.05-.02-.63,.28-1.04,.92-1.19,.46-.1,.94-.14,1.42-.18,.23-.02,.28-.1,.26-.31-.04-.36-.18-.53-.51-.58-.41-.06-.74,.09-.83,.42-.05,.19-.15,.23-.31,.22-.15,0-.3-.01-.44,0-.24,.02-.31-.06-.27-.3,.08-.51,.39-.8,.86-.94,.54-.17,1.09-.17,1.64-.03,.63,.16,.91,.55,.92,1.26,0,.65,0,1.31,0,1.96,0,.7,0,.67-.69,.71-.37,.02-.32-.22-.36-.46Zm-.06-1.41c-.38,.06-.76,.1-1.11,.2-.25,.07-.38,.27-.35,.56,.03,.26,.2,.39,.44,.42,.66,.1,1.17-.44,1.02-1.18Z"/><path class="b" d="M26.18,38.7c-.1,.08-.18,.14-.26,.19-.55,.36-1.13,.43-1.73,.15-.43-.2-.59-.58-.59-1.04,0-.46,.19-.83,.64-.96,.5-.14,1.02-.2,1.53-.3,.15-.03,.36-.05,.41-.14,.11-.22-.05-.55-.26-.66-.42-.23-.94-.03-1.1,.41-.05,.14-.59,.23-.88,.14-.22-.07-.11-.25-.09-.37,.07-.38,.29-.65,.65-.79,.66-.26,1.33-.26,2-.04,.45,.15,.7,.5,.71,.96,.03,.91,.02,1.82,.02,2.73,0,.06-.09,.15-.16,.16-.11,.03-.24,0-.36,0q-.44,0-.54-.44Zm-.38-1.4c-.28,.06-.53,.09-.77,.18-.28,.09-.39,.34-.34,.62,.05,.24,.24,.37,.54,.37,.36,0,.67-.14,.86-.42,.1-.16,.09-.42,.08-.62,0-.05-.24-.08-.36-.12Z"/><path class="b" d="M43.69,36.49c-.12-.66,.32-1.07,.76-1.22,.59-.19,1.19-.2,1.79-.02,.48,.14,.79,.47,.81,.97,.04,.92,.02,1.84,.02,2.76,0,.06-.09,.14-.16,.16-.1,.03-.22,0-.33,0q-.46,0-.56-.43c-.22,.12-.42,.3-.65,.36-.32,.08-.67,.13-1,.09-.55-.07-.91-.51-.95-1.03-.04-.58,.22-1.01,.8-1.16,.46-.12,.94-.15,1.41-.23,.13-.02,.32-.04,.38-.12,.11-.15-.04-.53-.2-.64-.4-.28-.99-.1-1.16,.36-.02,.06-.1,.15-.15,.15-.27,.02-.55,0-.81,0Zm2.28,.78c-.41,.08-.8,.14-1.18,.25-.27,.08-.32,.33-.27,.59,.04,.26,.24,.33,.46,.35,.67,.06,1.11-.43,.99-1.19Z"/><path class="b" d="M35.69,38.62c-.43,.44-.94,.61-1.54,.55-.48-.05-.85-.35-.97-.82-.05-.19-.08-.38-.08-.57,0-.78,0-1.56,0-2.34,0-.19,.06-.27,.25-.26,.19,.01,.39,.01,.58,0,.19-.01,.26,.06,.25,.25,0,.7,0,1.4,0,2.1,0,.47,.11,.68,.4,.76,.37,.1,.96-.12,1.12-.44,.04-.08,.04-.18,.04-.27,0-.71,0-1.42,0-2.12,0-.22,.07-.28,.28-.28,.78,0,.78,0,.78,.77,0,.97,0,1.93,0,2.9,0,.23-.07,.32-.3,.29-.03,0-.06,0-.08,0-.18,0-.4,.05-.54-.03-.11-.07-.12-.3-.19-.5Z"/><path class="b" d="M11.04,35.63c.31-.15,.6-.36,.91-.43,.3-.07,.65-.04,.95,.04,.49,.14,.7,.57,.72,1.04,.03,.89,.02,1.78,.01,2.68,0,.06-.11,.17-.18,.17-.21,.02-.42,0-.63,.01-.2,.01-.25-.08-.25-.26,0-.7,0-1.4,0-2.1,0-.13-.01-.26-.04-.38-.08-.3-.27-.45-.57-.4-.23,.04-.47,.14-.68,.26-.19,.11-.26,.3-.26,.54,.02,.69,0,1.38,0,2.07,0,.21-.06,.28-.27,.27-.17-.01-.35-.02-.52,0-.23,.02-.28-.08-.27-.29,0-1.13,0-2.26,0-3.39,0-.22,.07-.3,.29-.28,.06,0,.13,0,.19,0q.5,0,.59,.44Z"/><path class="b" d="M29.43,35.73c.35-.36,.73-.56,1.19-.59,.84-.04,1.34,.38,1.38,1.22,.03,.85,.01,1.71,.02,2.57,0,.15-.05,.22-.21,.21-.2,0-.41-.01-.61,0-.2,.01-.25-.07-.25-.26,0-.7,0-1.4,0-2.1,0-.49-.13-.72-.45-.78-.37-.07-.93,.19-1.06,.5-.03,.08-.03,.18-.03,.27,0,.7,0,1.4,0,2.1,0,.2-.06,.28-.27,.27-.18-.01-.37-.01-.55,0-.2,.01-.25-.08-.25-.26,0-1.15,0-2.3,0-3.45,0-.2,.07-.27,.26-.25,.07,0,.15,0,.22,0q.51,0,.6,.54Z"/><path class="b" d="M34.82,48.81h-1.32v-4.9h1.26l.04,.78c.38-.65,.9-.89,1.59-.86v1.08c-.3,.05-.59,.09-.87,.15-.14,.03-.27,.11-.4,.18-.22,.13-.32,.31-.32,.59,.02,.98,0,1.97,0,2.97Z"/><path class="b" d="M32.59,43.85v1.08c-.22,.03-.43,.05-.65,.09-.14,.03-.29,.07-.42,.12-.41,.16-.52,.34-.52,.77,0,.96,0,1.93,0,2.91h-1.31v-4.88h1.25l.04,.77c.39-.64,.91-.9,1.6-.84Z"/><path class="b" d="M43.13,35.19c-.24,.67-.45,1.27-.67,1.87-.22,.61-.45,1.22-.67,1.84-.06,.18-.15,.25-.34,.24-.24-.01-.48-.01-.72,0-.19,.01-.29-.06-.35-.23-.41-1.15-.83-2.3-1.25-3.45-.03-.07-.04-.15-.07-.27,.34,0,.66-.01,.96,.01,.07,0,.16,.14,.19,.23,.25,.77,.49,1.54,.74,2.31,.03,.09,.06,.18,.16,.28,.12-.37,.25-.74,.37-1.11,.16-.5,.33-1,.48-1.5,.05-.15,.12-.23,.29-.22,.26,.01,.53,0,.86,0Z"/></svg>