<?xml version="1.0" encoding="UTF-8"?><svg id="a" xmlns="http://www.w3.org/2000/svg" viewBox="0 0 47.6 46.9"><defs><style>.b{letter-spacing:-.01em;}.c{font-family:SuprapowerSE-Heavy, Suprapower SE;font-size:8.94px;}.d{fill:#231f20;fill-rule:evenodd;}.e{letter-spacing:-.09em;}</style></defs><text class="c" transform="translate(1.15 6.6)"><tspan x="0" y="0">QUIN</tspan><tspan class="e" x="25.88" y="0">T</tspan><tspan class="b" x="31.25" y="0">A</tspan><tspan x="38.72" y="0">S</tspan></text><g><polyline class="d" points="12.82 28.08 24.07 29.79 24.02 30.14 12.77 28.44 12.82 28.08"/><polyline class="d" points="13.81 29.52 13.84 29.21 23.98 30.66 23.94 30.97 13.81 29.52"/><polyline class="d" points="13.38 29.15 13.84 29.2 13.45 32.92 12.99 32.87 13.38 29.15"/><polyline class="d" points="13.71 30.46 13.75 30.07 23.78 31.6 23.72 31.98 13.71 30.46"/><polyline class="d" points="13.61 31.42 13.64 31.09 23.64 32.55 23.59 32.87 13.61 31.42"/><polyline class="d" points="13.5 32.43 13.55 32.03 23.43 33.39 23.38 33.79 13.5 32.43"/><polyline class="d" points="15.94 16.69 18.22 12.61 22.41 9.21 32.47 9.93 39.83 10.21 41.57 12.38 41.96 32.84 39.35 35.04 35.6 35.04 35.6 34.33 39.35 34.33 41.49 32.85 41.17 12.62 39.46 10.44 30.34 10.11 22.39 9.56 18.55 12.81 16.44 16.75 15.94 16.69"/><polyline class="d" points="22.63 9.93 20.45 12.71 19.64 14.24 19.72 15.55 26.29 16.25 30.05 16.25 34.35 11.8 34.83 11.91 33.31 13.75 34.29 13.83 33.96 18.14 33.39 18.1 33.69 14.32 32.69 14.23 30.39 16.61 26.26 16.61 19.36 15.91 19.23 14.26 20.75 11.62 22.23 10.08 22.63 9.93"/><polyline class="d" points="14.47 18.97 15.12 16.75 15.94 16.69 16.44 16.75 23.23 17.49 29.98 17.83 32.99 18.11 34.55 18.25 40.32 19.35 40.29 19.61 34.36 18.46 33.13 18.34 32.63 20.52 32.07 20.52 32.44 18.41 26.47 17.95 22.94 17.68 18.31 17.16 15.9 16.99 15.34 18.93 14.47 18.97"/><path class="d" d="M38.05,14.68l-.07,2.85,1.35,.04,.19-2.42-.39-.94-.22,.06-.87,.4m-.29-.2l1.06-.48,.49-.14,.52,1.26-.22,2.78-1.93-.06,.08-3.35"/><polyline class="d" points="26.66 9.52 27.99 8.93 32.4 9.17 37.8 9.31 43.28 9.56 44.28 10.03 44.28 10.03 44.43 12.59 44.13 10.58 43.05 10.34 38.51 9.7 38.52 9.71 39.53 10.2 38.52 10.16 37.79 9.71 35.83 9.56 35.29 10 31.3 9.85 30.78 9.47 27.78 9.23 27.28 9.56 26.66 9.52"/><polyline class="d" points="42.98 10.26 44.28 10.03 44.43 15.87 43.75 32.2 47.6 32.2 47.6 33.05 43.18 32.85 43.51 12.05 42.98 10.26"/><path class="d" d="M23.14,12.56l-.7,.64,.08,.06,7.38,.6,.96-.52h0l-.52-.25-7.21-.53m-.19-.56l7.52,.56,.98,.44-.11,.71-1.33,.72-7.67-.62-.78-.52,1.38-1.28"/><path class="d" d="M7.98,41.79l.37,1.18,.59,.4,3.08,.28,.58-.9-2.02-.42-2.6-.54m11.74,2.6l.27,.41,4.24,.41h3.06l-.47-1.1-4.55,.18-2.55,.1m-14.01-8.95l3.2,.91,10.24,1.64,4.85,.4h6.6l.24,.56-.91,.94-.68,2.52-.82-.24,.95-2.54-5.13-.15-6.52-.19-6.16-.91-3.67-.27h-1.09l-.72,.84,.3,1.06,1.03,.61,1.29,.53,1.56,.33,1.41,.3,6.35,1.14,4.84,.14,6.92-.36,.57,.02-.05,1.79,.4,1.35,1.14,.37,1.35-.97,.68-1.32,.25,.84-1.33,1.53-1.29,.58-1.41-.4h-6.03l-5.24-.15-5.36-.37-5.27-.15-4.67-.11-3.53-.35,5.02-.78,2.21-.7-2.72-.48-.74,.1-2.69,.31-1.06-.16,3.52-1.31h2.93l-.47-.49-4.53-.34,1-.31h3.38l.03-1.04-.63-2.96-.1-1.58,.57-.2"/><polyline class="d" points="30.36 42.73 29.78 42.71 30.24 41.4 31.12 39.82 31.62 37.72 31.94 36.87 32.46 35.78 32.86 34.94 33.83 34.67 34.93 34.72 35.17 35.12 34.28 35.12 33.93 35.76 34.17 36.25 34.61 37.38 34.49 39.89 34.17 40.08 34.17 38.75 33.88 36.97 33.32 36.39 32.56 36.87 32.16 37.94 31.72 39.1 31.47 40.23 30.92 41.23 30.36 42.73"/><path class="d" d="M23.11,40.38l-.23,.66,.15,.44,.54,.18h.49l.39-.29,.1-.45-.17-.5-.3-.31h-.59l-.39,.25m-.32-.27l.6-.39h.86l.47,.49,.24,.69-.16,.71-.61,.45h-.67l-.78-.26-.26-.76,.32-.93"/><path class="d" d="M8.95,39.2l-.23,.66,.15,.44,.54,.18h.49l.39-.29,.1-.45-.17-.49-.3-.31h-.59l-.39,.25m-.32-.27l.6-.39h.86l.47,.49,.24,.69-.16,.71-.61,.45h-.67l-.78-.26-.26-.76,.32-.93"/><polyline class="d" points="13.87 42.18 13.87 40.23 19.43 41.18 19.39 42.97 18.8 42.95 18.8 41.48 14.38 40.9 14.38 42.28 13.87 42.18"/><polyline class="d" points="33.95 43.7 34.6 43.55 34.96 42.73 37.08 42.99 39.34 42.33 39.34 41.53 38.28 41.77 38.16 41.19 39.7 40.32 41.36 40.32 41.39 41.09 41.46 41.86 41.68 42.92 41.85 43.43 42.08 43.91 42.39 44.36 42.6 44.49 42.77 44.5 42.92 44.45 43.22 44.2 43.47 43.85 43.65 43.46 43.77 43.04 43.85 42.6 44.26 42.77 44.27 42.84 44.36 43.3 44.45 43.51 44.59 43.68 44.85 43.83 45.15 43.85 45.43 43.75 45.68 43.5 45.83 43.17 45.93 42.38 45.96 41.97 46.25 42 45.84 44.24 45.24 44.54 43.43 44.85 40.88 45.04 34.53 44.66 34.12 44.79 33.87 43.96 33.95 43.7"/><polyline class="d" points="39.35 35.04 41.08 33.58 47.6 33.81 47.6 33.81 47.6 34.75 47.6 36.62 47.6 36.62 47.6 34.75 47.6 42.14 47.6 38.5 47.6 34 47.6 40.46 47.6 34 47.6 42.53 47.6 40.46 47.6 33.81 47.6 36.62 47.6 40.46 47.48 44.27 45.84 44.24 46.25 42 45.96 41.97 46.02 41.11 46.13 39.62 46.16 38.31 46.1 37.73 45.93 37.17 45.78 36.87 45.56 36.63 45.35 36.52 45.12 36.5 44.89 36.56 44.72 36.67 44.58 36.83 44.36 37.24 44.17 37.9 44.1 38.59 43.99 38.59 43.93 37.91 43.86 37.42 43.71 36.94 43.61 36.75 43.47 36.58 43.29 36.45 43.09 36.38 42.74 36.39 42.42 36.53 42.18 36.74 42 37.01 41.74 37.62 41.52 38.5 41.39 39.41 41.36 40.32 40.84 40.32 41.36 37.81 42.08 36.32 43.34 35.74 44.71 35.62 45.89 36.17 46.42 37.06 46.61 40.09 47.01 40.06 46.91 37.88 46.09 35.73 45.29 35.16 39.35 35.04"/><path class="d" d="M30.47,25.04l1.12-2.7-3.29,2.54,2.17,.16m-2.27,1.04l3.34,.27,.81-.38,.96-3,.13-1.68-.71,.68-.9,3.54-.84,.3-3.45-.21,.66,.48m-4.55-1.45l3.63,.26,1.32-1.26,1.51-1.44-.04-.7-1.51-.16-2.79,.6-5.59,2.15,3.48,.56m-6.02,2.44l3.37,.6,.3-.23-.48-.39v-.68l.33-.46,.73-.02-.53-.28-1.82-.27-.38,.39-.84,.51,.3,.54,.6,.32h-.32l-1.25-.04m-1.72-2.25l1.55,.1,2.55,.29,1.2-.11h.81l1.52,.12,.16-.17-.14-.16-1.95-.12-5.63-.82-.43,.41,.36,.46m-10.2,10.62l.32-1.19,.79-2.29,1.08-.94,1.78-1.32,1.14-.85,1.1-.55,.76-1.59,.88-1.13,.45-.38,.67-.57,.71-1.12,.63-2.47,.18-1.16-.66-.58h-1.18l.1-.33,.88-.04,2.32,.38,6,.72,6.57,.36,1.84,.14h.56l1.33,.14-.36,3.58-.97,2.16-1.58,.78-1.41,.18-2.71,.68-2.18,.22-1.12-.22,.14-.14,.65,.2,1.82-.11,1.68-.34,2.26-.56,.57-.26-.32-.18-1.66,.1h-1.05l-1.97,.7-1.26,.45-.08-.08,2.42-.87,1.17-.42-.64-.09-2.69,.83-1.68,.65-2.03-.13-3.6-.59-.36-.87-.65-1.07-1.08-.18-.54,.11-.93,.67-.62,.92-.99,1.8-.71,.68-2.33,1.41-1.47,1.34-.59,.97-.41,1.51-.29,1.15-.64-.18"/><polyline class="d" points="35.6 35.04 35.17 35.12 34.93 34.72 35.21 34.18 34.81 33.1 34.15 31.86 32.97 31.09 31.14 30.97 29.11 31.58 27.06 32.59 24.72 34.33 24.94 33.76 26.57 32.56 28.68 31.41 30.85 30.66 32.36 30.66 33.81 31.09 35.08 32.4 35.6 34.33 35.6 35.04"/><path class="d" d="M24.76,36.03l-.33,.11,.83,.09,3.21,.07,.25-.96-.1-.58-3.86,1.27m4.43-1.28l-.31,1.55h1.34l.22-1.02-.09-.46-1.16-.06m-5.54,1.56l2.02-1.13,2.28-.87,1.97-.11,.87,.44,.12,.92-.36,.93-3.27,.15-3.63-.31"/><path class="d" d="M43.47,38.89l-.03-.62-.07-.21-.11-.13-.12-.06h-.13l-.14,.12-.12,.29-.09,.51-.03,.52,.06,1.34v.1l.04,.45v.06h0v.11l.1,.75,.08,.2,.1,.08,.15-.02,.2-.15,.08-.16,.04-.17v-.54l-.02-2v-.47m.28,0v3.05l-.07,.29-.16,.25-.18,.13-.21,.06h-.17l-.16-.09-.12-.14-.07-.17-.09-.44-.04-.5v-.12l-.05-.48-.07-1.39,.03-.56,.1-.56,.16-.39,.12-.14,.16-.09,.26-.02,.24,.11,.19,.22,.1,.29,.04,.68"/><path class="d" d="M45.14,37.67l-.07,.02-.05,.05-.07,.15-.04,.17-.09,.73v1.94l.04,1.05,.05,.25,.04,.08v.02l.06,.03h.06l.09-.08,.08-.13,.06-.18,.13-.75,.07-.97,.02-.41,.02-.85-.04-.38-.09-.37-.13-.26-.06-.05-.07-.03m.02-.19l.15,.05,.12,.11,.16,.32,.1,.41,.04,.42-.02,.88-.02,.32-.06,.89-.13,.88-.13,.37-.11,.14-.16,.08h-.12l-.11-.04-.08-.09-.06-.12-.07-.3-.02-.34v-.8l-.02-.91v-.91l.08-.79,.14-.4,.13-.12,.17-.04"/><polyline class="d" points="35.18 32.95 36.45 33.07 38.08 33.07 39.13 32.64 39.69 31.36 39.61 30.4 39.99 22.51 40.32 22.51 39.99 30.91 39.66 32.43 38.54 33.48 36.63 33.35 35.34 33.36 35.18 32.95"/><polyline class="d" points="28.74 32.61 28.71 32.5 28.99 32.46 29.51 32.58 29.51 32.33 29.39 32.2 28.86 32.15 28.9 31.97 29.35 32.05 29.59 32.2 29.59 32.75 28.74 32.61"/><path class="d" d="M29.97,29.01l-.09,.21,.06,.28,.54-.13-.12-.29-.39-.07m.11-.52l-.05,.2h.96l.05-.17-.36-.11-.6,.08m.92-.44l-.05,.19,.87,.41,.31-.16-.06-.49-.63-.26-.43,.31m-1.96,3.95l.15-1.3,.26-.92,.15-.96,.57-.72,1.08-.67,1.1,.26,.25,.68-.14,.92-.76,.34-1.03-.11-.77,.32-.46,1.16-.1,1.05-.3-.05"/><path class="d" d="M34.36,20.98l.02,.24,3.83,.2-.21,6.59-3.69-.02,.06,.96,1.03-.05-.04-.58,2.79-.03,.19-6.94-3.97-.37m-.11-.12l4.16,.42-.11,7.18h-2.81v.65h-1.26v-1.3h3.64l.26-6.31-3.9-.17,.03-.47"/><polyline class="d" points="38.4 22.16 38.41 21.8 39.03 21.93 39.43 22.16 39.43 23.28 39.3 24.99 39.13 25.36 38.34 25.69 38.35 25.19 38.6 25.25 39.02 25.2 39.21 24.8 39.31 22.32 39.09 22.16 38.4 22.16"/><polyline class="d" points="38.12 21.76 38.11 21.93 37.95 21.92 37.63 22.26 37.46 24 37.56 25.12 37.98 25.28 37.97 25.48 37.67 25.43 37.42 25.16 37.38 23.97 37.5 22.12 37.72 21.9 38.12 21.76"/><polyline class="d" points="37.96 25.67 37.95 25.82 37.74 25.81 37.5 25.88 37.45 26.86 37.61 27.09 37.9 27.14 37.89 27.34 37.61 27.29 37.36 26.93 37.41 25.87 37.61 25.67 37.96 25.67"/><polyline class="d" points="38.34 25.76 38.99 25.76 39.14 25.91 39.05 27.22 38.32 27.31 38.32 27.09 38.84 27.14 38.99 26.3 38.91 25.94 38.34 25.86 38.34 25.76"/><polyline class="d" points="34.59 21.35 35.8 21.4 36.31 22.18 36.31 24.38 35.48 26.09 34.04 26.36 33.71 25.47 34.04 23.88 34.28 21.68 34.59 21.35"/><polyline class="d" points="14.45 19.03 14.37 19.3 13.87 19.29 13.04 25.29 13.56 25.58 13.42 25.76 12.92 25.35 13.68 19.09 14.45 19.03"/><path class="d" d="M12.83,22.79l.36,.37,.16-.06,.44-3.14-.2-.02-.14,.06-.28,.44-.24,1.29-.08,1.05m-.18,.05l.29-2.52,.53-.55,.16-.06h.18l.66,.32-.31,3.49-.86-.08-.33-.05-.32-.55"/><polyline class="d" points="13.27 23.6 13.69 23.77 14.03 24.41 13.54 25.09 12.74 24.99 12.28 24.58 12.39 23.87 12.97 23.58 13.27 23.6"/><polyline class="d" points="9.99 29.47 10.16 27.29 9.64 27.06 8.48 27.06 8.02 26.59 8.58 25.31 9.64 24.92 10.37 25.11 10.86 26.13 10.69 27.53 10.46 29.12 9.99 29.47"/><polyline class="d" points="45.04 39.57 45.14 39.38 45.26 39.5 45.3 40.06 45.26 40.42 45.12 40.46 45.04 40.32 45.04 39.57"/><polyline class="d" points="43.12 39.76 43.2 40.7 43.13 41.08 42.96 40.84 42.84 40.15 42.95 39.43 43.11 39.59 43.12 39.76"/><polyline class="d" points="32.01 42.05 31.89 43.74 32.48 43.88 32.87 43.16 33.07 43.52 32.81 44.59 32.03 44.7 31.7 43.99 31.72 41.99 32.12 40.4 32.32 38.66 32.94 38.45 33.51 38.84 33.68 39.77 34.13 40.51 34.27 41.16 34.15 42.6 33.69 43.05 32.87 42.6 32.87 40.96 33.34 40.75 33.24 41.24 33.11 41.93 33.51 42.7 33.95 42.7 34.08 41.14 33.78 40.44 33.58 40.23 33.43 39.63 33.24 38.84 32.81 38.84 32.35 40.16 32.01 42.05"/><polyline class="d" points="13.21 34.75 22.2 35.98 22.05 36.13 15.36 35.24 13.2 34.84 13.21 34.75"/><polyline class="d" points="12.97 35.35 17.87 35.84 20.96 36.25 21.9 36.38 20.19 36.52 16.09 35.94 13.67 35.72 12.81 35.47 12.97 35.35"/><polyline class="d" points="6.6 34.66 10.13 35.41 20.42 37.06 25.59 37.32 31.74 37.4 31.54 38.06 27.27 37.92 15.55 36.82 8.8 35.82 6.44 35.29 6.6 34.66"/><polyline class="d" points="12.8 27.42 12.87 27.3 14.45 27.4 23.58 28.63 24.69 28.9 25.09 29.31 24.94 30.5 24.94 33.76 24.72 34.33 23.62 35.56 19.47 35.28 13.9 34.46 12.49 33.71 11.83 32.46 11.66 30.11 11.52 29.18 12.35 28.24 12.82 28.08 12.77 28.44 12.52 29.03 12.23 31.43 12.84 33.35 15.27 34.06 19.25 34.55 22.67 34.95 23.66 34.71 24.46 33.73 24.85 29.56 24.27 28.96 21.83 28.63 16 27.82 12.8 27.42"/></g></svg>