<?xml version="1.0" encoding="UTF-8"?><svg id="a" xmlns="http://www.w3.org/2000/svg" viewBox="0 0 54.8 48.29"><path d="M5.47,32.52H49.49c-.71,1.66-1.37,3.24-2.1,4.79-.09,.18-.56,.26-.85,.26-5.67,.03-11.33,.03-17,.04-5.91,.01-11.83,.02-17.74,.03-1.21,0-2.42-.01-3.62-.08-.25-.01-.61-.25-.71-.48-.68-1.47-1.31-2.96-2-4.57Zm21.62,1.94c-.46-.78-1.07-.93-1.6-.59-.56,.36-.74,1.39-.31,2,.22,.31,.49,.71,.95,.22-.74-.31-1.03-.93-.72-1.57,.38-.79,.96-.44,1.68-.06Zm3.02-.52l-.02-.23c-.28,0-.56,.02-.84,0-.56-.04-.82,.12-.63,.74,.07,.22,0,.49,.02,.74,.02,.39,.04,.78,.07,1.17h.22l.09-1.09,.95-.11v-.16l-.99-.17,.05-.75,1.09-.13Z" fill="#00476b"/><path d="M35.43,38.88h4.34c-.48,.54-.88,1.01-1.29,1.46-2.79,3.04-6,5.53-9.6,7.55-1.01,.57-1.83,.5-2.81-.04-4.14-2.23-7.63-5.23-10.72-8.75-.03-.03-.02-.1-.05-.22,1.42,0,2.83,0,4.23,0,.12,.18,.21,.4,.37,.52,2.09,1.66,4.17,3.34,6.31,4.93,.59,.43,1.32,.82,2.17,.18,1.2-.9,2.56-1.59,3.73-2.53,1.18-.94,2.22-2.07,3.32-3.11Z" fill="#00476b"/><path d="M35.43,38.88c-1.1,1.05-2.13,2.17-3.32,3.11-1.17,.93-2.53,1.62-3.73,2.53-.85,.64-1.58,.25-2.17-.18-2.15-1.59-4.22-3.27-6.31-4.93-.16-.13-.25-.35-.37-.52,1.45-.02,2.91-.05,4.36-.06,3.57,0,7.14,0,10.72,0,.27,0,.55,.03,.82,.05Z" fill="#dba73b"/><path d="M34.75,25.53v3.34h-1.46v-7.34c.84,0,1.67-.08,2.47,.04,.34,.05,.81,.44,.91,.77,.28,.89,.39,1.83-.33,2.61,.79,1.26,.23,2.62,.44,3.96h-1.4c-.28-1.13,.19-2.34-.27-3.42l-.35,.05Zm.02-1.29c.75-.11,.7-.6,.62-1-.03-.17-.33-.29-.62-.52v1.52Z" fill="#00476b"/><path d="M44.67,28.93v-7.43c.75,0,1.46-.04,2.16,.01,.76,.06,1.33,.48,1.36,1.29,.05,1.58,.09,3.18-.01,4.76-.07,1-.62,1.36-1.61,1.37-.62,0-1.25,0-1.9,0Zm1.49-6.08v4.73c.76-.2,.78-.4,.65-4.04-.02-.41-.01-.8-.65-.69Z" fill="#00476b"/><path d="M9.5,25.33v3.55h-1.45v-7.4c1.14,.25,2.43-.53,3.32,.63,.55,.71,.31,2.16-.28,2.81,.78,1.26,.25,2.62,.43,3.97h-1.42c0-.62,.04-1.25-.01-1.86-.05-.52,.28-1.19-.58-1.69Zm.28-2.55l-.22,.19v1.22l.28,.09c.12-.29,.32-.57,.32-.86,0-.21-.25-.42-.38-.64Z" fill="#00476b"/><path d="M32.37,28.89h-1.37l-.14-1.08h-.87l-.16,1.07h-1.39l.7-7.34h2.5c.24,2.42,.47,4.86,.72,7.35Zm-2.33-2.12c.37-.22,.7-.33,.7-.42-.06-1-.16-2-.26-3l-.19,.02-.25,3.4Z" fill="#00476b"/><path d="M43.76,28.89h-1.37l-.11-1.06-.84-.08-.23,1.15h-1.35l.7-7.35h2.51c.23,2.4,.46,4.83,.7,7.33Zm-2.3-2.42l.21,.2c.16-.13,.47-.26,.47-.38-.04-.93-.15-1.87-.23-2.8h-.22l-.23,2.98Z" fill="#00476b"/><path d="M15.27,28.61c-1.52,.74-2.75,.06-2.81-1.59-.05-1.24-.02-2.47,0-3.71,.01-.69,.21-1.32,.92-1.61,.78-.31,1.55-.32,2.21,.31,.01,.22,.02,.44,.04,.66,.14,1.75,.71,3.5-.07,5.24-.02,.04,.11,.14,.17,.21l-.1,.14-.36,.35Zm-1.36-3.42c0,.63-.02,1.27,.02,1.9,.01,.16,.23,.3,.36,.45,.1-.14,.3-.28,.3-.42,.02-1.26,.03-2.53,0-3.79,0-.15-.23-.29-.35-.44-.11,.16-.3,.32-.31,.49-.04,.6-.01,1.21-.02,1.81Z" fill="#00476b"/><path d="M50.43,21.65l.33-.07,1.6,.44,.05,.03c.24,2.15,.4,4.3-.13,6.44-.65,.61-1.41,.54-2.13,.23-.68-.29-.87-.96-.88-1.64-.02-1.29-.05-2.58,.03-3.86,.03-.43,.37-.83,.57-1.25,.19-.1,.39-.2,.58-.3Zm.98,3.54h0c0-.58,.03-1.16-.02-1.73-.02-.21-.24-.41-.37-.61-.12,.19-.35,.37-.35,.56-.03,1.21-.03,2.42,0,3.62,0,.18,.25,.35,.38,.53,.12-.19,.33-.37,.34-.57,.05-.6,.02-1.21,.02-1.81Z" fill="#00476b"/><path d="M3.57,21.99l.13-.46h1.65c1.06,0,1.53,.38,1.71,1.37,.05,.27,.07,.55,.07,.82-.03,1.52-.24,2.3-2.17,2.27v1.95s-.12,.03-.15,.06c-.18,.26-.2,.8-.68,.54-.19-.1-.26-.54-.26-.83-.02-1.66,0-3.32-.03-4.99,0-.25-.19-.49-.28-.74Zm1.47,2.67c.77-.18,.68-.7,.63-1.13-.03-.26-.26-.5-.4-.75l-.23,.11v1.77Z" fill="#00476b"/><path d="M17.12,21.53h1.42v6.08l1.49,.09v1.18h-2.92v-7.36Z" fill="#00476b"/><path d="M23.73,24.64v.64c-.19,.06-.42,.2-.61,.15-.76-.19-.91,.24-.92,.84,0,.36-.03,.72,.01,1.07,.02,.19,.18,.36,.28,.54l.55-.36c.05-.04,.1-.04,.15,0l.07,.13,.08-.12h.16l.37,.4v.65h-2.97v-.33c.04-.26,.13-.52,.13-.78,.01-1.37,.02-2.73,0-4.1-.02-2.07,.11-1.67,1.74-1.73,.63-.02,.92,.22,.91,.84v.16l-1.11,.14s-.05,.07-.06,.11c-.02,.05-.05,.07-.1,.06-.68,.35-.34,.9-.18,1.34,.07,.18,.49,.26,.76,.33,.23,.05,.48,.02,.73,.02Z" fill="#00476b"/><path d="M25.67,28.9c-.06-.24-.17-.47-.17-.71-.01-1.72,0-3.45,0-5.2l-.82-.11v-1.33h3.11v1.27l-.84,.34c-.09,.25-.26,.5-.26,.76-.02,1.66-.01,3.33-.01,4.99h-.37c-.2-.49-.41-.43-.62,0Z" fill="#00476b"/><path d="M8.92,16.73c-.14-.77-.33-1.53-.41-2.31-.15-1.45-.25-2.9-.31-4.35-.01-.24,.21-.67,.41-.72,.81-.23,1.65-.35,2.48-.51-.58,1.73-1.2,3.44-1.71,5.18-.26,.87-.31,1.81-.45,2.71Z" fill="#dba73b"/><path d="M39.01,28.89h-1.3v-7.2h1.3v7.2Z" fill="#00476b"/><path d="M5.02,18.5c.26-.05,.52-.13,.79-.13,15.04,0,30.09,0,45.13,0,0,.05-.01,.09-.01,.14-1.51,0-3.03,.02-4.54,.02-13.54,0-27.08,0-40.62,0-.25,0-.49-.02-.74-.03Z" fill="#00476b"/><path d="M46.64,11.75c-.12,1.21-.24,2.43-.35,3.64-.1-.19-.24-.37-.31-.57-.34-1.13-.66-2.26-.99-3.39h0c-.05-.63,.23-1.37-.66-1.65-.03-.03-.05-.06-.04-.11,.04-.43,.16-.7,.67-.43,.2,.11,.45,.19,.68,.19,.63,.02,.85,.35,.85,.95,0,.46,.1,.91,.15,1.37Z" fill="#e5a22d"/><path d="M3.57,21.99c.1,.25,.28,.49,.28,.74,.03,1.66,0,3.32,.03,4.99,0,.29,.08,.73,.26,.83,.48,.26,.5-.28,.68-.54,.03-.04,.1-.04,.15-.06v.64l-.6,.32h-.79v-6.91Z" fill="#00476b"/><path d="M6.67,6.16l-1.49,.88c0,1.16,.01,2.42-.01,3.68,0,.23-.15,.47-.23,.7V6.61l1.73-.44Z" fill="#00476b"/><path d="M26.66,28.9c0-1.66-.01-3.33,.01-4.99,0-.25,.17-.5,.26-.76,0,1.75,.03,3.5,.02,5.24,0,.17-.19,.34-.29,.5Z" fill="#00476b"/><path d="M23.69,22.49c.01-.62-.27-.86-.91-.84-1.63,.06-1.76-.34-1.74,1.73,.01,1.37,.01,2.73,0,4.1,0,.26-.09,.52-.13,.78v-6.71h2.92v.93s-.09,0-.14,0Z" fill="#00476b"/><path d="M46.64,11.75c-.05-.46-.15-.91-.15-1.37,0-.6-.21-.93-.85-.95-.23,0-.47-.09-.68-.19-.51-.27-.63,0-.67,.43-.15-.28-.29-.57-.44-.86,.78,.14,1.56,.29,2.34,.43,.44,.08,.67,.31,.61,.79-.07,.57-.11,1.14-.16,1.71Z" fill="#d2a755"/><path d="M44.99,11.42c.33,1.13,.65,2.27,.99,3.39,.06,.2,.2,.38,.31,.57l-.25,1.36-1.04-5.33Z" fill="#d2a755"/><path d="M15.73,28.13c-.06-.07-.19-.18-.17-.21,.78-1.74,.21-3.49,.07-5.24-.02-.22-.03-.44-.04-.66,.16,.36,.46,.71,.47,1.08,.06,1.34,.05,2.69,.02,4.04,0,.33-.22,.66-.34,.99Z" fill="#00476b"/><path d="M23.04,27.53l-.55,.36c-.1-.18-.25-.35-.28-.54-.05-.35-.02-.71-.01-1.07,0-.6,.16-1.03,.92-.84,.18,.04,.41-.1,.62-.15-.12,.17-.21,.44-.37,.48-.27,.08-.59,.02-.93,.02v1.61l.61,.13Z" fill="#00476b"/><path d="M51.42,18.5v-.42l3.38,.28v.14h-3.38Z" fill="#00476b"/><path d="M2.85,18.18l1.84,.31H0v-.12l2.84-.19Z" fill="#00476b"/><path d="M23.73,24.64c-.24,0-.49,.03-.73-.02-.27-.06-.7-.14-.76-.33-.16-.43-.51-.98,.18-1.34,0,.43,0,.86,0,1.29l1.31,.4Z" fill="#00476b"/><path d="M20.91,28.6h2.97c-.08,.11-.15,.31-.23,.31-.84,.02-1.67,.02-2.51,0-.08,0-.15-.2-.23-.31Z" fill="#00476b"/><path d="M44.33,9.77c.89,.28,.61,1.02,.66,1.64l-.66-1.64Z" fill="#d2a755"/><path d="M52.36,22.01l-1.6-.44,1.6,.44Z" fill="#24465f"/><path d="M5.35,21.53h0Z" fill="#19374d"/><path d="M23.69,22.49s.09,0,.14,0c-.11,.15-.21,.41-.35,.43-.31,.06-.64,0-.96-.01,.01-.04,.03-.08,.06-.11,.37-.05,.74-.09,1.11-.14v-.16Z" fill="#24465f"/><path d="M23.88,27.94l-.37-.4c.4-.12,.51,.02,.37,.4Z" fill="#00476b"/><path d="M50.43,21.65c-.19,.1-.39,.2-.58,.3,.19-.1,.39-.2,.58-.3Z" fill="#24465f"/><path d="M25.67,28.9c.21-.43,.42-.49,.62,0h-.62Z" fill="#00476b"/><path d="M5.05,12.74c.39,.13,.41,.3,.04,.5l-.04-.5Z" fill="#00476b"/><path d="M5.01,12.08l.02,.33-.02-.33Z" fill="#0f3c5b"/><path d="M15.27,28.61l.36-.35-.36,.35Z" fill="#00476b"/><path d="M5.16,13.62l.03,.4-.03-.4Z" fill="#0f3c5b"/><path d="M4.96,28.58v0Z" fill="#00476b"/><path d="M23.35,27.54l-.08,.12-.07-.13h.15Z" fill="#00476b"/><path d="M4.2,28.9h0Z" fill="#00476b"/><path d="M50.93,18.5s0-.09,.01-.14l.15,.14h-.17Z" fill="#24465f"/><path d="M24.51,12.41c-1.86,.66-2.25,2.38-2.81,3.96l-.51-.17c.54-1.1,1.07-2.2,1.61-3.3,.57-.16,1.14-.33,1.71-.49Z" fill="#00476b"/><path d="M23.11,16.34l2.72-.29c-.18,.1-.37,.29-.55,.3-.72,.03-1.45,0-2.17-.01Z" fill="#00476b"/><path d="M13.28,17.06l1.98-.03c-.44,.46-1.22,.47-1.98,.03Z" fill="#00476b"/><path d="M40.05,10.44l-.03,.66h-.42l-.02-.67h.48Z" fill="#00476b"/><path d="M33.42,16.44c.34,0,.67,0,1.01-.01-.33,.44-.67,.44-1.01,.01Z" fill="#00476b"/><path d="M39.37,9.93l-.83-.82,.83,.82Z" fill="#24465f"/><path d="M14.36,12.41l-.26,.83,.26-.83Z" fill="#24465f"/><path d="M13.37,16.04l-.14,.84,.14-.84Z" fill="#24465f"/><path d="M22.19,16.39l.5-.03-.27,.32-.22-.28Z" fill="#24465f"/><path d="M14.73,11.42c-.08,.2-.17,.4-.25,.6,.08-.2,.17-.4,.25-.6Z" fill="#24465f"/><path d="M13.67,14.72l-.09,.33,.09-.33Z" fill="#24465f"/><path d="M39.58,13.08c.01-.12,.03-.24,.04-.35-.01,.12-.03,.24-.04,.35Z" fill="#24465f"/><path d="M13.49,15.38l-.06,.33,.06-.33Z" fill="#24465f"/><path d="M35.27,5.14l-.03-.33,.03,.33Z" fill="#24465f"/><path d="M39.93,14.59l-.06,.31,.06-.31Z" fill="#24465f"/><path d="M13.94,13.73c-.04,.12-.08,.24-.12,.36,.04-.12,.08-.24,.12-.36Z" fill="#24465f"/><path d="M13.83,14.1l-.07,.29,.07-.29Z" fill="#24465f"/><path d="M35.01,3.95l-.08-.02,.07-.12v.15Z" fill="#24465f"/><path d="M27.09,34.46c-.72-.37-1.3-.73-1.68,.06-.31,.64-.01,1.26,.72,1.57-.46,.49-.73,.09-.95-.22-.43-.61-.25-1.64,.31-2,.54-.35,1.14-.19,1.6,.59Z" fill="#dba73b"/><path d="M30.11,33.94l-1.09,.13-.05,.75,.99,.17v.16l-.95,.11-.09,1.08h-.22c-.02-.38-.05-.77-.07-1.16-.01-.25,.05-.51-.02-.74-.19-.62,.07-.78,.63-.74,.28,.02,.56,0,.84,0l.02,.23Z" fill="#dba73b"/><path d="M23.68,22.65c-.37,.05-.74,.09-1.11,.14,.37-.05,.74-.09,1.11-.14Z" fill="#19374d"/><g><path d="M5.01,12.08l-.07-.65h0c.08-.24,.23-.47,.23-.7,.02-1.26,.01-2.52,.01-3.68,0,0,0,0,0-.01l1.48-.87h0l7.16-1.4s.02,.01,.01,.02c-.99,1.45-1.88,2.75-2.76,4.04h0c-.83,.17-1.67,.29-2.47,.52-.2,.06-.42,.48-.41,.72,.07,1.45,.17,2.9,.31,4.35,.08,.77,.27,1.54,.41,2.31h0l.07,.75s0,.01,.01,.01h.95s.01,0,.01-.01c.22-6.07,2.68-10.94,7.67-14.42C21.05,.68,24.86-.27,28.97,.06c8.33,.67,15.79,7.48,16.05,17.39,0,0,0,.01,.01,.01l.91,.1s.01,0,.02-.01l.08-.8h0l.25-1.36h0l.35-3.64c.05-.57,.09-1.14,.16-1.71,.06-.49-.17-.71-.61-.79-.78-.14-1.56-.29-2.33-.43h0l-2.76-4.1s0-.02,.01-.02c3.01,.65,5.83,1.24,8.64,1.88,.18,.04,.38,.48,.38,.74,.08,3.39-.2,6.75-.81,10.09-.02,.13-.02,.26-.03,.44,0,0,0,.01,.01,.01l1.88,.21-.03,.44h-.05l-.15-.13h0c-15.04,0-30.09,0-45.13,0-.26,0-.51,.08-.77,.13h-.36l-1.75-.3s-.01-.02,0-.03l2.7-.33s.01,0,.01-.01l-.45-3.8-.03-.4h0l-.07-.37s0-.01,0-.01c.36-.19,.34-.36-.04-.49,0,0,0,0,0-.01l-.03-.55v-.1Zm8.81,2.02l-.07,.29-.09,.32-.09,.33-.09,.33-.06,.33-.06,.33-.14,.84,.06,.19c.76,.44,1.54,.43,1.98-.03,1.09-.11,2.18-.2,3.26-.35,.9-.12,1.78-.32,2.67-.49l.51,.17,.5,.02,.22,.28,.27-.32h.42c.72,0,1.45,.03,2.17,0,.19,0,.37-.2,.55-.3,2.56-.42,5.06,.24,7.59,.38,.34,.43,.68,.42,1.01-.01l.02-.03c.57-.12,1.14-.23,1.71-.38,.1-.02,.16-.19,.24-.29,.62-.07,1.24-.19,1.87-.2,.79-.01,1.34-.18,1.24-1.15-.04-.43,.05-.87,.08-1.3l.04-.35-.12-.8,.09-.82h.42l.2,1.15-.28,2.34-.06,.31c0,1.59,.57,2.53,2.32,2.27l.94,.11c.08-1.53-.43-3.64-1.13-5.57-.37-1.01-.98-1.35-1.96-1.27h-.48l-.2-.51-.83-.82-2.81-2.96c.23-.54-.25-.54-.53-.69l.07-.32-.03-.33-.23-.87v-.15l-.08,.12c-.4-.18-.79-.36-1.19-.53-3.07-1.33-6.25-1.62-9.58-.96l.2,1.55,.16,.44c-.18,.06-.37,.12-.55,.19l-.13-1.13-.09-1.14c-1.59,.71-3.09,1.24-4.44,2.02-1.51,.86-2.9,1.94-3.9,3.43-.83,.64-1.29,1.39-.64,2.42v1.11s-.01,.08-.05,.1l-.25,.6-.12,.39-.26,.83-.17,.5-.12,.36h0Z" fill="#00476b"/><path d="M23.98,4.61l.55-.19,1.63,.09,1.34,.29h0c.08,.15,.26,.33,.23,.47-.14,.93,.48,.86,1.06,.87,.11,0,.22,0,.33,0,.54-.04,.8,.11,.7,.75-.06,.4,.09,.83,.15,1.24l-.04,.65-2.13,2.65-2.46,.72-.85,.26h0l-1.71,.49c-.06-.14-.08-.3-.17-.42-.78-1.1-1.56-2.22-2.39-3.29-.17-.22-.56-.27-.84-.4l-.18-.37c.66-.1,1.1-.46,1.44-1.04,.28-.46,.7-.83,1.05-1.24,1.33,0,1.38-.03,1.46-1.06l.16-.11c.43,.27,.58,.01,.67-.36h0Z" fill="#00476b"/><path d="M34.45,16.39c-1.5-1.45-3-2.89-4.49-4.34-.19-.19-.36-.4-.54-.61l.21-.36c1.5,1.39,3.03,2.74,4.49,4.17,.55,.53,1.06,.8,1.79,.5,.14-.06,.32-.02,.49-.02-.08,.1-.14,.26-.24,.29-.57,.14-1.14,.25-1.71,.38Z" fill="#00476b"/><path d="M14.79,10.21c.28-.09,.6-.12,.84-.27,1.11-.7,2.23-1.39,3.58-1.51l.18,.37c-1.71,.52-3.29,1.28-4.6,2.52,0-.37,0-.74,0-1.11Z" fill="#00476b"/><path d="M30.44,5.8l2.01-.36,2.75,.02c.28,.15,.76,.15,.53,.69l-3.33-.05-1.29,.02-.49-.29-.18-.04Z" fill="#00476b"/><path d="M30.44,5.8c.06,.01,.12,.02,.18,.04,.06,.11,.13,.21,.19,.32l-.64,.24-.2,1.73c-.06-.41-.21-.84-.15-1.24,.1-.63-.16-.79-.7-.75-.11,0-.22,0-.33,0-.58,0-1.21,.06-1.06-.87,.02-.15-.15-.32-.23-.48,.65,.25,1.29,.52,1.95,.76,.32,.12,.66,.17,1,.26Zm-1.76-.05s.06-.1,.05-.13c-.01-.03-.08-.04-.13-.06-.02,.05-.06,.1-.05,.13,.01,.03,.08,.04,.13,.06Z" fill="#00476b"/><path d="M29.63,11.08l-.21,.36h-1.62c.71-.89,1.42-1.78,2.13-2.66l-.3,2.3Z" fill="#00476b"/></g><path d="M21.71,6.14c.49-.35,.97-.71,1.46-1.06-.08,1.02-.12,1.05-1.46,1.06Z" fill="#00476b"/><path d="M26.16,4.51c.45,.1,.9,.19,1.34,.29-.45-.1-.9-.19-1.34-.29Z" fill="#083959"/><path d="M25.36,12.15l-.85,.26,.85-.26Z" fill="#24465f"/><path d="M23.32,4.97c.22-.12,.45-.24,.67-.36-.09,.37-.24,.63-.67,.36Z" fill="#00476b"/><path d="M30.82,6.15c-.06-.11-.13-.21-.19-.32,.16,.1,.33,.19,.49,.29l-.3,.03Z" fill="#00476b"/><path d="M28.68,5.75s-.12-.03-.13-.06c-.01-.03,.03-.09,.05-.13,.05,.02,.12,.03,.13,.06,.01,.03-.03,.09-.05,.13Z" fill="#00476b"/></svg>