<?xml version="1.0" encoding="UTF-8"?><svg id="a" xmlns="http://www.w3.org/2000/svg" viewBox="0 0 42.95 56.77"><path d="M42.88,20.52v5.96c-.01,.36-.04,.71-.02,1.07,.02,.44-.13,.77-.52,1l-.1,.03-.08,.04-4.39,.82c.1,.14,.19,.19,.28,.22,.68,.25,.86,.49,.87,1.2,.02,1.46,0,2.93,.07,4.39,.04,1.11-.8,1.62-1.79,1.29-1.14-.38-2.32-.64-3.49-.93-.13-.03-.35,0-.41,.08-.31,.39-.59,.8-.88,1.21-.46,.53-.9,1.07-1.38,1.59-1.09,1.18-2.19,2.34-3.29,3.51l-1.21,1.12-.47,.4-.82,.74-.8,.7c-.31,.22-.62,.44-.93,.66-.47,.33-.77,.35-1.21,0-.76-.61-1.53-1.21-2.25-1.87-1.33-1.22-2.63-2.47-3.94-3.71-1.07-1.29-2.15-2.57-3.21-3.87-.55-.67-.34-.6-1.36-.38l-.68,.2c-.8,.21-1.61,.4-2.4,.62-.83,.23-1.47-.21-1.5-1.03-.03-1.13-.06-2.27-.08-3.4-.01-.57-.2-.83-.74-1.05-.1-.04-.21-.11-.26-.2-.29-.51-.55-1.04-.84-1.55-.12-.2-.25-.47-.44-.54-.42-.15-.88-.2-1.33-.29l-.27-1.12,.03-1.3s.03-.02,.03-.02c0-.02-.02-.04-.03-.06v-1.21c.01-.15,.05-.31,.05-.46,0-1.85,0-3.7,0-5.56,.18-.18,.33-.43,.55-.53,.47-.21,.97-.33,1.45-.5,0-.12,0-.24,0-.36l-.03-.37c-.08-.59-.18-1.17-.24-1.76-.07-.72-.12-1.45-.15-2.18-.05-1.28-.08-2.55-.12-3.83-.01-.38,.15-.65,.46-.86,.27-.18,.51-.39,.77-.58,.4-.15,.8-.3,1.19-.46,1.25-.5,2.49-1.01,3.73-1.52,.7-.21,1.39-.45,2.1-.63,.4-.1,.63-.34,.86-.65,.33-.45,.71-.87,1.09-1.28,.18-.19,.41-.34,.61-.51,1.76-1.48,3.77-2.39,6.05-2.68,1.16-.15,2.32-.2,3.48,.02l1.94,.5,.58,.2h0l.34,.22h.03l.17,.07,.13,.03,1.31,.78,2.31,1.99,.84,1.01,1.02,.39,.53,.15,1.03,.36c1.25,.51,2.5,.99,3.73,1.53,.68,.3,1.32,.69,1.97,1.04,.35,.19,.5,.48,.49,.88-.01,.84,0,1.68,0,2.53v.03l-.16,1.82v.17l-.06,.6c-.13,1.02-.28,2.04-.39,3.06-.01,.11,.13,.3,.24,.35,.27,.12,.57,.19,.86,.26,.56,.12,.96,.4,1.05,1.01v1.38ZM30.75,4.24h0l-.3-.31c-.2-.19-.39-.38-.59-.56C25.05-.68,17.59,.33,14.03,5.5c-.13,.19-.37,.36-.59,.43-2.65,.79-5.25,1.68-7.67,3.05-.29,.16-.41,.35-.39,.68,.18,2.32,.33,4.64,.51,6.96,.05,.59,.17,1.18,.26,1.77-.64,.19-1.23,.39-1.83,.54-.35,.09-.47,.25-.47,.62,.02,2.56,.02,5.12,0,7.68,0,.46,.16,.57,.57,.62,1.54,.19,3.08,.41,4.61,.64,.15,.02,.4,.18,.41,.28,.02,.43-.04,.86-.08,1.29,0,.03-.15,.05-.24,.08-.32,.1-.63,.2-.95,.28-.28,.07-.4,.22-.39,.52,.02,.6,0,1.21,0,1.81,0,.86,0,1.73,0,2.59,0,.27,.06,.52,.41,.42,.81-.23,1.62-.49,2.43-.73l2.28-.44s.01,.05,.03,.08l.41,.56s.02,.04,.05,.04l.2,.29s0,.05,.04,.06l1.03,1.32,.34,.41,.07,.08v.02h.03l1.17,1.36,.26,.29,.75,.77h0c.07,.1,.12,.2,.2,.27,1.55,1.41,3.09,2.83,4.66,4.22,.74,.65,.77,.63,1.54,.01,3.46-2.79,6.56-5.93,9.14-9.57,.14-.2,.27-.24,.49-.18,1.4,.37,2.81,.73,4.21,1.1,.44,.11,.55,.06,.55-.37,0-1.5,.01-2.99,0-4.49,0-.15-.17-.36-.31-.42-.35-.15-.74-.23-1.1-.36-.11-.04-.18-.17-.27-.26l.02-.97c1.73-.34,3.46-.69,5.2-1.02,.32-.06,.42-.17,.42-.5-.01-2.5,0-5,0-7.5q0-.76-.71-.98c-.29-.09-.57-.19-.86-.27-.67-.2-.67-.19-.66-.84h0l.1-.52v-.04l.3-2.21,.03-.26,.24-3.88v-.18c.03-.39,.07-.77,.05-1.15-.01-.16-.13-.38-.27-.46-.56-.33-1.12-.66-1.71-.9-1.41-.57-2.83-1.09-4.25-1.63l-.08-.02c-.5-.16-.99-.35-1.49-.48-.36-.1-.69-.23-.92-.54h0l-.84-1.05-.03,.02,.03-.03-.16-.18Z" fill="#f1f3f5"/><path d="M3.01,24.83v-6.03s.05,0,.07,.01c0,1.85,0,3.7,0,5.56,0,.15-.04,.31-.06,.46Z" fill="#d4d3d9"/><path d="M5.08,17.43c0,.12,0,.24,0,.36,0-.12,0-.24,0-.36Z" fill="#2858a4"/><path d="M4.11,17.84l-.09,.06,.09-.06h0Z" fill="#2858a4"/><path d="M41.33,11.87v-.03s.1-.03,.15-.05l-.15,.08Z" fill="#3264ac"/><path d="M42.88,20.52v-1.38c.02,.46,.04,.92,.06,1.38h-.06Z" fill="#3264ac"/><path d="M41.11,14.46l.05-.6-.05,.6Z" fill="#3766b0"/><path d="M16.11,40.02c1.31,1.24,2.61,2.49,3.94,3.71,.72,.66,1.49,1.26,2.25,1.87,.44,.35,.74,.34,1.21,0,.31-.22,.62-.44,.93-.66,.37,.14,.73,.29,1.11,.41,.69,.21,1.37,.42,2.07,.6,.64,.17,1.27,.46,1.95,.2,.1,0,.2,0,.29-.03,.8-.33,1.62-.63,2.39-1.01,1.22-.61,2.35-1.37,3.24-2.43,.23-.27,.36-.62,.54-.94l.04-.25,.14-.61-.04-.21v-.52l.03-.38-.1-.62-.4-1.54-.14-.44-.06-.24-.13-.18-.05-.16c.05-.24-.04-.37-.3-.34l-.28,.04-.15,.11-.25,.03-.27,.15-.25,.04-.4,.17-.49,.02-.21,.14-.31-.06c.29-.41,.56-.82,.88-1.21,.07-.08,.29-.11,.41-.08,1.17,.29,2.35,.55,3.49,.93,1,.33,1.84-.18,1.79-1.29-.06-1.46-.05-2.93-.07-4.39,0-.71-.18-.96-.87-1.2-.09-.03-.18-.08-.28-.22,1.46-.27,2.93-.55,4.39-.82-.02,.61-.03,1.22-.05,1.82,0,.04,.01,.08,.02,.12-.04,.1-.08,.21-.12,.31-.15,.89-.3,1.78-.45,2.66v.11h0c-.19,.62-.38,1.24-.57,1.86-.1,.21-.2,.42-.3,.63-.18,.39-.35,.79-.52,1.18-.04,.09-.09,.19-.13,.28l-.19,.35-.11,.15c-.51,.78-1.02,1.55-1.53,2.33-.05,.07-.07,.15-.1,.23-.05,.05-.1,.09-.15,.14l-.88,1.02-.09,.06-.18,.19c-.06,.07-.11,.15-.17,.22-.25,.24-.51,.49-.76,.73h0l-.18,.17-.02,.02v.02l-.53,.47-.22,.14-.36,.3-.08,.08-.84,.61s-.04,.02-.03,.04l-.17,.11-.16,.11-.39,.24c-.05,.02-.11,.02-.16,.05-1.34,.86-2.79,1.47-4.29,1.96l-.22,.12-.38,.06-.22,.11-.47,.07-.43,.13-.34,.05-.52,.12c-.85,.08-1.71,.16-2.56,.22-.55,.04-1.11,.04-1.67,.05l-.52-.02c-.2-.02-.4-.04-.61-.06l-.95-.12-.34-.06-.78-.15-.17-.03-.43-.14-.26-.03-2.59-.9-.21-.06-1.68-.83s-.08-.03-.12-.05c.01-.06,.02-.12,.04-.19l.34,.07,.23-.04,.13-.11c.35-.24,.7-.48,1.04-.72l.35-.33,.43-.42,.13-.15-.13-.09-.68-.43-.21-.14c-1.66-1.45-2.88-3.24-3.84-5.2-.21-.43-.43-.71-.95-.67-.12,.01-.26-.08-.38-.13l.89-.05c.08-.17,.17-.35,.25-.54,.1-.25,.18-.5,.26-.75,.23-.07,.45-.13,.68-.2-.03,.12-.04,.25-.08,.37-.07,.21-.16,.42-.24,.63l.12,.07-.34,.15,.36,.79-.13,.1,.03,.03,.1-.13c.28,.19,.57,.37,.85,.56,.52,.36,.83,.99,1.49,1.19,.19,.06,.36,.16,.55,.25,.59,.27,1.2,.47,1.86,.25Z" fill="#9a9b9c"/><path d="M7.82,41.83c-.23-.28-.47-.55-.68-.84-.27-.36-.51-.75-.77-1.12-.06-.09-.17-.14-.26-.2-.03-.11-.07-.23-.1-.34l-.08-.16-.2-.2,.07-.17c.13,.12,.26,.24,.39,.37,.11,.11,.22,.23,.34,.34,.06,.07,.12,.15,.18,.22,.63,.81,1.15,1.73,1.9,2.41,1.16,1.04,2.46,1.92,3.74,2.83,.38,.27,.8,.63,1.36,.4v.21s-.07,.07-.12,.11c-.08,.01-.15,.03-.23,.04l-.34-.07c-.49-.24-.98-.48-1.47-.72l-2.03-1.44c-.14-.4-.55-.66-1-.9l-.34-.26h0l-.34-.52Z" fill="#0e1725"/><path d="M40.04,37.6c.04-.09,.09-.19,.13-.28l-.13,.28Z" fill="#323232"/><path d="M39.74,38.11l.11-.15-.11,.15Z" fill="#323232"/><path d="M0,49.22s.02-.06,.03-.06c.02,0,.04,.02,.07,.03-.01,.02-.02,.06-.03,.06-.02,0-.04-.02-.07-.03Z" fill="#0e1725"/><path d="M42.02,30.87c.04-.1,.08-.21,.12-.31,.01,.1,.02,.2,.04,.3h-.15Z" fill="#1b4780"/><path d="M41.57,33.64v0Z" fill="#192952"/><path d="M42.44,28.8l.17-.17-.17,.17Z" fill="#1b4891"/><path d="M34.16,6.5l.08,.02c.12,.23,.27,.35,.56,.37,.3,.02,.6,.12,.87,.26,.89,.44,1.89,.65,2.73,1.22,.4,.28,.92,.39,1.37,.61,.33,.16,.57,.38,.52,.83-.03,.28,.09,.57,.14,.86v.18c-.06,.15-.14,.29-.15,.44-.07,1.05-.12,2.11-.17,3.16,0,.09,.04,.18,.07,.28l-.03,.26c-.07,.08-.21,.16-.21,.24-.04,.65-.06,1.31-.09,1.97v.04l-.09,.52h0c-.08,.2-.19,.4-.23,.62-.01,.06,.15,.2,.25,.23,.51,.14,1.04,.22,1.55,.38,.28,.09,.51,.28,.51,.66-.01,2.57,0,5.14-.01,7.71,0,.11-.11,.23-.16,.34l-.44,.09c-.42,.06-.83,.12-1.25,.19-.34,.06-.69,.13-1.03,.2-.42,.09-.83,.21-1.26,.3-.37,.08-.75,.12-1.13,.18-.45-.05-.33,.28-.35,.52v.34l-.17-.17-.21-.32h0c0-.3-.15-.22-.32-.12-.08-.02-.17-.02-.25-.05-2.56-.75-5.16-1.28-7.81-1.56-5.81-.62-11.5-.05-17.09,1.62-.31,.09-.4,.23-.39,.54,.02,1.24,0,2.49,0,3.79,.25-.04,.5-.06,.75-.12,.44-.12,.88-.27,1.31-.4,.06,.06,.13,.19,.17,.18,.22-.05,.43-.12,.63-.21,.28-.12,.4-.03,.4,.26l-.08,.1c-.23,.2-.25,.56-.04,.66,.28,.14,.55,.3,.84,.46-.35,.41-.31,.66,.07,1.07l.43-.33,.7,1.65c.29-.1,.43,.05,.5,.35,.03,.13,.17,.33,.26,.33,.33,0,.49,.21,.54,.46,.11,.49,.54,.67,.87,.91,.3,.22,.44,.67,.92,.64,.04,0,.13,.28,.13,.43,0,.06-.17,.16-.27,.17-.28,.03-.57,.03-.86,.04h0c.09-.2,.18-.39,.27-.57q-.37-.3-1.02-.21l-.26-.29c-.09-.21-.13-.47-.27-.62-.27-.28-.6-.49-.9-.74h-.02v-.03l-.07-.08-.34-.41c.01-.1,.07-.25,.03-.28-.29-.26-.52-.52-.16-.9l-.91-.14s-.04-.03-.04-.06l-.2-.29s-.04-.01-.05-.04c.09-.35-.02-.56-.41-.56-.02-.02-.03-.05-.03-.08l.17-.35c-.06-.02-.17-.07-.17-.06-.05,.09-.09,.19-.11,.25l-1.66,.25,.42-.39-.03-.1-.32,.03c-.4-.08-.81-.16-1.21-.23-.39-.06-.55-.26-.53-.67,.03-.89,0-1.78,0-2.71-.3,.09-.54,.19-.79,.23-.33,.05-.4,.24-.39,.54,.02,.92,0,1.84,0,2.76,0,.33,0,.65,0,1.02l2.22-.56,.34,.13c.08,.23-.43,0-.22,.32-.81,.25-1.62,.5-2.43,.73-.36,.1-.41-.15-.41-.42,0-.86,0-1.73,0-2.59,0-.6,.01-1.21,0-1.81,0-.3,.11-.45,.39-.52,.32-.08,.63-.19,.95-.28,.08-.02,.23-.04,.24-.08,.05-.43,.1-.86,.08-1.29,0-.1-.25-.25-.41-.28-1.53-.23-3.07-.45-4.61-.64-.42-.05-.58-.16-.57-.62,.03-2.56,.02-5.12,0-7.68,0-.37,.12-.53,.47-.62,.6-.15,1.18-.35,1.83-.54-.09-.59-.21-1.18-.26-1.77-.18-2.32-.34-4.64-.51-6.96-.03-.33,.1-.51,.39-.68,2.42-1.36,5.03-2.25,7.67-3.05,.22-.07,.46-.24,.59-.43C17.59,.33,25.05-.68,29.85,3.38c.21,.17,.4,.37,.59,.56,0,.2-.02,.41,.3,.3h0l.16,.19-.03,.03,.03-.02c.18,.32,.36,.64,.56,.94,.05,.07,.19,.08,.28,.11h0c.09,.17,.14,.45,.27,.5,.59,.22,1.2,.39,1.81,.56,.1,.03,.22-.02,.34-.04ZM24.65,1.95l-.35-.06-.34-.03h-.69l.3,.38-1.03-.05,.02-.35c-.5,.05-1,.06-1.49,.15-1.43,.26-2.75,.82-3.92,1.69-.06,.05-.07,.17-.1,.26l.65,.03v.11c-.25,.07-.53,.1-.77,.23-.34,.18-.79,.09-1.05,.47-.17,.25-.42,.46-.57,.72-.14,.25-.21,.54-.31,.82-.25,.5-.52,.99-.73,1.51-.08,.19-.11,.46-.05,.66,.21,.67,.49,1.32,.71,1.99,.13,.41,.36,.54,.75,.39,.19,.04,.55-.14,.47,.22l-.47,.31-.19,.09-.12,.08-.07,.33c-.05,.06-.13,.13-.13,.19,0,.7,0,1.41,0,2.11h.11l.15-1.75c-.02-.63,.33-.86,.9-.93,.48-.06,.95-.18,1.43-.28,.28-.06,.46-.02,.61,.27,.37,.7,.81,1.36,1.22,2.06l.12-.22,.11-.58h.11l.06,.07c.3,.88,.66,1.69,1.86,1.58-.3,.08-.56,.07-.82,.08-.12,0-.29,.02-.35,.1-.26,.33-.51,.68-.73,1.04-.08,.13-.08,.31-.12,.47l.05,.09c.13,.05,.26,.14,.39,.14,.13,0,.25-.1,.38-.16h4.43c.17,.06,.33,.15,.5,.18,.08,.01,.18-.09,.28-.14l.03-.17,.06-.5,.95,.73,.06-.06-.42-.85h-.27c-.1-.21-.17-.44-.31-.61-.24-.29-.16-.56,0-.82,.52-.85,1.04-1.71,1.58-2.54,.07-.11,.28-.19,.4-.17,.62,.09,1.24,.21,1.86,.35,.21,.05,.4,.19,.59,.28l.03-.12c.27-.16,.09-.27-.06-.33-.23-.09-.48-.16-.72-.2-.64-.11-1.27-.21-1.91-.31h-.01c-.1-.39-.28-.14-.4-.01-.14,.15-.26,.31-.49,.15-.01-.03,0-.05,.03-.06,.29-.05,.29-.51,.68-.44,.47,.09,.95,.11,1.41,.2,.4,.08,.78,.21,1.17,.31,.41,.11,.67,0,.82-.39,.23-.54,.46-1.07,.71-1.68l.15,.46s.01,.05-.01,.06l-.09,.04,.08,.05-.03,.08-.19,.49-.29,.72c-.27,.04-.42,.15-.24,.43v.17c-.04,.08-.1,.15-.09,.23,.02,.31,.05,.63,.09,.94,.07,.56,.16,1.12,.24,1.68l-.08,.7-.26,.65c-.26,.12-.73,.05-.76,.57l-.26,.27c.52,.07,.99,.13,1.46,.17,.05,0,.11-.11,.16-.17,.06-.1,.11-.2,.19-.28,.17-.18,.35-.35,.52-.53,.27,.39,.27-.11,.44-.12l.27,.14-.36,1.14c.6,.1,1.16,.16,1.71,.28,1.3,.28,2.6,.58,3.9,.88,.23,.05,.36,0,.4-.24,.06-.35,.11-.71,.18-1.06,.37-2.12,.44-4.27,.55-6.42,.01-.25-.04-.42-.29-.55-1.82-.96-3.74-1.67-5.69-2.3-.11-.04-.24-.03-.37-.04,0,.07-.02,.1-.01,.13,.02,.1,.04,.2,.08,.29,.8,2.04,.94,4.13,.48,6.25-.12,.56-.37,1.09-.57,1.63,0-.31-.25-.3-.45-.36,0-.1-.02-.21,.01-.3,.44-1.33,.52-2.7,.43-4.09-.02-.22,.08-.46,.04-.67-.14-.65-.34-1.28-.73-1.84l.12-.33c-.13-.02-.26-.04-.38-.05-.05,0-.11,.03-.16,.04-.18-.87-.64-1.59-1.2-2.25,0-.29-.1-.5-.42-.52l-.19-.33c-.09-.12-.14-.29-.26-.35-.28-.14-.59-.24-.89-.34-.35-.12-.71-.22-1.06-.34l.03-.09,.92,.06,.23-.05c-.92-.73-1.9-1.22-2.95-1.58l-.18-.05-.09-.03-.41-.11-.27-.07-.42-.08h0ZM13.43,15.33l.07,.3,.14-.28,.36,.66c.74-.52,.78-.61,.55-1.46,.08-1.04,.16-2.08,.23-3.12,0-.09-.04-.19-.08-.28-.19-.44-.39-.86-.56-1.3-.15-.36-.27-.74-.4-1.1h-.19c-.73,1.69-.68,3.43-.28,5.2l.04,.13,.04,.13-.04,.13c-.59,.18-.36,.71-.52,1.24l.63-.25Zm-2.07,1.9c.19,.33,.46,.41,.83,.3-.19-.42-.55-.26-.83-.3l1.93-.45c-1.51-3.08-1.6-6.2-.34-9.39-.18,.02-.27,0-.35,.03-1.95,.6-3.85,1.31-5.66,2.25-.32,.17-.43,.36-.41,.7,.1,1.49,.15,2.98,.28,4.46,.08,.94,.27,1.87,.41,2.8,.05,.32,.17,.45,.52,.34,.45-.14,.91-.25,1.38-.34,.74-.15,1.49-.27,2.24-.41Zm-1.75,8.99c.21,.49,.39,.89,.55,1.31,.3,.77,.3,.75,1.09,.58,1.67-.36,3.33-.75,5.01-1.04,1.34-.23,2.7-.44,4.06-.47,2.2-.04,4.4,.01,6.59,.13,2.76,.15,5.45,.74,8.11,1.49,.12,.03,.36-.05,.41-.15,.3-.58,.55-1.19,.86-1.86-8.92-1.91-17.75-1.92-26.66,0Zm2.67-5.71c.91-.85,.44-1.99-.48-2.13-.79-.12-1.6-.1-2.4-.11-.09,0-.26,.18-.26,.28-.02,1.42-.02,2.84,0,4.27,0,.1,.14,.27,.22,.28,.83,.02,1.67,.04,2.5-.01,.57-.04,.98-.48,1.11-1.05,.14-.66-.08-1.17-.67-1.52Zm7.37,.9c.21,0,.38,0,.55,0,.85,0,.84,0,.84,.86,0,.97-.15,.8,.85,.84,.34,.01,.46-.1,.45-.44-.02-1.03,0-2.07-.01-3.1,0-.89,0-.89-.91-.86-.03,0-.07-.01-.08,0-.1,.1-.27,.2-.28,.32-.03,.33,0,.66,0,.99,0,.11-.08,.31-.13,.31-.42,.03-.84,.01-1.27,.01,0-.3,0-.53,0-.75,0-1.02,.18-.84-.89-.88-.34-.01-.45,.12-.44,.45,.03,1.02,.03,2.04,.04,3.06,.01,1.01-.21,.87,.97,.89,.25,0,.32-.1,.31-.34-.01-.43,0-.86,0-1.36Zm4.71,1c.39,0,.77,.02,1.14,0,.28-.02,.43,.09,.46,.37,.03,.33,.22,.44,.53,.41,.17-.01,.34,0,.52,0,.28,0,.37-.12,.28-.38-.44-1.28-.87-2.55-1.33-3.82-.04-.11-.2-.23-.32-.25-.25-.04-.51,.02-.76-.02-.38-.06-.59,.08-.71,.44-.21,.64-.44,1.28-.66,1.91-.2,.55-.4,1.1-.61,1.65-.12,.32-.05,.48,.33,.47,.85,0,.85,0,1.13-.78Zm7.24,0c.39,0,.75,.02,1.1,0,.32-.02,.49,.09,.52,.41,.03,.28,.19,.4,.47,.37,.13-.01,.26,0,.39,0,.54,0,.57-.05,.4-.55-.4-1.15-.8-2.31-1.18-3.47-.11-.33-.21-.54-.63-.41-.17,.06-.39-.03-.59-.06-.31-.04-.51,.03-.62,.37-.2,.66-.45,1.3-.68,1.95-.2,.57-.42,1.13-.62,1.7-.06,.18-.17,.4,.17,.45,.77,.13,1.04-.02,1.28-.77Zm-14.49,.78c.16,0,.25,0,.33,0,.34,.02,.44-.11,.32-.44-.44-1.25-.85-2.5-1.29-3.74-.04-.12-.22-.25-.35-.27-.26-.05-.54-.05-.8-.01-.2,.03-.51,.11-.56,.25-.49,1.27-.93,2.56-1.39,3.84-.09,.25,0,.39,.28,.38,.23-.01,.46,.01,.67-.03,.14-.03,.35-.15,.36-.25,.05-.49,.36-.54,.75-.5,.23,.02,.46-.02,.69,.02,.11,.02,.28,.13,.29,.21,.06,.48,.32,.64,.7,.55Zm19.72-4.57c-.2,0-.3,0-.4,.02-.7,.08-1.22,.58-1.3,1.24-.08,.63,.2,1.04,.92,1.33,.23,.09,.48,.13,.68,.26,.13,.08,.29,.32,.26,.42-.05,.14-.28,.33-.42,.32-.25-.03-.52-.14-.72-.3-.26-.21-.43-.2-.58,.08-.14,.27-.56,.5-.09,.86,.65,.49,1.36,.48,2.07,.28,.65-.18,.99-.79,.96-1.52-.03-.65-.32-.97-1.05-1.17-.21-.06-.42-.12-.6-.22-.09-.05-.18-.2-.17-.29,.01-.09,.16-.24,.24-.23,.23,.02,.46,.12,.69,.15,.13,.02,.33,.03,.39-.05,.44-.54,.32-.87-.35-1.05-.21-.06-.42-.08-.54-.1Zm-7.51,2.93h0c0-.37,.02-.75,0-1.12-.03-.41,.07-.63,.54-.54,.29,.06,.47-.06,.43-.4-.02-.14,.02-.3-.03-.43-.05-.11-.18-.27-.28-.27-.86-.02-1.72-.02-2.58-.01-.1,0-.29,.06-.29,.11-.03,.3-.05,.61,.01,.89,.02,.08,.35,.12,.53,.11,.31-.01,.39,.11,.38,.4-.02,.66,0,1.32,0,1.98,0,.95,0,.94,.95,.88,.25-.02,.36-.1,.35-.36-.02-.42,0-.83,0-1.25Zm-13.35-5.06c-1.02-.84-1.41-.79-1.64,.19l1.64-.19Zm-2.27-.1l.07-.18-.38-.24-.12,.29,.43,.13Zm-.39,17.96l-.03,.14c.08,.02,.15,.04,.23,.04,.02,0,.03-.09,.05-.14l-.24-.04Zm-.21-18.53s.03-.05,.03-.07c0-.02-.04-.02-.06-.03,0,.02-.03,.05-.03,.07,0,.02,.04,.02,.06,.03ZM31.7,6.81s-.01-.06-.03-.06c-.02,0-.04,.01-.07,.02,0,.02,.01,.06,.03,.06,.02,0,.04-.01,.07-.02Z" fill="#213e76"/><path d="M13.26,32.93c0-.29-.12-.39-.4-.26-.2,.09-.42,.16-.63,.21-.04,0-.11-.12-.17-.18,.12-.04,.24-.08,.37-.11,2.39-.6,4.81-1,7.27-1.17,4.83-.34,9.59,.07,14.27,1.3,.63,.17,1.27,.32,1.91,.47l.18,.1-.09,.34-.07,.28-1.46,.39,3.15,.84c0-1.09,0-2.1,0-3.12q0-1.17-1.16-1.4l-.1-.79h.08c.09,.09,.17,.22,.27,.26,.36,.13,.75,.21,1.1,.36,.14,.06,.31,.27,.31,.42,.02,1.5,.02,2.99,0,4.49,0,.43-.11,.48-.55,.37-1.4-.37-2.81-.72-4.21-1.1-.22-.06-.35-.02-.49,.18-2.57,3.64-5.68,6.77-9.14,9.57-.77,.62-.8,.64-1.54-.01-1.57-1.39-3.11-2.81-4.66-4.22-.08-.07-.14-.18-.2-.27,.29-.01,.57,0,.86-.04,.1-.01,.27-.11,.27-.17,0-.15-.09-.43-.13-.43-.48,.03-.63-.43-.92-.64-.33-.24-.76-.41-.87-.91-.05-.25-.21-.45-.54-.46-.09,0-.23-.2-.26-.33-.08-.31-.22-.45-.5-.35l-.7-1.65-.43,.33c-.38-.41-.42-.66-.07-1.07-.29-.16-.56-.32-.84-.46-.2-.1-.19-.46,.04-.66l.4,.5v-.63l-.32,.04Zm13.47,2.69h0c.02-.98,.05-1.97,.07-2.96,.01-.61,0-.57-.62-.69-.45-.09-.52,.08-.51,.46,.01,1.32,0,2.64,0,3.96l.03,.36c-.03,.17-.08,.34-.09,.5,0,1.12,0,2.24,0,3.36,0,.12,.03,.24,.06,.45,.35-.3,.65-.51,.89-.78,.13-.14,.22-.37,.23-.57,.02-.7,0-1.41,0-2.11l.23,.07h0l.41,.12c-.11-.52-.07-.96,.39-1.24v2.28c.43-.32,.75-.65,1.05-1,.07-.08,.1-.21,.1-.32,0-1.62,.01-3.25,0-4.87,0-.38-.28-.53-.87-.49-.35,.02-.25,.29-.25,.49-.02,1.25-.02,2.5-.03,3.75-.51,.01-.88-.2-1.03-.71l-.06-.08Zm-7.59,0l-.07,.08c-.14,.53-.52,.71-1.03,.7v-4.26c-.23,.03-.37,.05-.51,.07q-.63,.1-.63,.77c0,1.35,.06,2.71-.02,4.05-.06,.9,.61,1.23,1.02,1.78l.15-.03c0-.74,0-1.48,0-2.21,.49,.27,.48,.72,.4,1.21l.71-.19c-.03,.64-.06,1.28-.08,1.91-.01,.57,.48,1.21,1.1,1.43v-4.2l.02-.35c0-1.33,0-2.67,0-4,0-.14-.04-.38-.08-.39-.28-.02-.57-.03-.84,.03-.1,.02-.19,.27-.19,.42,0,1.06,.04,2.12,.07,3.18h0Zm4.42,4.34c-.15,.97-.12,1.93-.04,3.02,.35-.28,.61-.46,.82-.68,.12-.12,.24-.31,.24-.47,.01-1.18,0-2.35-.01-3.53l.02-.36c0-1.88,0-3.77,.01-5.65,0-.3-.09-.43-.4-.39-.08,.01-.17,.01-.26,0-.37-.05-.5,.08-.49,.47,.02,1.51,.01,3.02,0,4.53,0,.16-.06,.33-.09,.49l-.4-.63c-.09,.13-.17,.21-.21,.31-.19,.52-.56,.8-1.12,.82-.08,0-.16,.04-.25,.06-.26,.06-.19,.19-.07,.33-.01,1.06-.03,2.12-.04,3.18,0,.67,.42,1.23,1.11,1.46v-3.01c.37-.3,.76-.26,1.15-.03l.02,.09Zm6.49-3.5c.22-.24,.38-.39,.5-.56,.23-.32,.57-.64,.63-1,.1-.63,.04-1.29,.01-1.93,0-.12-.14-.32-.25-.35-.27-.07-.56-.06-.84-.07-.02,0-.07,.09-.07,.14,0,1.21,0,2.43,0,3.76Zm-14.3-.06c.05-.11,.08-.15,.08-.19,.01-1.15,.03-2.3,.01-3.44,0-.09-.19-.25-.3-.25-.75-.03-.87,.1-.87,.85,0,.26-.02,.52,0,.78,.03,.36,0,.77,.16,1.07,.22,.42,.58,.77,.92,1.19Zm16.55-3.55v.64l.08,.02,.31-.52-.39-.14Zm3.39,.83s-.08-.08-.11-.09c-.02,0-.05,.02-.07,.03,.02,.03,.02,.08,.05,.09,.03,.01,.07-.01,.13-.02Z" fill="#1b4780"/><path d="M36.09,39.15c.03,.21,.07,.41,.1,.62l-.22,.14,.19,.24v.52c-.43,.24-.23,.68-.32,1.02l.2,.05c-.18,.31-.31,.67-.54,.94-.89,1.05-2.02,1.82-3.24,2.43-.77,.38-1.59,.68-2.39,1.01-.09,.04-.19,.02-.29,.03-.24-.08-.47-.18-.71-.24-.92-.24-1.84-.46-2.76-.72-.35-.1-.68-.31-.94-.43l.08-.51c.27-.25,.55-.49,.82-.74,.1,.02,.2,.04,.31,.05,.22,.35,.57,.46,.94,.43,1-.1,2.01-.22,3-.36,.27-.04,.54-.18,.8-.29,.27-.12,.53-.26,.8-.38,.33-.16,.77-.22,.98-.48,.42-.51,.85-.97,1.34-1.42,.52-.48,.87-1.14,1.29-1.72l.45,.26,.1-.44Z" fill="#323232"/><path d="M10.86,35.98c-.09,.25-.17,.5-.26,.75-.07,.19-.17,.38-.25,.54l-.89,.05-.68-.03c-.08-.3-.29-.2-.49-.17h-.22l-.26-.13-.16-.05-.74-.26s-.04-.02-.04-.05c-.19-.16-.34-.43-.66-.26l-.64-.49c-.07-.13-.14-.26-.23-.37-.18-.23-.41-.43-.55-.68-.47-.83-.79-1.71-.91-2.68-.1-.83-.39-1.64-.55-2.47-.07-.37-.06-.77-.08-1.15,.45,.09,.91,.14,1.33,.29,.19,.07,.33,.34,.44,.54,.29,.51,.55,1.04,.84,1.55,.05,.09,.16,.16,.26,.2,.55,.22,.73,.48,.74,1.05,.02,1.13,.05,2.27,.08,3.4,.02,.83,.67,1.26,1.5,1.03,.8-.22,1.6-.42,2.4-.62Z" fill="#d4d3d9"/><path d="M36.09,39.15l-.1,.44-.45-.26h-.69c-.4,.18-.8,.36-1.19,.55-.93,.45-1.9,.84-2.78,1.38-.42,.25-.83,.4-1.28,.52-.28,.08-.56,.23-.84,.26-.33,.03-.66-.04-.99-.06,1.1-1.17,2.2-2.33,3.29-3.51,.47-.51,.92-1.06,1.38-1.59,.1,.02,.2,.04,.31,.06,.07-.05,.14-.09,.21-.14,.16,0,.32-.02,.49-.02,.13-.06,.27-.12,.4-.17l.25-.04,.27-.15,.25-.03,.15-.11,.28-.04,.3,.34,.05,.16,.13,.18,.06,.24,.14,.44,.4,1.54Z" fill="#0a0b0d"/><path d="M11.36,37.78l-.36-.79,.34-.15-.12-.07c.08-.21,.17-.42,.24-.63,.04-.12,.05-.24,.08-.37,1.02-.23,.81-.3,1.36,.38,1.06,1.3,2.14,2.58,3.21,3.87-.66,.21-1.27,.01-1.86-.25-.18-.08-.36-.19-.55-.25-.66-.2-.97-.82-1.49-1.19-.28-.19-.57-.37-.85-.56h0Z" fill="#d4d3d9"/><path d="M3.25,28.54c.02,.38,0,.78,.08,1.15,.17,.83,.45,1.64,.55,2.47,.12,.97,.44,1.84,.91,2.68,.14,.25,.37,.45,.55,.68,.09,.11,.15,.25,.23,.37-.26-.05-.3,.09-.3,.31,0,.9,.23,1.75,.51,2.6-.02,.06-.05,.11-.07,.17v.02c-.09-.15-.19-.29-.28-.44l-.13-.26-.3-.37-.02-.13-.28-.56c-.06-.16-.13-.33-.19-.49-.33-.86-.66-1.71-1-2.57-.03-.18-.05-.37-.08-.55-.21-1.13-.46-2.26-.61-3.4-.1-.74-.03-1.51-.04-2.26l.02-.48h0l.17-.05,.27,1.12Z" fill="#9a9b9c"/><path d="M27.75,41.99c.33,.03,.67,.1,.99,.06,.29-.03,.56-.18,.84-.26,.45-.12,.86-.27,1.28-.52,.88-.54,1.85-.93,2.78-1.38,.39-.19,.79-.37,1.19-.55v.17l-.26,.18c-.11,.07-.22,.14-.32,.22-.1,.08-.18,.22-.28,.24-.48,.1-.63,.49-.84,.85-.08,.14-.23,.25-.37,.33-.26,.16-.55,.28-.81,.43-.33,.19-.63,.41-.97,.58-.37,.19-.77,.32-1.16,.48-.3,.12-.64,.39-.88,.32-.3-.08-.51-.03-.77,.03-.32,.07-.66,.31-.92-.11-.21,.4-.34,.4-.7,.04l1.21-1.12Z" fill="#101317"/><path d="M26.54,43.11c.36,.35,.5,.35,.7-.04,.26,.42,.61,.18,.92,.11,.26-.06,.48-.11,.77-.03,.25,.07,.59-.2,.88-.32,.39-.16,.78-.3,1.16-.48,.34-.17,.64-.39,.97-.58,.27-.15,.55-.28,.81-.43,.14-.09,.3-.19,.37-.33,.2-.36,.36-.75,.84-.85,.11-.02,.18-.17,.28-.24,.1-.08,.22-.15,.32-.22-.09,.16-.19,.31-.27,.47-.36,.67-.77,1.29-1.5,1.64-.26,.13-.44,.4-.66,.59-.14,.12-.28,.26-.45,.3-.61,.13-1.21,.27-1.71,.68-.11,.09-.26,.18-.39,.16-1.04-.13-2.08,.32-3.12-.03-.02,0-.07,.04-.1,.07-.1-.02-.2-.04-.31-.05,.16-.13,.31-.26,.47-.4Z" fill="#11141e"/><path d="M41.67,27.68c.06-.11,.16-.23,.16-.34,0-2.57,0-5.14,.01-7.71,0-.38-.23-.57-.51-.66-.5-.16-1.03-.24-1.55-.38-.1-.03-.26-.17-.25-.23,.04-.21,.15-.41,.23-.62,0,.65,0,.65,.66,.84,.29,.08,.57,.18,.86,.27q.71,.23,.71,.98c0,2.5,0,5,0,7.5,0,.32-.09,.44-.42,.5-1.74,.32-3.47,.67-5.2,1.02l.17-.24c.38-.06,.76-.1,1.13-.18,.42-.08,.84-.2,1.26-.3,.34-.08,.68-.14,1.03-.2,.41-.07,.83-.13,1.25-.19l.44-.09Z" fill="#1b4780"/><path d="M25.25,44.24l-.08,.51c.26,.12,.58,.33,.94,.43,.91,.27,1.84,.48,2.76,.72,.24,.06,.47,.16,.71,.24-.68,.26-1.31-.03-1.95-.2-.69-.18-1.38-.39-2.07-.6-.37-.12-.74-.27-1.11-.41l.8-.7Z" fill="#0e1725"/><path d="M40.44,10.66c-.05-.29-.17-.58-.14-.86,.04-.45-.19-.67-.52-.83-.45-.22-.96-.33-1.37-.61-.84-.58-1.84-.78-2.73-1.22-.27-.13-.58-.24-.87-.26-.29-.02-.45-.13-.56-.37,1.42,.54,2.85,1.06,4.25,1.63,.6,.24,1.16,.57,1.71,.9,.14,.08,.26,.3,.27,.46,.03,.38-.02,.77-.04,1.15Z" fill="#1b4780"/><path d="M10.62,35.03c-.21-.33,.3-.09,.22-.32l-.34-.13,.7-.37,.32-.03,.03,.1-.42,.39,1.66-.25c.02-.06,.06-.16,.11-.25,0,0,.11,.04,.17,.06l-.17,.35-2.28,.44Z" fill="#1b4780"/><path d="M40.19,14.72c-.02-.09-.07-.19-.07-.28,.05-1.06,.1-2.11,.17-3.16,0-.15,.09-.29,.14-.44l-.24,3.88Z" fill="#1b4780"/><path d="M34.16,6.5c-.11,.01-.23,.06-.34,.04-.61-.17-1.22-.33-1.81-.56-.13-.05-.18-.33-.27-.5,.23,.31,.56,.44,.92,.54,.5,.14,1,.32,1.49,.48Z" fill="#1b4780"/><path d="M13.63,35.62l.91,.14c-.36,.38-.13,.64,.16,.9,.04,.04-.02,.19-.03,.28l-1.03-1.32Z" fill="#1b4780"/><path d="M16.53,39.1q.66-.09,1.02,.21c-.09,.19-.18,.38-.27,.57-.25-.26-.5-.52-.75-.77Z" fill="#1b4780"/><path d="M39.86,17.19c.03-.66,.04-1.31,.09-1.97,0-.09,.14-.16,.21-.24l-.3,2.21Z" fill="#1b4780"/><path d="M15.1,37.46c.3,.24,.63,.46,.9,.74,.15,.15,.19,.41,.27,.62l-1.17-1.36Z" fill="#1b4780"/><path d="M31.75,5.48c-.1-.04-.24-.04-.28-.11-.2-.3-.38-.63-.56-.94,.28,.35,.56,.7,.84,1.06Z" fill="#1b4780"/><path d="M36.57,28.63l-.17,.24c0,.32-.01,.64-.02,.97h-.08v-.35l-.08-.35c.02-.24-.11-.57,.35-.52Z" fill="#21386e"/><path d="M12.93,34.67c.4,0,.5,.21,.41,.56l-.41-.56Z" fill="#1b4780"/><path d="M30.74,4.23c-.32,.11-.3-.1-.3-.3l.3,.3Z" fill="#1b4780"/><path d="M39.77,17.75l.1-.52-.1,.52Z" fill="#1b4780"/><path d="M13.39,35.27l.2,.29-.2-.29Z" fill="#1b4780"/><path d="M30.91,4.42l-.16-.18,.16,.18Z" fill="#1b4780"/><path d="M27.78,1.06l.17,.08-.17-.08Z" fill="#4480c2"/><path d="M3.02,26.12v-.09s.02,.04,.03,.06c0,0-.02,.02-.03,.02Z" fill="#d4d3d9"/><path d="M15,37.35l.07,.08-.07-.08Z" fill="#1b4780"/><path d="M42.35,28.54l-.1,.03,.1-.03Z" fill="#9a9b9c"/><path d="M2.82,27.47h0l-.08-.04,.08,.04Z" fill="#28a4dd"/><path d="M13.69,45.37c-.56,.23-.98-.13-1.36-.4-1.27-.91-2.57-1.79-3.74-2.83-.75-.67-1.27-1.6-1.9-2.41-.06-.08-.12-.15-.18-.22-.02-.07-.03-.14-.06-.21-.3-.71-.58-1.44-.67-2.21-.02-.15,.02-.3,.03-.45,.13,.02,.27,.02,.39,.07,.48,.2,.96,.42,1.44,.64,.04,.09,.05,.23,.11,.27,.45,.24,.54,.62,.5,1.09,0,.09,.03,.2,.07,.29,.34,.66,.66,1.33,1.04,1.96,.21,.35,.53,.65,.79,.97,.08,.11,.13,.25,.24,.33,.37,.27,.76,.51,1.15,.76,.26,.17,.52,.34,.79,.48,.24,.12,.51,.19,.74,.32,.51,.28,1.03,.23,1.56,.09,.49,.21,0,.5,.04,.76l.42-.13-.35,.33c-.51-.16-.75,.25-1.06,.51Z" fill="#323232"/><path d="M15.1,44.53l-.42,.13c-.04-.25,.45-.55-.04-.76l-.26-.34c-.04-.07-.07-.15-.12-.22-.18-.24-.47-.14-.7-.24-.64-.27-1.28-.54-1.91-.84-.41-.2-.93-.33-1.1-.79-.21-.55-.44-1.06-.81-1.54-.45-.58-.54-1.37-1.19-1.89-.3-.24-.57-.51-.92-.69-.48-.21-.96-.43-1.44-.64-.12-.05-.26-.05-.39-.07-.01,.15-.04,.3-.03,.45,.09,.78,.37,1.5,.67,2.21,.03,.06,.04,.14,.06,.21-.11-.11-.22-.23-.34-.34-.13-.12-.26-.25-.39-.37-.28-.84-.51-1.7-.51-2.6,0-.22,.03-.36,.3-.31l.64,.49,.66,.26s.02,.04,.04,.05l.74,.26,.16,.05,.26,.12h.22l.49,.18,.68,.03c.13,.05,.26,.14,.38,.13,.52-.05,.74,.24,.95,.67,.97,1.96,2.18,3.74,3.84,5.2l.21,.14,.68,.43v.23l-.43,.42Z" fill="#101317"/><path d="M13.69,45.37c.31-.26,.54-.67,1.06-.51l-1.04,.72v-.21Z" fill="#101317"/><path d="M36.03,41.74l-.2-.05c.1-.34-.11-.78,.33-1.02l.04,.21c-.05,.2-.09,.4-.14,.61l-.04,.25Z" fill="#0a0b0d"/><path d="M35.69,43.25c-.18,.16-.36,.31-.54,.47,.18-.16,.36-.31,.54-.47Z" fill="#0a1b33"/><path d="M36.07,41.49c.05-.2,.09-.4,.14-.61-.05,.2-.09,.4-.14,.61Z" fill="#323232"/><path d="M26.39,47.92l-.52,.12,.52-.12Z" fill="#323232"/><path d="M35.31,36.58l-.3-.34c.26-.03,.35,.1,.3,.34Z" fill="#323232"/><path d="M35.69,37.61l-.14-.44,.14,.44Z" fill="#323232"/><path d="M33.82,36.61c-.13,.06-.27,.12-.4,.17,.13-.06,.27-.12,.4-.17Z" fill="#323232"/><path d="M27.16,47.74l-.43,.13,.43-.13Z" fill="#323232"/><path d="M34.93,43.87l-.36,.3,.36-.3Z" fill="#0a1b33"/><path d="M36.16,40.15l-.19-.24,.22-.14c-.01,.13-.02,.25-.03,.38Z" fill="#0a0b0d"/><path d="M33.29,45.12c-.13,.08-.26,.16-.39,.24,.13-.08,.26-.16,.39-.24Z" fill="#0a1b33"/><path d="M34.33,36.42l-.27,.15,.27-.15Z" fill="#323232"/><path d="M34.73,36.28l-.15,.11,.15-.11Z" fill="#323232"/><path d="M32.93,36.81c-.07,.05-.14,.09-.21,.14,.07-.05,.14-.09,.21-.14Z" fill="#323232"/><path d="M35.49,36.93l-.13-.18,.13,.18Z" fill="#323232"/><path d="M13.34,45.74c.08-.01,.15-.03,.23-.04-.08,.02-.15,.03-.23,.04Z" fill="#323232"/><path d="M36.99,41.89l-.18,.19,.18-.19Z" fill="#0a1b33"/><path d="M27.85,47.55c-.07,.04-.15,.08-.22,.11,.07-.04,.15-.08,.22-.11Z" fill="#323232"/><path d="M35.88,43.04l-.18,.17,.18-.17Z" fill="#0a1b33"/><path d="M14.85,43.45l-.21-.14,.21,.14Z" fill="#323232"/><path d="M15.53,44.11v-.23l.13,.09-.13,.15Z" fill="#323232"/><path d="M28.45,47.37c-.07,.04-.15,.08-.22,.12,.07-.04,.15-.08,.22-.12Z" fill="#323232"/><path d="M33.62,44.9l-.17,.11,.17-.11Z" fill="#0a1b33"/><path d="M11.36,37.78l-.1,.13-.03-.03,.13-.1h0Z" fill="#d4d3d9"/><path d="M6.01,39.33l-.08-.16,.08,.16Z" fill="#1f3261"/><path d="M35.87,33.19c-.64-.16-1.28-.31-1.91-.47-4.68-1.24-9.44-1.65-14.27-1.3-2.45,.17-4.88,.57-7.27,1.17-.12,.03-.25,.08-.37,.11-.44,.14-.87,.28-1.31,.4-.24,.07-.49,.08-.75,.12,0-1.3,.01-2.54,0-3.79,0-.31,.09-.45,.39-.54,5.59-1.68,11.28-2.24,17.09-1.62,2.65,.28,5.25,.81,7.81,1.56,.08,.02,.17,.03,.25,.05l.32,.12h0c0,1.39,.02,2.78,.03,4.18Zm-13.63-3.09c-.17-.2-.08-.31,.14-.33,.16-.02,.33,0,.51,0v-.44q-.67-.05-.56-.37h.6v-.47h-1.27v2.09h1.26v-.47h-.68Zm-4.47-.6l.1-.04c.19,.27,.41,.52,.58,.8,.2,.34,.46,.44,.84,.3v-2.04h-.59v1.24c-.26-.38-.48-.64-.65-.93-.21-.35-.47-.4-.82-.27v2.04h.55v-1.09Zm10.08,0c0-.2,.02-.4,0-.6-.03-.31-.21-.51-.52-.6-.34-.1-.64-.11-.88,.21-.34,.44-.33,1.47,0,1.91,.25,.33,.62,.39,.92,.24,.22-.1,.35-.43,.47-.69,.06-.13,.01-.31,.01-.47Zm-12.02-.62c.25-.41,.19-.55-.27-.61-.14-.02-.29-.02-.43,0-.35,.06-.56,.27-.62,.62-.05,.35,.1,.58,.43,.7,.12,.04,.26,.06,.36,.14,.09,.08,.13,.21,.19,.32-.11,.04-.24,.13-.33,.11-.16-.04-.3-.15-.55-.29-.04,.23-.15,.46-.08,.59,.13,.24,.83,.32,1.13,.18,.34-.17,.5-.45,.48-.84-.02-.42-.31-.53-.64-.63-.14-.04-.25-.17-.38-.26l.07-.15,.64,.1Zm12.37,.29c.26-.05,.56,.14,.66-.27,.01-.05,.24-.11,.32-.07,.07,.04,.12,.23,.08,.32-.07,.17-.21,.31-.33,.45-.26,.31-.53,.62-.84,.98h1.83l-.03-.47-.62-.03c.34-.49,.97-.88,.47-1.54-.27-.36-.69-.34-1.07-.22-.35,.12-.55,.4-.48,.85Zm-4.05-.02c.28,0,.56,.12,.66-.26,.01-.05,.25-.1,.32-.06,.07,.04,.11,.24,.07,.32-.09,.18-.23,.33-.36,.48-.25,.3-.5,.6-.79,.94h1.8v-.47l-.61-.03c.33-.5,.99-.9,.44-1.56-.28-.34-.7-.32-1.07-.18-.33,.13-.52,.39-.45,.81Zm7.55,1.44c.14-.23,.26-.37,.32-.54,.05-.12,.07-.37,.03-.39-.33-.13-.19-.41-.21-.62-.02-.24,0-.48,0-.71-.53-.16-.9-.08-1.12,.44-.08,.21-.27,.38-.36,.58-.1,.21-.14,.45-.23,.75h1.08l.06,.48h.44Zm-10.34-1.63c-.07-.12-.14-.42-.3-.48-.59-.19-1.2,.19-1.33,.77-.16,.66,.17,1.25,.78,1.42,.57,.16,.88-.15,.78-.6-.32-.07-.67-.04-.83-.2-.13-.13-.13-.58,0-.71,.16-.16,.51-.13,.9-.21Zm-4.86-.45v2.07h.54v-2.07h-.54Z" fill="#f1f3f5"/><path d="M11.36,17.23c-.75,.13-1.49,.26-2.24,.41-.46,.09-.93,.2-1.38,.34-.35,.11-.48-.02-.52-.34-.14-.93-.33-1.87-.41-2.8-.13-1.49-.18-2.98-.28-4.46-.02-.34,.09-.54,.41-.7,1.81-.94,3.72-1.65,5.66-2.25,.08-.02,.16-.02,.35-.03-1.26,3.2-1.16,6.31,.34,9.39l-1.93,.45h0Z" fill="#28a4dd"/><path d="M32.96,15.69c.19-.54,.45-1.07,.57-1.63,.46-2.13,.32-4.22-.48-6.25-.04-.09-.06-.19-.08-.29,0-.03,0-.06,.01-.13,.12,.01,.25,0,.37,.04,1.95,.63,3.87,1.35,5.69,2.3,.25,.13,.31,.3,.29,.55-.1,2.15-.18,4.3-.55,6.42-.06,.35-.12,.71-.18,1.06-.04,.24-.17,.29-.4,.24-1.3-.3-2.59-.6-3.9-.88-.55-.12-1.12-.19-1.71-.28,.13-.42,.25-.78,.36-1.14h0Z" fill="#28a4dd"/><path d="M9.61,26.21c8.92-1.93,17.74-1.92,26.66,0-.3,.67-.56,1.28-.86,1.86-.05,.1-.29,.18-.41,.15-2.66-.75-5.35-1.34-8.11-1.49-2.19-.12-4.39-.18-6.59-.13-1.36,.03-2.72,.24-4.06,.47-1.68,.29-3.34,.67-5.01,1.04-.79,.17-.79,.18-1.09-.58-.16-.41-.34-.82-.55-1.31Z" fill="#28a4dd"/><path d="M26.88,10.93s-.04,.03-.03,.06c-.56,.92-1.1,1.85-1.68,2.75-.11,.17-.37,.34-.57,.34-1.13,.03-2.26,.03-3.4,0-.16,0-.36-.14-.48-.28-.26-.31-.49-.66-.72-1l-.06-.08s0-.05-.03-.07l-.07-.1-.1-.19s0-.05-.04-.06l-.23-.43-.18-.34c-.08-.18-.14-.37-.25-.53-.23-.33-.24-.63,0-.98,.58-.88,1.12-1.79,1.69-2.68,.15-.24,.36-.43,.54-.65h3.38l.02,.03h.03l.28,.34h0c.6,.98,1.19,1.96,1.81,2.92,.2,.32,.28,.61,.08,.95Z" fill="#f1f3f5"/><path d="M15.68,10.84c-.4,.15-.62,.02-.75-.39-.22-.67-.5-1.32-.71-1.99-.06-.2-.03-.46,.05-.66,.22-.51,.48-1.01,.73-1.51,.09-.13,.18-.25,.27-.38,.37-.52,.66-1.14,1.34-1.32,.95-.25,1.91-.44,2.87-.66h0l1.23,2.41v.18c-.74,1.14-1.49,2.28-2.2,3.43-.14,.23-.29,.34-.55,.39-.76,.15-1.51,.33-2.26,.49Z" fill="#f1f3f5"/><path d="M12.28,20.51c.58,.35,.81,.86,.67,1.52-.12,.57-.54,1.01-1.11,1.05-.83,.05-1.67,.03-2.5,.01-.08,0-.22-.18-.22-.28-.01-1.42-.01-2.84,0-4.27,0-.1,.17-.28,.26-.28,.8,.01,1.61,0,2.4,.11,.93,.14,1.39,1.27,.48,2.13Zm-1.95,.69c.11,.35,.13,.78,.27,.82,.24,.08,.57-.06,.83-.17,.07-.03,.11-.34,.04-.45-.26-.39-.65-.19-1.15-.21Zm.09-1.37c-.06,.25,.06,.37,.34,.35,.3-.02,.59-.06,.59-.45,0-.41-.35-.33-.59-.37-.34-.05-.36,.18-.34,.47Z" fill="#f1f3f5"/><path d="M19.65,21.41c0,.5-.01,.93,0,1.36,0,.24-.06,.34-.31,.34-1.19-.02-.96,.12-.97-.89-.01-1.02-.02-2.04-.04-3.06,0-.34,.09-.46,.44-.45,1.06,.04,.88-.14,.89,.88,0,.23,0,.46,0,.75,.43,0,.85,.01,1.27-.01,.05,0,.13-.2,.13-.31,.01-.33-.03-.66,0-.99,.01-.11,.18-.22,.28-.32,.01-.01,.06,0,.08,0,.91-.03,.91-.03,.91,.86,0,1.03,0,2.07,.01,3.1,0,.34-.12,.45-.45,.44-1-.03-.85,.13-.85-.84,0-.86,0-.86-.84-.86-.17,0-.34,0-.55,0Z" fill="#f1f3f5"/><path d="M24.36,22.41c-.28,.79-.28,.78-1.13,.78-.38,0-.45-.15-.33-.47,.2-.55,.41-1.1,.61-1.65,.23-.64,.46-1.27,.66-1.91,.12-.36,.33-.5,.71-.44,.25,.04,.51-.02,.76,.02,.12,.02,.28,.14,.32,.25,.45,1.27,.89,2.55,1.33,3.82,.09,.26,0,.39-.28,.38-.17,0-.35-.01-.52,0-.31,.03-.5-.09-.53-.41-.02-.28-.17-.39-.46-.37-.37,.02-.75,0-1.14,0Zm.79-2.35l-.12,.02-.39,1.34h.94l-.43-1.36Z" fill="#f1f3f5"/><path d="M31.6,22.41c-.24,.75-.51,.9-1.28,.77-.34-.06-.23-.27-.17-.45,.2-.57,.41-1.13,.62-1.7,.23-.65,.48-1.29,.68-1.95,.11-.34,.31-.41,.62-.37,.2,.02,.42,.11,.59,.06,.42-.13,.52,.08,.63,.41,.38,1.16,.78,2.31,1.18,3.47,.17,.5,.14,.55-.4,.55-.13,0-.26-.01-.39,0-.28,.02-.44-.09-.47-.37-.03-.32-.2-.43-.52-.41-.36,.03-.72,0-1.1,0Zm.81-2.34h-.12l-.41,1.36h.95l-.42-1.36Z" fill="#f1f3f5"/><path d="M17.11,23.19c-.38,.09-.64-.07-.7-.55-.01-.09-.18-.2-.29-.21-.23-.03-.46,0-.69-.02-.4-.04-.7,0-.75,.5-.01,.1-.22,.22-.36,.25-.22,.05-.45,.02-.67,.03-.29,.01-.36-.13-.28-.38,.45-1.28,.9-2.57,1.39-3.84,.05-.14,.36-.22,.56-.25,.26-.04,.54-.03,.8,.01,.13,.02,.3,.15,.35,.27,.44,1.24,.86,2.5,1.29,3.74,.12,.33,.02,.46-.32,.44-.09,0-.17,0-.33,0Zm-1.45-3.13h-.12l-.41,1.37h.94l-.42-1.37Z" fill="#f1f3f5"/><path d="M36.83,18.62c.12,.02,.33,.04,.54,.1,.67,.18,.79,.51,.35,1.05-.06,.08-.26,.07-.39,.05-.23-.03-.46-.13-.69-.15-.08,0-.22,.14-.24,.23-.01,.09,.08,.24,.17,.29,.19,.1,.4,.17,.6,.22,.73,.2,1.02,.52,1.05,1.17,.03,.73-.31,1.34-.96,1.52-.71,.2-1.43,.22-2.07-.28-.47-.36-.05-.59,.09-.86,.15-.28,.32-.29,.58-.08,.2,.16,.47,.28,.72,.3,.13,.02,.36-.17,.42-.32,.04-.1-.13-.33-.26-.42-.2-.13-.45-.17-.68-.26-.71-.29-1-.7-.92-1.33,.08-.66,.6-1.16,1.3-1.24,.1-.01,.2-.01,.4-.02Z" fill="#f1f3f5"/><path d="M29.32,21.55c0,.42-.01,.83,0,1.25,.01,.27-.1,.35-.35,.36-.95,.06-.95,.07-.95-.88,0-.66-.01-1.32,0-1.98,0-.3-.07-.42-.38-.4-.18,0-.52-.04-.53-.11-.06-.28-.04-.59-.01-.89,0-.05,.19-.11,.29-.11,.86,0,1.72,0,2.58,.01,.1,0,.23,.16,.28,.27,.05,.12,.01,.28,.03,.43,.04,.34-.14,.46-.43,.4-.48-.1-.57,.13-.54,.54,.02,.37,0,.75,0,1.12h0Z" fill="#f1f3f5"/><path d="M13.35,14.21l-.04-.13-.04-.13c-.4-1.77-.45-3.51,.28-5.19h.19c.13,.36,.25,.73,.4,1.09,.18,.44,.38,.87,.56,1.3,.04,.09,.08,.19,.08,.28-.07,1.04-.15,2.08-.23,3.12l-1.2-.34Z" fill="#f1f3f5"/><path d="M26.88,10.93c.2-.34,.12-.63-.08-.95-.61-.97-1.21-1.94-1.81-2.92l.28,.1,.12-.31c.67,1.05,1.33,2.1,2.01,3.14,.09,.14,.25,.28,.4,.32,.84,.19,1.69,.33,2.52,.54,.3,.08,.42-.02,.51-.26,.23-.6,.45-1.21,.71-1.8,.22-.51,.13-.97-.13-1.43-.28-.5-.55-1.01-.82-1.51l.03-.03c.56,.67,1.03,1.38,1.2,2.25l.08,.34,.11,.22,.15-.22s.06,0,.08,0c.39,.55,.59,1.19,.73,1.84,.05,.21-.05,.45-.04,.67,.1,1.39,.01,2.76-.43,4.09-.03,.09,0,.2-.01,.3l-.26,.34c-.17,.17-.35,.34-.52,.53-.08,.08-.12,.19-.19,.28l-.63-.72-.73,.45c.03-.52,.5-.45,.76-.57l.26-.65,.18,.53,.41,.49c.08-.06,.09-.06,.1-.07,1.01-2.11,1.2-4.32,.66-6.58-.05-.22-.23-.4-.35-.6l-.11,.03-.1,.43-.16,.2-.15-.46c-.26,.6-.49,1.14-.71,1.68-.16,.38-.41,.5-.82,.39-.39-.11-.78-.24-1.17-.31-.47-.09-.95-.11-1.41-.2-.39-.08-.4,.39-.68,.44Z" fill="#1b4780"/><path d="M19.47,3.94c-.96,.22-1.92,.4-2.87,.66-.67,.18-.97,.8-1.34,1.32-.09,.13-.18,.25-.27,.38,.1-.27,.16-.57,.31-.82,.15-.26,.4-.46,.57-.72,.26-.39,.71-.29,1.05-.47,.23-.12,.52-.15,.78-.23v-.11l-.66-.03c.67-.16,1.34-.3,2-.48,.3-.08,.59-.18,.87-.32,.89-.43,1.77-.87,2.65-1.3l-.02,.35,1.03,.05-.3-.37,.58,.18,.1,.04,.09,.04c.7,.38,1.4,.77,2.11,1.14,.16,.08,.34,.13,.52,.17,.69,.16,1.38,.32,2.08,.48l-.92-.06-.03,.09c.36,.11,.71,.22,1.06,.34,.3,.1,.61,.2,.89,.34,.12,.06,.18,.23,.26,.35l-.05,.05c-.42-.21-.81-.48-1.25-.61-.7-.21-1.44-.33-2.16-.48,.02-.22-.03-.36-.3-.35-.07,0-.15-.06-.22-.1-.5-.3-.99-.61-1.49-.91-.04-.03-.14,.03-.2,.05,.31,.55,1.17,.46,1.36,1.3-.67-.29-1.23-.54-1.8-.78-.39-.16-.79-.3-1.19-.45,.34,.06,.68,.1,1.01,.18,.22,.05,.42,.15,.63,.23l.04-.16c-.71-.29-1.35-.89-2.23-.36-.32,.19-.67,.31-1.01,.46l-.12-.36-1.57,.97,.02,.28Zm7.65-.22l-.03-.11c-.06,.03-.12,.05-.18,.08,0,0,0,.05,.01,.07l.19-.05Zm-3.09-1.16l.06-.11s-.07-.05-.1-.05c-.03,0-.05,.05-.07,.08l.11,.07Z" fill="#1b4780"/><path d="M11.19,34.21l-.7,.37-2.22,.56c0-.36,0-.69,0-1.02,0-.92,.01-1.84,0-2.76,0-.31,.06-.49,.39-.54,.25-.04,.49-.14,.79-.23,0,.94,.02,1.83,0,2.71-.01,.42,.14,.61,.53,.67,.41,.07,.81,.15,1.21,.23Z" fill="#f1f3f5"/><path d="M20,12.81c.24,.34,.46,.68,.72,1,.11,.14,.31,.28,.48,.28,1.13,.02,2.26,.03,3.4,0,.2,0,.46-.17,.57-.34,.58-.9,1.12-1.83,1.68-2.75,.23,.16,.35,0,.49-.15,.12-.13,.29-.38,.4,.03-.12,.08-.27,.14-.35,.25-.18,.24-.32,.5-.48,.76l-.04-.02,.04,.02c-.31,.54-.6,1.1-.93,1.62-.31,.48-.58,.94-.09,1.46-.34-.12-.55-.37-.45-.72,.08-.29,.29-.54,.43-.82,.04-.08,.06-.18,.08-.27l-.12-.05-.78,1.18-.6,.05-.05,.15c.86-.25,.95,.56,1.42,.93l.07-.45,.41,.36h.27l.42,.86-.06,.06-.95-.73-.06,.5-.37-.47c-.12-.2-.26-.38-.36-.59-.13-.29-.33-.34-.64-.33-1.09,.03-2.18,.03-3.27-.01-.33-.01-.48,.08-.63,.34-.23,.39-.52,.75-.79,1.12,.04-.16,.04-.34,.12-.47,.22-.36,.47-.71,.73-1.04,.06-.08,.23-.09,.35-.1,.26-.01,.52,0,.82-.08-1.2,.11-1.56-.7-1.86-1.58Zm2.38,1.53v.11c.58-.05,1.17,.35,1.72-.11h-1.72Zm4.32-2.75l.12,.1,.26-.3-.14-.11-.25,.32Z" fill="#1b4780"/><path d="M25.54,15.55l.37,.47-.03,.17-.77-.04h-4.43l-.41-.03c.18-.24,.34-.49,.54-.72,.1-.11,.25-.21,.39-.23,.41-.06,.82-.07,1.23-.1,.5-.03,.99-.06,1.49-.08,.52-.02,1.09-.16,1.29,.56,.03,.1,.16,.17,.27,.29l.08-.29Z" fill="#d4d3d9"/><path d="M15.68,10.84c.75-.17,1.5-.35,2.26-.49,.26-.05,.41-.16,.55-.39,.71-1.15,1.46-2.29,2.19-3.43l-.11,.4,.69-.24c-.18,.22-.39,.41-.54,.65-.57,.89-1.11,1.8-1.69,2.68-.23,.35-.22,.64,0,.98,.11,.16,.17,.35,.25,.53l-.17,.7c-.2-.35-.42-.68-.6-1.04-.12-.24-.24-.36-.52-.3-.25,.06-.51,.07-.77,.11,.17-.05,.35-.1,.51-.17,.15-.05,.28-.13,.43-.19l-.08-.21-1.67,.46v.08l.67,.05-1.41,.33,.47-.31c.08-.36-.28-.17-.47-.22Z" fill="#1b4780"/><path d="M22.56,1.84c-.88,.44-1.76,.88-2.65,1.3-.28,.13-.57,.24-.87,.32-.66,.17-1.33,.32-2,.48,.03-.09,.04-.22,.1-.26,1.17-.87,2.49-1.42,3.92-1.69,.49-.09,.99-.1,1.49-.15Z" fill="#f1f3f5"/><path d="M28.74,3.92c-.69-.16-1.39-.32-2.08-.48-.18-.04-.36-.09-.52-.17-.71-.37-1.41-.76-2.11-1.14l-.09-.04-.1-.04,.11-.19,.34,.03,.35,.06h0l.42,.08,.27,.07,.41,.11,.09,.03,.18,.05c1.05,.35,2.03,.84,2.95,1.58l-.23,.05Z" fill="#f1f3f5"/><path d="M25.54,15.55l-.08,.29c-.11-.12-.24-.19-.27-.29-.21-.72-.77-.59-1.29-.56-.5,.02-.99,.05-1.49,.08-.41,.03-.82,.04-1.23,.1-.14,.02-.29,.12-.39,.23-.2,.22-.36,.48-.54,.72l-.35,.06-.05-.09c.27-.37,.56-.73,.79-1.12,.16-.27,.3-.36,.63-.34,1.09,.04,2.18,.04,3.27,.01,.31,0,.51,.04,.64,.33,.09,.21,.24,.39,.36,.59Z" fill="#f1f3f5"/><path d="M25.88,14.96c-.49-.52-.22-.97,.09-1.46,.33-.52,.62-1.08,.93-1.62h0c.16-.26,.3-.52,.48-.76,.08-.11,.23-.17,.35-.25h.01c.78,.17,1.56,.35,2.33,.55,.14,.04,.24,.19,.36,.28l-.03,.12c-.19-.09-.38-.23-.59-.28-.61-.14-1.23-.26-1.86-.35-.13-.02-.34,.07-.4,.17-.54,.84-1.06,1.69-1.58,2.54-.16,.26-.24,.53,0,.82,.14,.17,.21,.4,.31,.6l-.41-.36h0Z" fill="#d4d3d9"/><path d="M31.84,9.4l.16-.2c.03,.11,.11,.23,.08,.31-.15,.5-.34,.99-.49,1.48-.06,.2-.11,.42-.11,.63,.02,.73,.1,1.47,.09,2.2,0,.56-.11,1.12-.17,1.68l-.18-.53,.08-.7c-.08-.95-.16-1.9-.24-2.84v-.17l.25-.43c.1-.24,.19-.48,.29-.72,.06-.16,.13-.33,.19-.49l.03-.08s.03-.02,.03-.02c0-.02,0-.05-.01-.07,.02-.02,.03-.04,.01-.06Z" fill="#f1f3f5"/><path d="M13.35,14.21l1.2,.34c.23,.85,.19,.94-.55,1.46-.12-.22-.24-.44-.36-.66v-.02l-.16-.45s0-.05-.02-.06l-.09-.16-.02-.19-.04-.12h0l.04-.14Z" fill="#d4d3d9"/><path d="M17.23,11.01c.26-.03,.52-.05,.77-.11,.28-.07,.41,.06,.52,.3,.18,.36,.4,.7,.6,1.04,.06,.09,.14,.17,.19,.27,.14,.27,.27,.54,.41,.81l-.12,.22c-.42-.7-.85-1.36-1.22-2.06-.16-.29-.34-.34-.61-.27-.47,.1-.95,.23-1.43,.28-.58,.07-.93,.3-.9,.93l-.13-.55c.02-.11,.05-.22,.07-.33l.12-.08,.19-.09,1.41-.33,.14-.03Z" fill="#d4d3d9"/><path d="M15.97,16.49l-1.64,.19c.23-.98,.62-1.03,1.64-.19Z" fill="#d4d3d9"/><path d="M36.3,29.49v.34l.11,.79h0c-.06,.12-.18,.23-.18,.35-.02,.86,0,1.71,0,2.57l-.26,.09,.09-.34v-3.97l.17,.17h.08Z" fill="#243e7e"/><path d="M30.19,16.21l.73-.45,.63,.72c-.05,.06-.11,.18-.16,.17-.47-.04-.93-.11-1.46-.17l.26-.27Z" fill="#d4d3d9"/><path d="M36.05,29.32v3.97l-.18-.1c0-1.4-.02-2.79-.03-4.19l.21,.32Z" fill="#21386e"/><path d="M19.72,13.32c-.14-.27-.27-.54-.41-.81-.05-.1-.13-.18-.19-.27l.17-.7,.18,.34,.23,.43s.05,.02,.04,.06l.1,.19,.07,.1-.09,.08-.11,.58Z" fill="#21386e"/><path d="M15.3,11.87l.13,.55-.15,1.76h-.11c0-.71,0-1.42,0-2.12,0-.06,.09-.13,.13-.19Z" fill="#9a9b9c"/><path d="M13.46,14.82s.04,.03,.02,.06l-.05,.45h0l-.63,.25c.16-.53-.08-1.06,.52-1.24h0c.01,.05,.03,.09,.04,.13,0,.06,.01,.13,.02,.19,.03,.05,.06,.11,.09,.16Z" fill="#233c75"/><path d="M30.44,11.71c-.12-.1-.23-.25-.36-.28-.77-.2-1.55-.38-2.33-.57,.64,.1,1.28,.2,1.91,.31,.25,.04,.49,.11,.72,.2,.15,.06,.33,.17,.06,.33Z" fill="#1b4780"/><path d="M31.04,11.45l.24,2.84c-.08-.56-.17-1.12-.24-1.68-.04-.31-.07-.62-.09-.94,0-.07,.05-.15,.08-.23Z" fill="#1b4780"/><path d="M11.36,17.23c.29,.04,.64-.13,.83,.3-.37,.11-.64,.03-.83-.3h0Z" fill="#233c75"/><path d="M32.25,15.67l.26-.34c.2,.06,.45,.05,.45,.36h0c-.09-.05-.19-.1-.27-.14-.17,0-.17,.51-.44,.12Z" fill="#233c75"/><path d="M32.25,8.43s-.06,0-.08,0h-.26l-.08-.35c.05-.01,.11-.04,.16-.04,.13,0,.26,.03,.38,.05l-.12,.33Z" fill="#233c75"/><path d="M13.7,16.39l-.43-.13,.12-.29,.38,.24-.07,.18Z" fill="#233c75"/><path d="M13.26,32.93l.32-.04v.63l-.4-.5,.08-.1Z" fill="#28a4dd"/><path d="M23.96,1.86l-.11,.19-.58-.18h.69Z" fill="#9a9b9c"/><path d="M30.2,5.3c.33,.03,.43,.23,.42,.52l-.03,.03-.41-.54h.02Z" fill="#1b4780"/><path d="M25.1,16.15l.77,.04c-.09,.05-.19,.15-.28,.14-.17-.03-.33-.12-.5-.18Z" fill="#1b4780"/><path d="M19.91,16.17l.35-.06,.41,.03c-.12,.06-.25,.16-.38,.16-.13,0-.26-.09-.39-.14Z" fill="#1b4780"/><path d="M31.3,10.84l-.24,.43c-.18-.29-.03-.4,.24-.43Z" fill="#1b4780"/><path d="M13.31,34.34l.24,.04s-.03,.14-.05,.14c-.08,0-.15-.02-.23-.04l.03-.14Z" fill="#1b4780"/><path d="M31.78,9.64c-.06,.16-.13,.33-.19,.49,.06-.16,.13-.33,.19-.49Z" fill="#1b4780"/><path d="M30.01,4.97l.19,.33h-.02l-.22-.28,.05-.05Z" fill="#1b4780"/><path d="M25.76,2.22l-.41-.11,.41,.11Z" fill="#9a9b9c"/><path d="M13.63,15.33v.02l-.13,.28-.07-.3h.2Z" fill="#233c75"/><path d="M35.85,29.01l-.32-.12c.16-.11,.31-.18,.32,.12Z" fill="#21386e"/><path d="M25.08,2.04l-.42-.08,.42,.08Z" fill="#9a9b9c"/><path d="M41.67,27.68l-.44,.09,.44-.09Z" fill="#21386e"/><path d="M24.65,1.95l-.35-.06,.35,.06Z" fill="#9a9b9c"/><path d="M36.3,29.49h-.08v-.35l.08,.35Z" fill="#1b4780"/><path d="M13.11,15.82s-.06-.01-.06-.03c0-.02,.02-.04,.03-.07,.02,0,.06,.01,.06,.03,0,.02-.02,.04-.03,.07Z" fill="#233c75"/><path d="M31.7,6.81s-.05,.03-.07,.02c-.02,0-.02-.04-.03-.06,.02,0,.05-.03,.07-.02,.02,0,.02,.04,.03,.06Z" fill="#1b4780"/><path d="M26.03,2.3l-.18-.05,.18,.05Z" fill="#9a9b9c"/><path d="M31.82,9.46s.01,.05,.01,.07c0,0-.02,.02-.03,.02l-.08-.05,.09-.04Z" fill="#1b4780"/><path d="M15.5,11.45l-.12,.08,.12-.08Z" fill="#9a9b9c"/><path d="M19.83,12.74l.09-.08s.03,.04,.03,.07h-.11Z" fill="#1b4780"/><path d="M13.28,13.95l.04,.13-.04-.13Z" fill="#d4d3d9"/><path d="M27.82,36.4c0-1.25,.02-2.5,.03-3.75,0-.19-.1-.47,.25-.49,.59-.04,.87,.11,.87,.49,0,1.62,0,3.25,0,4.87,0,.11-.03,.24-.1,.32-.3,.35-.62,.67-1.05,1,0-.76,0-1.52,0-2.28,0-.05,0-.1,0-.15Z" fill="#28a4dd"/><path d="M18.03,36.57v2.21l-.15,.03c-.41-.55-1.08-.87-1.02-1.78,.09-1.35,.02-2.7,.02-4.05q0-.67,.63-.77c.14-.02,.28-.04,.51-.07,0,1.45,0,2.86,0,4.26,0,.06,0,.11,0,.17Z" fill="#28a4dd"/><path d="M23.36,37.38c.03-.16,.09-.33,.09-.49,0-1.51,.02-3.02,0-4.53,0-.39,.12-.53,.49-.47,.08,.01,.17,.01,.26,0,.3-.04,.4,.09,.4,.39-.01,1.88,0,3.77-.01,5.65l-.36,.02c-.38-.05-.75-.12-.86-.57Z" fill="#28a4dd"/><path d="M36.41,30.62q1.16,.23,1.16,1.4c0,1.02,0,2.03,0,3.12l-3.15-.84,1.46-.39h0l.36-.1,.06-.05c.03-.15,.09-.29,.09-.44,.01-.9,.01-1.81,.02-2.71h0Z" fill="#f1f3f5"/><path d="M23.36,37.38c.11,.45,.48,.52,.86,.57,.14,.07,.37,.07,.25,.34h0l-.16,.17h-.02l-.32,.37h0s-.04,0-.04,0c0,.02,0,.05,.01,.07v.18c-.03,.14-.07,.27-.06,.41,.03,.28-.09,.39-.36,.38-.39-.24-.77-.28-1.15,.03-.15,.05-.3,.09-.54,.17,.14-.75,.2-1.41-.53-1.8-.12-.14-.19-.27,.07-.33,.08-.02,.16-.06,.25-.06,.56-.02,.92-.3,1.12-.82,.04-.1,.12-.18,.21-.31l.4,.63Z" fill="#f1f3f5"/><path d="M25.68,36.38c0-1.32,0-2.64,0-3.96,0-.38,.06-.55,.51-.46,.61,.12,.63,.08,.62,.69-.02,.99-.05,1.98-.07,2.96-.29,.34-.46,.84-1.05,.76Z" fill="#28a4dd"/><path d="M19.13,35.62c-.03-1.06-.06-2.12-.07-3.18,0-.14,.1-.39,.19-.42,.27-.07,.56-.06,.84-.03,.04,0,.08,.25,.08,.39,0,1.33,0,2.67,0,4-.38,0-.68-.12-.83-.51-.04-.1-.14-.17-.21-.26Z" fill="#28a4dd"/><path d="M26.79,37.6c0,.7,.03,1.41,0,2.11,0,.19-.1,.43-.23,.57-.24,.27-.54,.48-.89,.78-.03-.21-.06-.33-.06-.45,0-1.12,0-2.24,0-3.36,0-.17,.06-.34,.09-.5,.53,.18,.19,.69,.35,.99l.73-.13Z" fill="#28a4dd"/><path d="M30.04,36.45c0-1.33,0-2.54,0-3.76,0-.05,.04-.14,.07-.14,.28,0,.57,0,.84,.07,.11,.03,.24,.22,.25,.35,.03,.64,.09,1.3-.01,1.93-.06,.36-.4,.67-.63,1-.12,.17-.28,.32-.5,.56Z" fill="#28a4dd"/><path d="M21.32,38.26c.72,.39,.67,1.05,.53,1.8,.24-.07,.39-.12,.54-.17,0,1,0,2,0,3.01-.69-.23-1.12-.8-1.11-1.46,.01-1.06,.03-2.12,.04-3.18Z" fill="#28a4dd"/><path d="M15.74,36.39c-.34-.42-.7-.77-.92-1.19-.16-.3-.13-.71-.16-1.07-.02-.26,0-.52,0-.78,0-.75,.12-.88,.87-.85,.11,0,.3,.16,.3,.25,.01,1.15,0,2.3-.01,3.44,0,.04-.03,.08-.08,.19Z" fill="#28a4dd"/><path d="M23.94,39.08v-.18l.04-.08h0l.32-.35h.02l.16-.18h0s.06,0,.08,0c0,1.18,.02,2.35,.01,3.53,0,.16-.12,.35-.24,.47-.22,.22-.47,.4-.82,.68-.08-1.09-.11-2.05,.04-3.02,.17,.03,.34,.06,.57,.1l-.18-.98Z" fill="#28a4dd"/><path d="M20.16,36.74v4.2c-.63-.22-1.12-.86-1.1-1.43,.02-.64,.05-1.28,.08-1.91l.68,.17c.09-.37-.17-.83,.34-1.02Z" fill="#28a4dd"/><path d="M20.16,36.74c-.51,.19-.25,.66-.34,1.02l-.68-.17-.71,.19c.09-.49,.09-.94-.4-1.21v-.17c.51,0,.89-.18,1.03-.7l.07-.08h0c.07,.09,.18,.16,.21,.26,.15,.39,.45,.51,.83,.51l-.02,.35Z" fill="#f1f3f5"/><path d="M26.79,37.6l-.73,.13c-.15-.3,.19-.81-.35-.99-.01-.12-.02-.24-.03-.36,.59,.08,.76-.42,1.05-.76h0l.06,.07c.15,.51,.51,.72,1.03,.71,0,.05,0,.1,0,.15-.46,.28-.49,.72-.39,1.24l-.41-.12h0l-.23-.07Z" fill="#f1f3f5"/><path d="M23.94,39.08l.18,.98c-.23-.04-.4-.07-.57-.1l-.02-.09c.26,.01,.38-.1,.36-.38-.01-.13,.03-.27,.05-.41Z" fill="#d4d3d9"/><path d="M32.29,32.84l.39,.14-.31,.52-.08-.02v-.64Z" fill="#3766b0"/><path d="M36.31,33.77l-.06,.05-.36,.1h0l.07-.28,.26-.09,.08,.23Z" fill="#21386e"/><path d="M24.56,38.29s-.06,0-.08,0c.12-.27-.12-.26-.25-.34l.36-.02-.02,.36Z" fill="#d4d3d9"/><path d="M35.67,33.67c-.06,.01-.1,.04-.13,.02-.02-.01-.03-.06-.05-.09,.02,0,.05-.03,.07-.03,.03,.02,.06,.05,.11,.09Z" fill="#21386e"/><path d="M26.79,35.69l-.06-.08,.06,.08Z" fill="#28a4dd"/><path d="M19.13,35.62l-.07,.08,.07-.08Z" fill="#28a4dd"/><polygon points="27.02 37.67 27.03 37.66 27.02 37.67 27.02 37.67" fill="#28a4dd"/><path d="M26.39,43.56s.08-.07,.1-.07c1.04,.36,2.08-.1,3.12,.03,.12,.02,.28-.08,.39-.16,.5-.41,1.1-.55,1.71-.68,.16-.04,.31-.18,.45-.3,.23-.19,.41-.46,.66-.59,.73-.36,1.14-.97,1.5-1.64,.09-.16,.18-.32,.27-.47l.26-.18,.52-.17h.17c-.42,.58-.78,1.24-1.29,1.72-.48,.45-.92,.92-1.34,1.42-.21,.25-.65,.32-.98,.48-.27,.13-.53,.27-.8,.38-.26,.11-.52,.25-.8,.29-1,.14-2,.26-3,.36-.37,.04-.72-.08-.94-.43Z" fill="#0e1725"/><path d="M7.66,36.94l-.74-.26,.74,.26Z" fill="#9a9b9c"/><path d="M6.88,36.63l-.66-.26c.32-.17,.47,.1,.66,.26Z" fill="#9a9b9c"/><path d="M8.79,37.29l-.49-.17c.19-.03,.41-.13,.49,.17Z" fill="#9a9b9c"/><path d="M8.08,37.11l-.26-.12,.26,.12Z" fill="#9a9b9c"/><path d="M35.36,39.33l-.52,.17v-.17h.52Z" fill="#11141e"/><path d="M1.35,56.51l.26,.26-.26-.26Z" fill="#4370b3"/><path d="M2.55,28.98v0Z" fill="#3766b0"/><path d="M7.65,37.35c.35,.18,.62,.46,.92,.69,.65,.52,.74,1.31,1.19,1.89,.37,.48,.6,.98,.81,1.54,.18,.46,.69,.59,1.1,.79,.63,.3,1.27,.57,1.91,.84,.23,.1,.52,0,.7,.24,.05,.07,.08,.14,.12,.22-.32,0-.68,.08-.96-.04-.64-.27-1.24-.65-1.87-.96-.46-.23-.93-.43-1.4-.64-.27-.32-.58-.61-.79-.97-.38-.63-.7-1.3-1.04-1.96-.04-.09-.08-.19-.07-.29,.04-.46-.05-.85-.5-1.09-.07-.04-.08-.18-.11-.27Z" fill="#11141e"/><path d="M10.16,41.92c.47,.21,.94,.41,1.4,.64,.63,.31,1.22,.69,1.87,.96,.27,.12,.63,.03,.96,.04l.26,.34c-.53,.13-1.05,.19-1.56-.09-.23-.13-.5-.2-.74-.32-.27-.14-.53-.31-.79-.48-.39-.25-.77-.49-1.15-.76-.1-.07-.16-.22-.24-.33Z" fill="#0e1725"/><path d="M17.77,29.5v1.09h-.55v-2.04c.34-.14,.61-.09,.82,.27,.17,.29,.38,.56,.65,.93v-1.24h.59v2.04c-.38,.13-.64,.03-.84-.3-.17-.28-.38-.54-.58-.8-.04-.2,.09-.54-.37-.45l.28,.5Z" fill="#11141e"/><path d="M27.85,29.5c0,.16,.05,.34-.01,.47-.12,.25-.25,.58-.47,.69-.3,.14-.67,.08-.92-.24-.34-.44-.35-1.47,0-1.91,.24-.32,.55-.3,.88-.21,.31,.09,.49,.29,.52,.6,.02,.2,0,.4,0,.6Zm-.72,.63l.11-.08c0-.35,.01-.71,0-1.06,0-.09-.1-.17-.15-.25-.08,.08-.23,.15-.24,.24-.04,.28-.06,.57-.02,.85,.02,.11,.2,.2,.3,.3Z" fill="#101317"/><path d="M15.83,28.88l-.64-.1-.07,.15c.13,.09,.24,.21,.38,.26,.34,.1,.62,.21,.64,.63,.02,.39-.14,.67-.48,.84-.3,.14-1,.06-1.13-.18-.07-.13,.04-.37,.08-.59,.26,.14,.4,.25,.55,.29,.1,.02,.22-.07,.33-.11-.06-.11-.1-.25-.19-.32-.09-.08-.23-.1-.36-.14-.33-.12-.48-.35-.43-.7,.05-.35,.26-.57,.62-.62,.14-.02,.29-.02,.43,0,.46,.05,.52,.2,.27,.61Z" fill="#11141e"/><path d="M28.19,29.17c-.07-.46,.13-.74,.48-.85,.37-.12,.79-.14,1.07,.22,.5,.66-.12,1.05-.47,1.54l.62,.03,.03,.47h-1.83c.31-.36,.57-.67,.84-.98,.12-.14,.25-.28,.33-.45,.04-.08-.02-.28-.08-.32-.08-.04-.31,.02-.32,.07-.1,.4-.4,.22-.66,.27Z" fill="#11141e"/><path d="M24.14,29.15c-.07-.42,.11-.69,.45-.81,.38-.14,.79-.16,1.07,.18,.56,.67-.11,1.07-.44,1.56l.61,.03v.47h-1.8c.29-.35,.55-.64,.79-.94,.13-.15,.27-.3,.36-.48,.04-.08,0-.28-.07-.32-.07-.05-.31,0-.32,.06-.1,.38-.38,.26-.66,.26Z" fill="#101317"/><path d="M31.69,30.59h-.44l-.06-.48h-1.08c.09-.3,.14-.54,.23-.75,.09-.21,.28-.37,.36-.58,.21-.52,.59-.6,1.12-.44,0,.23-.01,.47,0,.71,.02,.22-.12,.49,.21,.62,.04,.02,.02,.27-.03,.39-.06,.16-.18,.3-.32,.54Zm-.19-.59l.11-.11-.65-.78-.17,.46,.71,.43Z" fill="#101317"/><path d="M21.35,28.96c-.39,.08-.74,.05-.9,.21-.13,.13-.12,.58,0,.71,.15,.16,.5,.13,.83,.2,.11,.45-.21,.75-.78,.6-.62-.17-.94-.76-.78-1.42,.14-.57,.75-.96,1.33-.77,.16,.05,.23,.36,.3,.48Z" fill="#11141e"/><path d="M22.24,30.1h.68v.47h-1.26v-2.09h1.27v.47h-.6c-.09-.05-.17-.11-.26-.13-.02,0-.11,.09-.11,.15,0,.46,0,.92,0,1.37h.54l-.13,.11-.12-.36Z" fill="#101317"/><path d="M16.48,28.52h.54v2.07h-.54v-2.07Z" fill="#0a0b0d"/><path d="M22.24,30.1l.12,.36,.13-.11h-.54c0-.45,0-.91,0-1.37,0-.05,.09-.15,.11-.15,.09,.02,.17,.08,.26,.13q-.11,.32,.56,.37v.44c-.17,0-.34-.02-.51,0-.22,.03-.31,.13-.14,.33Z" fill="#0e1725"/><path d="M17.77,29.5l-.28-.5c.46-.08,.33,.26,.37,.45l-.1,.04Z" fill="#9a9b9c"/><path d="M21.27,6.69l-.69,.24,.11-.4v-.18c.02-.09,.08-.21,.04-.28-.16-.36-.34-.71-.52-1.06-.18-.35-.36-.69-.55-1.03-.02-.04-.13-.03-.2-.04h0l-.02-.28,1.57-.97,.12,.36-.09,.03c-.25-.04-.44,.03-.52,.29h0c-.06,0-.11,0-.17,.02-.52,.12-.6,.31-.35,.76,.09,.16,.14,.34,.24,.49,.05,.07,.17,.09,.26,.14h0c0,.22-.06,.47,.27,.52l.16,.26,.06,.1,.14,.13,.07-.04-.42-.88c-.13-.27-.27-.54-.37-.82-.03-.09,.03-.29,.1-.33,.72-.35,1.44-.68,2.17-1.02,.4,.15,.8,.28,1.19,.45,.57,.23,1.13,.49,1.8,.78-.19-.84-1.04-.74-1.36-1.3,.07-.02,.16-.07,.2-.05,.5,.29,.99,.6,1.49,.91,.07,.04,.15,.1,.22,.1,.27-.01,.32,.13,.3,.35h-.17s-.13-.03-.13-.02c-.4,.75-.8,1.51-1.2,2.27-.02,.03,.06,.11,.1,.17v.18l.12,.16,.11,.16-.12,.31-.28-.1h0c.03-.22,.02-.4-.28-.35h-.05c-.04-.07-.08-.16-.12-.17-.53-.04-1.06-.08-1.59-.1-.35-.02-.7-.02-1.05-.04-.26-.01-.52-.04-.61,.29h-.01Z" fill="#213e76"/><path d="M21.29,6.69c.09-.34,.35-.31,.61-.29,.35,.02,.7,.02,1.05,.04,.53,.03,1.06,.06,1.59,.1,.04,0,.08,.1,.12,.15h-3.36Z" fill="#1b4780"/><path d="M19.71,12.31l-.23-.43,.23,.43Z" fill="#1b4780"/><path d="M24.7,6.71c.3-.05,.32,.13,.28,.35l-.28-.35Z" fill="#1b4780"/><path d="M19.85,12.55l-.1-.19,.1,.19Z" fill="#1b4780"/><path d="M19.47,3.94c.07,.01,.17,0,.2,.04,.19,.34,.38,.68,.55,1.03,.18,.35,.36,.7,.52,1.06,.03,.07-.02,.19-.04,.28l-1.23-2.41Z" fill="#1b4780"/><path d="M10.33,21.2c.49,.02,.89-.18,1.15,.21,.07,.1,.03,.42-.04,.45-.26,.11-.59,.25-.83,.17-.14-.05-.17-.47-.27-.82Z" fill="#213e76"/><path d="M10.42,19.83c-.02-.28,0-.52,.34-.47,.24,.04,.59-.04,.59,.37,0,.39-.3,.43-.59,.45-.28,.02-.4-.1-.34-.35Z" fill="#213e76"/><path d="M25.15,20.06l.43,1.36h-.94l.39-1.34,.12-.02Z" fill="#213e76"/><path d="M32.41,20.07l.42,1.36h-.95l.41-1.36h.12Z" fill="#213e76"/><path d="M15.66,20.06l.42,1.37h-.94l.41-1.37h.12Z" fill="#213e76"/><path d="M25.39,6.86l-.11-.16-.11-.16v-.18l1.22-2.4h.17c.72,.14,1.45,.26,2.16,.47,.44,.13,.83,.4,1.25,.61l.22,.3,.41,.54c.27,.5,.54,1.01,.82,1.51,.26,.46,.36,.92,.13,1.43-.26,.59-.47,1.2-.71,1.8-.09,.24-.21,.34-.51,.26-.83-.21-1.69-.35-2.52-.54-.15-.04-.31-.18-.4-.32-.68-1.04-1.34-2.09-2.01-3.14Z" fill="#f1f3f5"/><path d="M31.39,15.51c.06-.56,.16-1.12,.17-1.68,0-.73-.07-1.47-.09-2.2,0-.21,.04-.43,.11-.63,.16-.5,.34-.99,.49-1.48,.03-.09-.05-.21-.08-.31l.1-.43,.11-.03c.12,.2,.3,.39,.35,.6,.54,2.27,.35,4.47-.66,6.58,0,.01-.02,.02-.1,.07l-.41-.49Z" fill="#d4d3d9"/><path d="M31.91,8.43h.26l-.15,.22-.11-.22Z" fill="#213e76"/><path d="M22.71,2.7c-.72,.34-1.45,.67-2.17,1.02-.07,.04-.13,.24-.1,.33,.1,.28,.24,.55,.37,.82l-.13,.11-.16-.2h0c-.05-.12-.09-.24-.15-.35q-.36-.64,.17-1.07h0c.17-.09,.35-.18,.52-.28l.09-.03c.34-.15,.7-.27,1.01-.46,.88-.53,1.52,.07,2.23,.36l-.04,.16c-.21-.08-.41-.18-.63-.23-.33-.08-.67-.12-1.01-.18Z" fill="#d4d3d9"/><path d="M27.13,3.72l-.19,.05s-.02-.07-.01-.07c.06-.03,.12-.06,.18-.08l.03,.11Z" fill="#213e76"/><path d="M24.03,2.56l-.11-.07s.04-.08,.07-.08c.03,0,.07,.03,.1,.05l-.06,.11Z" fill="#213e76"/><path d="M23.95,2.09l.09,.04-.09-.04Z" fill="#9a9b9c"/><path d="M25.89,14.97l-.07,.45c-.47-.38-.56-1.19-1.42-.93l.05-.15,.6-.05,.78-1.18,.12,.05c-.03,.09-.04,.19-.08,.27-.14,.27-.35,.53-.43,.82-.1,.35,.11,.59,.45,.72h0Z" fill="#213e76"/><path d="M22.39,14.34h1.72c-.55,.46-1.14,.06-1.72,.11v-.11Z" fill="#213e76"/><path d="M26.7,11.59l.25-.32,.14,.11-.26,.3-.12-.1Z" fill="#213e76"/><path d="M26.91,11.89l-.04-.02,.04,.02h0Z" fill="#213e76"/><path d="M17.23,11.01l-.14,.03-.66-.05v-.08l1.66-.46,.08,.21c-.14,.06-.28,.13-.43,.19-.17,.06-.34,.11-.51,.17Z" fill="#213e76"/><path d="M13.63,15.33h-.2l.05-.45,.15,.45Z" fill="#213e76"/><path d="M13.46,14.82c-.03-.05-.06-.11-.09-.16,.03,.05,.06,.11,.09,.16Z" fill="#213e76"/><path d="M13.36,14.47s-.03-.08-.04-.12c.01,.04,.03,.08,.04,.12Z" fill="#213e76"/><path d="M36.31,33.77l-.08-.23c0-.86,0-1.71,0-2.57,0-.12,.12-.24,.18-.36,0,.9,0,1.81-.02,2.71,0,.15-.06,.29-.09,.44Z" fill="#1b4780"/><path d="M35.89,33.91l.36-.1-.36,.1Z" fill="#1b4780"/><path d="M24.29,38.47l-.32,.36,.32-.36Z" fill="#d4d3d9"/><path d="M24.47,38.29l-.16,.16,.16-.16Z" fill="#d4d3d9"/><path d="M23.98,38.82l-.03,.08s-.01-.05-.01-.07c0,0,.02,0,.04-.01Z" fill="#d4d3d9"/><path d="M27.13,30.13c-.11-.1-.29-.19-.3-.3-.04-.28-.02-.57,.02-.85,.01-.09,.16-.16,.24-.24,.05,.08,.15,.17,.15,.25,.02,.35,0,.71,0,1.06l-.11,.08Z" fill="#f1f3f5"/><path d="M31.5,30l-.71-.43,.17-.46,.65,.78-.11,.11Z" fill="#323232"/><path d="M26.39,3.95l-1.23,2.4c-.04-.06-.12-.14-.1-.17,.39-.76,.79-1.52,1.2-2.27,0,0,.09,.02,.13,.03Z" fill="#1b4780"/><path d="M20.55,3.36q-.53,.44-.17,1.07c.06,.11,.1,.23,.15,.35-.09-.04-.21-.07-.26-.14-.1-.15-.16-.33-.24-.49-.25-.45-.16-.64,.35-.76,.06-.01,.11-.02,.17-.03Z" fill="#1b4780"/><path d="M20.69,4.98l.13-.11c.14,.29,.28,.59,.42,.88l-.07,.04-.14-.13-.06-.1-.16-.26-.11-.33Z" fill="#9a9b9c"/><path d="M20.69,4.98l.11,.33c-.32-.05-.28-.3-.27-.52l.16,.2Z" fill="#1b4780"/><path d="M21.06,3.09c-.17,.1-.35,.19-.52,.29,.08-.26,.27-.33,.52-.29Z" fill="#1b4780"/><path d="M25.16,6.53l.11,.16-.11-.16Z" fill="#1b4780"/><path d="M20.95,5.57l.06,.1-.06-.1Z" fill="#1b4780"/></svg>