<svg id="Layer_1" data-name="Layer 1" xmlns="http://www.w3.org/2000/svg" viewBox="0 0 149.60791 23.32666"><path d="M13.96777,18.66064q0,.07618-.21777.1084a18.68839,18.68839,0,0,1-2.07764.06543A18.34244,18.34244,0,0,1,9.73584,18.769a1.09606,1.09606,0,0,1-.272-.05468.47692.47692,0,0,1-.15186-.2168q-.16333-.4248-.479-1.2627-.42408-1.08692-1.32715-3.209a.96067.96067,0,0,0-.90283-.46777q.32665.022-1.12061.02246-.1626,0-.16308.55468,0,.73976.13623,2.208.13549,1.46778.13574,2.208c0,.124-.03272.19629-.09766.21777-.10156.00684-.20312.01465-.30469.02149q-.64233.04394-2.00146.04394A14.30738,14.30738,0,0,1,1.31641,18.769q-.31567-.06591-.31543-.33691,0-1.19678.11425-3.61231.11427-2.41406.11377-3.62255,0-4.60108-.20654-7.17969l-.01074-.15235c-.00733-.123.10693-.207.34277-.25q.353-.06591,3.32324-.13085,2.012-.04249,3.209-.043a6.79546,6.79546,0,0,1,4.04687,1.12011,4.1985,4.1985,0,0,1,1.77295,3.64453,5.887,5.887,0,0,1-.457,2.53418,5.16427,5.16427,0,0,1-1.686,1.83936c-.167.11621-.25.22461-.25.32617q0-.01025,1.32714,2.73047A19.74788,19.74788,0,0,1,13.96777,18.66064ZM9.39893,8.90234a1.95105,1.95105,0,0,0-.87061-1.83886A4.359,4.359,0,0,0,6.418,6.67188q-1.03345,0-1.09863.31542a18.92486,18.92486,0,0,0-.065,2.13184q0,.25048.01075.74024.01025.48925.01074.72851c0,.03613.11621.07324.34814.10938a9.6513,9.6513,0,0,0,1.39258.09765Q9.39843,10.79492,9.39893,8.90234Z" style="fill:#fff"/><path d="M19.61377,10.72949q0,1.28321.06494,3.8628.06593,2.57812.06543,3.86132c0,.14551-.03271.23535-.09766.27149a2.06094,2.06094,0,0,1-.2832.04394,16.3234,16.3234,0,0,1-1.89258.08692,13.90162,13.90162,0,0,1-2.02343-.08692q-.31567-.06591-.31543-.33691,0,.17432.09765-1.915.19629-4.40478.1958-5.7876,0-1.16455-.07568-3.49219-.07691-2.32763-.07617-3.49121c0-.16015.083-.23925.25-.23925q.33691,0,1.01709.03222.67968.03224,1.01709.03223.33691,0,.9956-.03223.65772-.03222.99512-.03222c.21045,0,.31543.0791.31543.23925q0,1.16309-.125,3.49121Q19.61352,9.56641,19.61377,10.72949Z" style="fill:#fff"/><path d="M36.94287,11.15332a7.97216,7.97216,0,0,1-2.165,5.68994,7.37332,7.37332,0,0,1-5.59131,2.32813A7.35267,7.35267,0,0,1,23.606,16.82178a7.92254,7.92254,0,0,1-2.17578-5.66846A7.97274,7.97274,0,0,1,23.606,5.46484a7.33506,7.33506,0,0,1,5.58056-2.36132,7.34517,7.34517,0,0,1,5.56983,2.36132A8.00123,8.00123,0,0,1,36.94287,11.15332Zm-4.123-.02148a4.08817,4.08817,0,0,0-.98974-2.77344,3.42936,3.42936,0,0,0-5.24365.043,4.08881,4.08881,0,0,0-1.03321,2.752,4.06664,4.06664,0,0,0,.96826,2.7749,3.50559,3.50559,0,0,0,5.27588-.06543A4.03231,4.03231,0,0,0,32.81982,11.13184Z" style="fill:#fff"/><path d="M45.98242,13.76514a4.804,4.804,0,0,1-1.86035,3.78515,7.94516,7.94516,0,0,1-3.9707,1.77344,1.27838,1.27838,0,0,1-.14112.01074q-.25048,0-1.10986-1.52832a6.60368,6.60368,0,0,1-.85937-1.86523c0-.08008.05468-.13086.16308-.15235A11.4792,11.4792,0,0,0,40.293,15.1792a1.7978,1.7978,0,0,0,1.13135-1.67481,2.56376,2.56376,0,0,0-.73975-1.57812Q39.40063,10.44751,39.292,10.2832a4.42721,4.42721,0,0,1-.75049-2.502,3.93669,3.93669,0,0,1,1.83838-3.30664,8.25616,8.25616,0,0,1,3.688-1.41406c.07959-.00684.14111-.01075.18457-.01075q.16334,0,.26123.26075.28272.79394,1.31641,2.87207a.26014.26014,0,0,1,.03271.1084c0,.124-.06543.18554-.1958.18554a2.25224,2.25224,0,0,1-.29394-.0332,2.22232,2.22232,0,0,0-.31543-.03223,2.57635,2.57635,0,0,0-1.37061.3584,1.279,1.279,0,0,0-.707,1.15332,2.84453,2.84453,0,0,0,.7832,1.63184q1.38135,1.74022,1.44678,1.82715A4.37716,4.37716,0,0,1,45.98242,13.76514Z" style="fill:#fff"/><path d="M75.95166,3.332q0-.23877-.08691.71875-.12012,1.207-.18506,3.08887-.08716,2.13281-.08692,4.85205a56.12825,56.12825,0,0,0,.24952,6.39648c.01562.1377.02246.22461.02246.26075,0,.08007-.05469.127-.16309.1416q-.39184.05419-2.88281.05468-.5874,0-.67432-.22851-.022-.41309-.04394-.82715a.333.333,0,0,0-.08692-.17383.72285.72285,0,0,0-.16308.13086,4.02525,4.02525,0,0,1-2.937,1.15332,4.60293,4.60293,0,0,1-3.67675-1.61035,5.73453,5.73453,0,0,1-1.31641-3.873,5.84922,5.84922,0,0,1,1.29443-3.90576,4.58172,4.58172,0,0,1,3.69873-1.63086,3.21626,3.21626,0,0,1,2.55616,1.044c.10156.11621.17431.17383.21777.17383.06494,0,.09766-.09375.09766-.28223q0-.83788-.04346-2.50293-.04321-1.66407-.04346-2.49023c0-.21094.05811-.33008.17432-.35938q.69581-.03222,1.91455-.13086a16.3083,16.3083,0,0,0,1.92529-.27148C75.87158,3.06055,75.95166,3.15137,75.95166,3.332Zm-4.10107,9.99756a2.15009,2.15009,0,0,0-.59815-1.50586,1.89789,1.89789,0,0,0-1.44678-.64795,1.73552,1.73552,0,0,0-1.41992.64795,2.3748,2.3748,0,0,0-.52734,1.54981,2.18609,2.18609,0,0,0,.53271,1.49023,1.753,1.753,0,0,0,1.41455.65234,1.88009,1.88009,0,0,0,1.45752-.65234A2.21968,2.21968,0,0,0,71.85059,13.32959Z" style="fill:#fff"/><path d="M87.52588,12.86182q0,1.10009-.707,1.251-.11865.022-2.251.23926-1.28466.14209-3.8291.33789a1.54036,1.54036,0,0,0,.92383,1.07715,3.26342,3.26342,0,0,0,1.43652.30371,4.11558,4.11558,0,0,0,1.94727-.52148q.41308-.26075.82617-.52246a3.23679,3.23679,0,0,1,.76758,1.10937,4.09591,4.09591,0,0,1,.53808,1.27344c0,.05078-.05468.13379-.16308.25a5.38291,5.38291,0,0,1-4.12305,1.4248,5.80731,5.80731,0,0,1-4.17676-1.51172,5.36136,5.36136,0,0,1-1.63183-4.10156,5.8504,5.8504,0,0,1,1.457-4.10107A5.11835,5.11835,0,0,1,82.522,7.71582a4.72448,4.72448,0,0,1,3.54688,1.52344A5.05952,5.05952,0,0,1,87.52588,12.86182Zm-3.80664-.66309a1.68393,1.68393,0,0,0-.47852-1.186,1.51324,1.51324,0,0,0-1.14258-.51172,1.37363,1.37363,0,0,0-1.13183.57714,1.98114,1.98114,0,0,0-.41309,1.25147q0,.293.30469.293a19.0477,19.0477,0,0,0,2.50195-.25C83.59912,12.33643,83.71924,12.27881,83.71924,12.19873Z" style="fill:#fff"/><path d="M95.08643,9.96777a.5172.5172,0,0,1-.16309.294,2.50425,2.50425,0,0,0-.60938-.07617,1.93421,1.93421,0,0,0-1.07617.2832,1.02974,1.02974,0,0,0-.52246.9248,1.62556,1.62556,0,0,0,.55469.96827,10.75826,10.75826,0,0,1,1.0332,1.18554,3.12409,3.12409,0,0,1,.55469,1.77344,3.56016,3.56016,0,0,1-.2168,1.17481,2.30319,2.30319,0,0,1-.63086,1.001,7.54014,7.54014,0,0,1-1.88281,1.17481,5.47707,5.47707,0,0,1-2.14258.5q-.21825,0-.97363-1.17969a4.80657,4.80657,0,0,1-.75586-1.44141c0-.06543.04-.10547.11914-.12011q.76172-.14062,1.53418-.28321.95655-.30322.957-1a1.81039,1.81039,0,0,0-.55468-1.11035q-.99024-1.09863-1.03321-1.16406a2.8099,2.8099,0,0,1-.55469-1.65381,3.31639,3.31639,0,0,1,1.65332-2.77344,5.50292,5.50292,0,0,1,3.166-1.01172q.17284,0,.85938,1.16895A5.7269,5.7269,0,0,1,95.08643,9.96777Z" style="fill:#fff"/><path d="M108.65186,13.53662a5.57768,5.57768,0,0,1-1.3711,3.86133,4.72936,4.72936,0,0,1-3.71,1.58887,4.53734,4.53734,0,0,1-1.79492-.41407,4.16352,4.16352,0,0,1-.87012-.41308c-.09375,0-.14062.10937-.14062.32617q0,.55518.05371,1.66992.05419,1.11475.05469,1.66992a.31312.31312,0,0,1-.35938.34864l-2.21875.01074a5.18925,5.18925,0,0,1-.96875-.05469.37814.37814,0,0,1-.32617-.40234l.02246-8.376a20.37294,20.37294,0,0,0-.38086-4.27588.95838.95838,0,0,1-.02246-.18457.21233.21233,0,0,1,.13086-.21777,9.26879,9.26879,0,0,1,1.62109-.34863,12.18989,12.18989,0,0,1,1.68555-.18458q.4248,0,.48437.56055.06006.55958.14746.55957-.10986,0,.92969-.59277a3.8758,3.8758,0,0,1,1.8877-.59277,4.85365,4.85365,0,0,1,3.77441,1.55566A5.56719,5.56719,0,0,1,108.65186,13.53662Zm-4.03614-.02148a2.3375,2.3375,0,0,0-.5332-1.52344,1.79065,1.79065,0,0,0-1.42481-.686,1.66169,1.66169,0,0,0-1.39257.686,2.49558,2.49558,0,0,0-.457,1.52344,2.40225,2.40225,0,0,0,.47851,1.5332,1.68631,1.68631,0,0,0,1.41406.66406Q104.61524,15.7124,104.61572,13.51514Z" style="fill:#fff"/><path d="M120.53076,13.4165a5.49659,5.49659,0,0,1-1.51758,4.02539,5.88406,5.88406,0,0,1-7.9248.02149,5.25781,5.25781,0,0,1-1.54492-3.916A5.734,5.734,0,0,1,111.023,9.45117a5.23306,5.23306,0,0,1,4.00293-1.57129A5.35054,5.35054,0,0,1,119.00732,9.419,5.43851,5.43851,0,0,1,120.53076,13.4165Zm-3.56836,0a2.33984,2.33984,0,0,0-.5332-1.5166,1.69193,1.69193,0,0,0-1.38086-.65869,1.74938,1.74938,0,0,0-1.41406.67432,2.43415,2.43415,0,0,0,0,3.01367,1.80939,1.80939,0,0,0,2.81738,0A2.3273,2.3273,0,0,0,116.9624,13.4165Z" style="fill:#fff"/><path d="M129.05908,11.9917q0,.4248-.46777.4248c-.1377,0-.33887-.00976-.60352-.02734q-.397-.02783-.59277-.02734a1.94279,1.94279,0,0,0-1.22949.2832,1.49906,1.49906,0,0,0-.32617,1.1416q0,.46875.0166,1.41992.01611.95216.01562,1.41992,0,.315.044.94043t.04394.93067q0,.26075-.35937.293c-.34864.02929-.88086.04394-1.59961.04394a16.41934,16.41934,0,0,1-1.65332-.06543c-.23926-.02929-.3584-.14843-.3584-.35937q0-.87012.01074-2.60449.01026-1.73585.01074-2.60547a15.81965,15.81965,0,0,0-.46777-4.21045.7709.7709,0,0,1-.02148-.16309.2123.2123,0,0,1,.16308-.21777q.59766-.06592,1.751-.23926,1.71827-.33691,1.77344-.33789.19629,0,.25.68555.0542.68555.19629.68554-.15236,0,.8916-.57129a4.1932,4.1932,0,0,1,2.01269-.57128c.40625,0,.60938.08789.60938.26171a8.65332,8.65332,0,0,1-.06543.89161q-.06592.61962-.07617.89257c0,.21.00293.48926.01074.83692Q129.05958,11.78564,129.05908,11.9917Z" style="fill:#fff"/><path d="M137.60986,15.58154a9.07536,9.07536,0,0,1-.08105.99024,8.8591,8.8591,0,0,0-.082.97363.75772.75772,0,0,1-.06543.39648,1.30627,1.30627,0,0,1-.3584.251,6.35009,6.35009,0,0,1-3.11133.77246q-3.145,0-3.14453-2.40429,0-.71778.05469-2.15918.0542-1.44141.05468-2.16016c0-.31836-.18554-.479-.55468-.479h-.1416a1.28116,1.28116,0,0,1-.14161.01074q-.41308,0-.41308-.293c0-.11621.00879-.294.02734-.5332q.02637-.35889.02637-.53321,0-.22851-.02637-.69629-.02783-.46728-.02734-.69629c0-.14453.23144-.2246.69629-.23925.26074-.00684.40234-.08008.42383-.21778a8.05125,8.05125,0,0,0,.04394-1.30468q-.04395-1.40332-.04394-1.33887,0-1.26123.23925-1.26172a3.892,3.892,0,0,1,.83789.13086,7.72442,7.72442,0,0,0,.85938.16308q.55518.07619,1.6748.207.27246.022.27246.18457,0,.43506-.07128,1.3164c-.04688.58692-.07032,1.03028-.07032,1.32715q0,.53321.31543.5332.38086,0,1.15332-.0332.772-.03222,1.16407-.03223c.15918,0,.23925.05469.23925.16309q0,.25048-.05468.751-.05421.4995-.05469.75c0,.17383.0039.42871.01172.76172q.01024.501.01074.76171c0,.15235-.10547.229-.31543.229q-.21827,0-.72949-.0166-.51123-.01612-.72852-.0166h-.81543c-.10937,0-.16406.16015-.16406.47851v.77246c.00781.34863.01172.60547.01172.77246a2.6911,2.6911,0,0,0,.206,1.26172,1.25772,1.25772,0,0,0,1.15332.46778,3.46872,3.46872,0,0,0,.77735-.125,3.5323,3.5323,0,0,1,.71289-.125C137.53369,15.34229,137.60986,15.42236,137.60986,15.58154Z" style="fill:#fff"/><path d="M149.21729,13.4165a5.49659,5.49659,0,0,1-1.51758,4.02539,5.88407,5.88407,0,0,1-7.92481.02149,5.25781,5.25781,0,0,1-1.54492-3.916,5.734,5.734,0,0,1,1.47949-4.09619,5.23307,5.23307,0,0,1,4.00293-1.57129A5.35058,5.35058,0,0,1,147.69385,9.419,5.43855,5.43855,0,0,1,149.21729,13.4165Zm-3.56836,0a2.33985,2.33985,0,0,0-.53321-1.5166,1.69193,1.69193,0,0,0-1.38086-.65869,1.74938,1.74938,0,0,0-1.41406.67432,2.43415,2.43415,0,0,0,0,3.01367,1.80939,1.80939,0,0,0,2.81738,0A2.32731,2.32731,0,0,0,145.64893,13.4165Z" style="fill:#fff"/></svg>